linja-pona.ufo
<glyph name="quotedbl" format="1">
  <advance width="665"/>
  <unicode hex="0022"/>
  <outline>
    <contour>
      <point x="256" y="1467" type="line"/>
      <point x="229" y="1086" type="line"/>
      <point x="96" y="1086" type="line"/>
      <point x="72" y="1467" type="line"/>
    </contour>
    <contour>
      <point x="586" y="1467" type="line"/>
      <point x="559" y="1086" type="line"/>
      <point x="426" y="1086" type="line"/>
      <point x="402" y="1467" type="line"/>
    </contour>
  </outline>
</glyph>
<glyph name="numbersign" format="1">
  <advance width="436"/>
  <unicode hex="0023"/>
  <outline>
    <contour>
      <point x="442" y="385" type="line"/>
      <point x="358" y="385" type="line"/>
      <point x="317" y="225" type="line"/>
      <point x="383" y="225" type="line"/>
      <point x="383" y="173" type="line"/>
      <point x="304" y="173" type="line"/>
      <point x="253" y="-8" type="line"/>
      <point x="202" y="-8" type="line"/>
      <point x="252" y="173" type="line"/>
      <point x="131" y="173" type="line"/>
      <point x="81" y="-8" type="line"/>
      <point x="28" y="-8" type="line"/>
      <point x="78" y="173" type="line"/>
      <point x="15" y="173" type="line"/>
      <point x="15" y="225" type="line"/>
      <point x="92" y="225" type="line"/>
      <point x="132" y="385" type="line"/>
      <point x="62" y="385" type="line"/>
      <point x="62" y="437" type="line"/>
      <point x="145" y="437" type="line"/>
      <point x="187" y="605" type="line"/>
      <point x="240" y="605" type="line"/>
      <point x="198" y="437" type="line"/>
      <point x="319" y="437" type="line"/>
      <point x="361" y="605" type="line"/>
      <point x="413" y="605" type="line"/>
      <point x="371" y="437" type="line"/>
      <point x="442" y="437" type="line"/>
    </contour>
    <contour>
      <point x="306" y="385" type="line"/>
      <point x="185" y="385" type="line"/>
      <point x="145" y="225" type="line"/>
      <point x="266" y="225" type="line"/>
    </contour>
  </outline>
</glyph>
<glyph name="dollar" format="1">
  <advance width="1074"/>
  <unicode hex="0024"/>
  <outline>
    <contour>
      <point x="458" y="-246" type="line"/>
      <point x="458" y="-25" type="line"/>
      <point x="412" y="-22"/>
      <point x="354" y="-11"/>
      <point x="284" y="10" type="curve" smooth="yes"/>
      <point x="214" y="31"/>
      <point x="166" y="50"/>
      <point x="140" y="67" type="curve"/>
      <point x="212" y="251" type="line"/>
      <point x="247" y="226"/>
      <point x="292" y="203"/>
      <point x="349" y="184" type="curve" smooth="yes"/>
      <point x="406" y="165"/>
      <point x="457" y="155"/>
      <point x="502" y="155" type="curve" smooth="yes"/>
      <point x="580" y="155"/>
      <point x="643" y="176"/>
      <point x="690" y="219" type="curve" smooth="yes"/>
      <point x="737" y="262"/>
      <point x="761" y="316"/>
      <point x="761" y="382" type="curve" smooth="yes"/>
      <point x="761" y="423"/>
      <point x="754" y="460"/>
      <point x="740" y="492" type="curve" smooth="yes"/>
      <point x="727" y="524"/>
      <point x="708" y="550"/>
      <point x="684" y="569" type="curve" smooth="yes"/>
      <point x="661" y="589"/>
      <point x="607" y="619"/>
      <point x="523" y="658" type="curve" smooth="yes"/>
      <point x="405" y="713" type="line" smooth="yes"/>
      <point x="305" y="760"/>
      <point x="235" y="815"/>
      <point x="195" y="879" type="curve" smooth="yes"/>
      <point x="156" y="943"/>
      <point x="136" y="1020"/>
      <point x="136" y="1110" type="curve" smooth="yes"/>
      <point x="136" y="1203"/>
      <point x="165" y="1283"/>
      <point x="223" y="1352" type="curve" smooth="yes"/>
      <point x="282" y="1421"/>
      <point x="360" y="1464"/>
      <point x="458" y="1482" type="curve"/>
      <point x="458" y="1642" type="line"/>
      <point x="597" y="1642" type="line"/>
      <point x="597" y="1489" type="line"/>
      <point x="740" y="1483"/>
      <point x="837" y="1457"/>
      <point x="888" y="1411" type="curve"/>
      <point x="829" y="1237" type="line"/>
      <point x="802" y="1256"/>
      <point x="762" y="1275"/>
      <point x="707" y="1293" type="curve" smooth="yes"/>
      <point x="652" y="1311"/>
      <point x="602" y="1320"/>
      <point x="555" y="1320" type="curve" smooth="yes"/>
      <point x="487" y="1320"/>
      <point x="433" y="1301"/>
      <point x="394" y="1262" type="curve" smooth="yes"/>
      <point x="355" y="1223"/>
      <point x="336" y="1174"/>
      <point x="336" y="1113" type="curve" smooth="yes"/>
      <point x="336" y="1076"/>
      <point x="343" y="1042"/>
      <point x="357" y="1011" type="curve" smooth="yes"/>
      <point x="371" y="980"/>
      <point x="391" y="954"/>
      <point x="417" y="933" type="curve" smooth="yes"/>
      <point x="443" y="912"/>
      <point x="494" y="883"/>
      <point x="569" y="847" type="curve" smooth="yes"/>
      <point x="661" y="804" type="line" smooth="yes"/>
      <point x="765" y="755"/>
      <point x="841" y="696"/>
      <point x="889" y="625" type="curve" smooth="yes"/>
      <point x="937" y="555"/>
      <point x="961" y="465"/>
      <point x="961" y="355" type="curve" smooth="yes"/>
      <point x="961" y="264"/>
      <point x="929" y="185"/>
      <point x="864" y="116" type="curve" smooth="yes"/>
      <point x="800" y="48"/>
      <point x="711" y="4"/>
      <point x="597" y="-15" type="curve"/>
      <point x="597" y="-246" type="line"/>
    </contour>
  </outline>
</glyph>
<glyph name="percent" format="1">
  <advance width="1229"/>
  <unicode hex="0025"/>
  <outline>
    <contour>
      <point x="1100" y="1491" type="line"/>
      <point x="218" y="-20" type="line"/>
      <point x="91" y="-20" type="line"/>
      <point x="974" y="1491" type="line"/>
    </contour>
    <contour>
      <point x="618" y="1143" type="curve" smooth="yes"/>
      <point x="618" y="954"/>
      <point x="519" y="804"/>
      <point x="339" y="804" type="curve" smooth="yes"/>
      <point x="154" y="804"/>
      <point x="61" y="923"/>
      <point x="61" y="1162" type="curve" smooth="yes"/>
      <point x="61" y="1345"/>
      <point x="172" y="1491"/>
      <point x="348" y="1491" type="curve" smooth="yes"/>
      <point x="512" y="1491"/>
      <point x="618" y="1367"/>
    </contour>
    <contour>
      <point x="187" y="1152" type="curve" smooth="yes"/>
      <point x="187" y="996"/>
      <point x="245" y="906"/>
      <point x="330" y="906" type="curve" smooth="yes"/>
      <point x="438" y="906"/>
      <point x="492" y="988"/>
      <point x="492" y="1151" type="curve" smooth="yes"/>
      <point x="492" y="1310"/>
      <point x="443" y="1389"/>
      <point x="345" y="1389" type="curve" smooth="yes"/>
      <point x="248" y="1389"/>
      <point x="187" y="1297"/>
    </contour>
    <contour>
      <point x="1158" y="319" type="curve" smooth="yes"/>
      <point x="1158" y="130"/>
      <point x="1059" y="-20"/>
      <point x="879" y="-20" type="curve" smooth="yes"/>
      <point x="694" y="-20"/>
      <point x="601" y="99"/>
      <point x="601" y="338" type="curve" smooth="yes"/>
      <point x="601" y="521"/>
      <point x="712" y="667"/>
      <point x="888" y="667" type="curve" smooth="yes"/>
      <point x="1052" y="667"/>
      <point x="1158" y="543"/>
    </contour>
    <contour>
      <point x="727" y="328" type="curve" smooth="yes"/>
      <point x="727" y="172"/>
      <point x="785" y="82"/>
      <point x="870" y="82" type="curve" smooth="yes"/>
      <point x="978" y="82"/>
      <point x="1032" y="164"/>
      <point x="1032" y="327" type="curve" smooth="yes"/>
      <point x="1032" y="486"/>
      <point x="983" y="565"/>
      <point x="885" y="565" type="curve" smooth="yes"/>
      <point x="788" y="565"/>
      <point x="727" y="473"/>
    </contour>
  </outline>
</glyph>
<glyph name="ampersand" format="1">
  <advance width="1446"/>
  <unicode hex="0026"/>
  <outline>
    <contour>
      <point x="929" y="51" type="curve"/>
      <point x="832" y="4"/>
      <point x="716" y="-20"/>
      <point x="579" y="-20" type="curve" smooth="yes"/>
      <point x="440" y="-20"/>
      <point x="332" y="21"/>
      <point x="256" y="103" type="curve" smooth="yes"/>
      <point x="180" y="186"/>
      <point x="142" y="302"/>
      <point x="142" y="453" type="curve" smooth="yes"/>
      <point x="142" y="530"/>
      <point x="153" y="597"/>
      <point x="176" y="654" type="curve" smooth="yes"/>
      <point x="199" y="711"/>
      <point x="242" y="769"/>
      <point x="303" y="830" type="curve"/>
      <point x="209" y="923"/>
      <point x="162" y="1020"/>
      <point x="162" y="1121" type="curve" smooth="yes"/>
      <point x="162" y="1223"/>
      <point x="200" y="1310"/>
      <point x="277" y="1382" type="curve" smooth="yes"/>
      <point x="354" y="1455"/>
      <point x="458" y="1491"/>
      <point x="587" y="1491" type="curve" smooth="yes"/>
      <point x="724" y="1491"/>
      <point x="830" y="1461"/>
      <point x="905" y="1400" type="curve"/>
      <point x="822" y="1246" type="line"/>
      <point x="746" y="1309"/>
      <point x="678" y="1341"/>
      <point x="618" y="1341" type="curve" smooth="yes"/>
      <point x="441" y="1341"/>
      <point x="352" y="1261"/>
      <point x="352" y="1101" type="curve" smooth="yes"/>
      <point x="352" y="1014"/>
      <point x="391" y="941"/>
      <point x="468" y="881" type="curve"/>
      <point x="840" y="881" type="line"/>
      <point x="840" y="1064" type="line"/>
      <point x="1030" y="1137" type="line"/>
      <point x="1030" y="878" type="line"/>
      <point x="1279" y="878" type="line"/>
      <point x="1279" y="718" type="line"/>
      <point x="1030" y="718" type="line"/>
      <point x="1030" y="388" type="line" smooth="yes"/>
      <point x="1030" y="296"/>
      <point x="1042" y="233"/>
      <point x="1067" y="200" type="curve" smooth="yes"/>
      <point x="1092" y="167"/>
      <point x="1134" y="150"/>
      <point x="1195" y="150" type="curve" smooth="yes"/>
      <point x="1231" y="150"/>
      <point x="1273" y="162"/>
      <point x="1322" y="187" type="curve"/>
      <point x="1349" y="10" type="line"/>
      <point x="1279" y="-10"/>
      <point x="1199" y="-20"/>
      <point x="1109" y="-20" type="curve" smooth="yes"/>
      <point x="1047" y="-20"/>
      <point x="987" y="4"/>
    </contour>
    <contour>
      <point x="840" y="314" type="curve" smooth="yes"/>
      <point x="840" y="718" type="line"/>
      <point x="437" y="718" type="line"/>
      <point x="374" y="637"/>
      <point x="342" y="551"/>
      <point x="342" y="462" type="curve" smooth="yes"/>
      <point x="342" y="254"/>
      <point x="444" y="150"/>
      <point x="647" y="150" type="curve" smooth="yes"/>
      <point x="738" y="150"/>
      <point x="806" y="166"/>
      <point x="851" y="199" type="curve"/>
      <point x="844" y="230"/>
      <point x="840" y="268"/>
    </contour>
  </outline>
</glyph>
<glyph name="quotesingle" format="1">
  <advance width="133"/>
  <unicode hex="0027"/>
  <outline>
    <contour>
      <point x="104" y="597" type="line"/>
      <point x="93" y="442" type="line"/>
      <point x="39" y="442" type="line"/>
      <point x="29" y="597" type="line"/>
    </contour>
  </outline>
</glyph>
<glyph name="parenleft" format="1">
  <advance width="752"/>
  <unicode hex="0028"/>
  <outline>
    <contour>
      <point x="618" y="1475" type="curve"/>
      <point x="618" y="1392" type="line"/>
      <point x="486" y="1201"/>
      <point x="420" y="923"/>
      <point x="420" y="557" type="curve" smooth="yes"/>
      <point x="420" y="122"/>
      <point x="486" y="-171"/>
      <point x="618" y="-323" type="curve"/>
      <point x="618" y="-428" type="line"/>
      <point x="483" y="-334"/>
      <point x="379" y="-199"/>
      <point x="304" y="-23" type="curve" smooth="yes"/>
      <point x="230" y="152"/>
      <point x="193" y="346"/>
      <point x="193" y="559" type="curve" smooth="yes"/>
      <point x="193" y="740"/>
      <point x="235" y="923"/>
      <point x="320" y="1108" type="curve" smooth="yes"/>
      <point x="405" y="1293"/>
      <point x="504" y="1416"/>
    </contour>
  </outline>
</glyph>
<glyph name="parenright" format="1">
  <advance width="752"/>
  <unicode hex="0029"/>
  <outline>
    <contour>
      <point x="193" y="-428" type="curve"/>
      <point x="193" y="-323" type="line"/>
      <point x="325" y="-171"/>
      <point x="391" y="122"/>
      <point x="391" y="557" type="curve" smooth="yes"/>
      <point x="391" y="923"/>
      <point x="325" y="1201"/>
      <point x="193" y="1392" type="curve"/>
      <point x="193" y="1475" type="line"/>
      <point x="307" y="1416"/>
      <point x="406" y="1293"/>
      <point x="491" y="1108" type="curve" smooth="yes"/>
      <point x="576" y="923"/>
      <point x="618" y="740"/>
      <point x="618" y="559" type="curve" smooth="yes"/>
      <point x="618" y="125"/>
      <point x="452" y="-247"/>
    </contour>
  </outline>
</glyph>
<glyph name="asterisk" format="1">
  <advance width="305"/>
  <unicode hex="002A"/>
  <outline>
    <contour>
      <point x="278" y="470" type="line"/>
      <point x="243" y="459" type="line"/>
      <point x="172" y="457" type="line"/>
      <point x="237" y="415" type="line"/>
      <point x="256" y="389" type="line"/>
      <point x="206" y="347" type="line"/>
      <point x="184" y="376" type="line"/>
      <point x="151" y="440" type="line"/>
      <point x="114" y="374" type="line"/>
      <point x="96" y="348" type="line"/>
      <point x="43" y="389" type="line"/>
      <point x="63" y="417" type="line"/>
      <point x="128" y="451" type="line"/>
      <point x="56" y="462" type="line"/>
      <point x="20" y="475" type="line"/>
      <point x="49" y="536" type="line"/>
      <point x="88" y="521" type="line"/>
      <point x="139" y="483" type="line"/>
      <point x="113" y="566" type="line"/>
      <point x="113" y="598" type="line"/>
      <point x="185" y="598" type="line"/>
      <point x="185" y="567" type="line"/>
      <point x="160" y="481" type="line"/>
      <point x="225" y="525" type="line"/>
      <point x="255" y="536" type="line"/>
    </contour>
  </outline>
</glyph>
<glyph name="plus" format="1">
  <advance width="1074"/>
  <unicode hex="002B"/>
  <outline>
    <contour>
      <point x="611" y="1049" type="line"/>
      <point x="611" y="706" type="line"/>
      <point x="960" y="706" type="line"/>
      <point x="960" y="565" type="line"/>
      <point x="611" y="565" type="line"/>
      <point x="611" y="220" type="line"/>
      <point x="470" y="220" type="line"/>
      <point x="470" y="565" type="line"/>
      <point x="122" y="565" type="line"/>
      <point x="122" y="706" type="line"/>
      <point x="470" y="706" type="line"/>
      <point x="470" y="1049" type="line"/>
    </contour>
  </outline>
</glyph>
<glyph name="comma" format="1">
  <advance width="752"/>
  <unicode hex="002C"/>
  <outline>
    <contour>
      <point x="224" y="-363" type="curve"/>
      <point x="173" y="-291" type="line"/>
      <point x="288" y="-197"/>
      <point x="345" y="-117"/>
      <point x="345" y="-51" type="curve" smooth="yes"/>
      <point x="345" y="-22"/>
      <point x="335" y="8"/>
      <point x="315" y="37" type="curve"/>
      <point x="258" y="64"/>
      <point x="229" y="104"/>
      <point x="229" y="155" type="curve" smooth="yes"/>
      <point x="229" y="226"/>
      <point x="290" y="277"/>
      <point x="373" y="277" type="curve" smooth="yes"/>
      <point x="410" y="277"/>
      <point x="442" y="261"/>
      <point x="471" y="229" type="curve" smooth="yes"/>
      <point x="500" y="197"/>
      <point x="515" y="160"/>
      <point x="515" y="117" type="curve" smooth="yes"/>
      <point x="515" y="28"/>
      <point x="496" y="-51"/>
      <point x="459" y="-122" type="curve" smooth="yes"/>
      <point x="422" y="-193"/>
      <point x="344" y="-274"/>
    </contour>
  </outline>
</glyph>
<glyph name="slash" format="1">
  <advance width="1074"/>
  <unicode hex="002F"/>
  <outline>
    <contour>
      <point x="879" y="1471" type="line"/>
      <point x="350" y="0" type="line"/>
      <point x="189" y="0" type="line"/>
      <point x="720" y="1471" type="line"/>
    </contour>
  </outline>
</glyph>
<glyph name="zero" format="1">
  <advance width="1074"/>
  <unicode hex="0030"/>
  <outline>
    <contour>
      <point x="1013" y="745" type="curve" smooth="yes"/>
      <point x="1013" y="350"/>
      <point x="898" y="-20"/>
      <point x="538" y="-20" type="curve" smooth="yes"/>
      <point x="383" y="-20"/>
      <point x="265" y="35"/>
      <point x="184" y="145" type="curve" smooth="yes"/>
      <point x="104" y="255"/>
      <point x="64" y="466"/>
      <point x="64" y="777" type="curve" smooth="yes"/>
      <point x="64" y="1144"/>
      <point x="207" y="1491"/>
      <point x="552" y="1491" type="curve" smooth="yes"/>
      <point x="705" y="1491"/>
      <point x="820" y="1436"/>
      <point x="897" y="1325" type="curve" smooth="yes"/>
      <point x="974" y="1214"/>
      <point x="1013" y="1021"/>
    </contour>
    <contour>
      <point x="813" y="758" type="curve" smooth="yes"/>
      <point x="813" y="1056"/>
      <point x="787" y="1321"/>
      <point x="547" y="1321" type="curve" smooth="yes"/>
      <point x="358" y="1321"/>
      <point x="264" y="1134"/>
      <point x="264" y="759" type="curve" smooth="yes"/>
      <point x="264" y="353"/>
      <point x="351" y="150"/>
      <point x="524" y="150" type="curve" smooth="yes"/>
      <point x="623" y="150"/>
      <point x="696" y="195"/>
      <point x="743" y="285" type="curve" smooth="yes"/>
      <point x="790" y="375"/>
      <point x="813" y="533"/>
    </contour>
  </outline>
</glyph>
<glyph name="one" format="1">
  <advance width="1074"/>
  <unicode hex="0031"/>
  <outline>
    <contour>
      <point x="698" y="0" type="line"/>
      <point x="498" y="0" type="line"/>
      <point x="498" y="1123" type="line"/>
      <point x="200" y="937" type="line"/>
      <point x="200" y="1124" type="line"/>
      <point x="275" y="1162"/>
      <point x="355" y="1214"/>
      <point x="440" y="1281" type="curve" smooth="yes"/>
      <point x="525" y="1348"/>
      <point x="591" y="1411"/>
      <point x="638" y="1471" type="curve"/>
      <point x="698" y="1471" type="line"/>
    </contour>
  </outline>
</glyph>
<glyph name="two" format="1">
  <advance width="436"/>
  <unicode hex="0032"/>
  <outline>
    <contour>
      <point x="176" y="607" type="curve" smooth="yes"/>
      <point x="283" y="607"/>
      <point x="359" y="558"/>
      <point x="359" y="455" type="curve" smooth="yes"/>
      <point x="359" y="410"/>
      <point x="338" y="354"/>
      <point x="295" y="286" type="curve" smooth="yes"/>
      <point x="161" y="73" type="line"/>
      <point x="394" y="73" type="line"/>
      <point x="394" y="0" type="line"/>
      <point x="28" y="0" type="line"/>
      <point x="28" y="16" type="line"/>
      <point x="215" y="302" type="line" smooth="yes"/>
      <point x="254" y="362"/>
      <point x="273" y="413"/>
      <point x="273" y="455" type="curve" smooth="yes"/>
      <point x="273" y="510"/>
      <point x="242" y="537"/>
      <point x="180" y="537" type="curve" smooth="yes"/>
      <point x="134" y="537"/>
      <point x="92" y="508"/>
      <point x="76" y="476" type="curve"/>
      <point x="24" y="520" type="line"/>
      <point x="43" y="574"/>
      <point x="102" y="607"/>
    </contour>
  </outline>
</glyph>
<glyph name="three" format="1">
  <advance width="1074"/>
  <unicode hex="0033"/>
  <outline>
    <contour>
      <point x="941" y="406" type="curve" smooth="yes"/>
      <point x="941" y="121"/>
      <point x="744" y="-20"/>
      <point x="450" y="-20" type="curve" smooth="yes"/>
      <point x="317" y="-20"/>
      <point x="179" y="40"/>
      <point x="109" y="104" type="curve"/>
      <point x="205" y="258" type="line"/>
      <point x="270" y="186"/>
      <point x="353" y="150"/>
      <point x="453" y="150" type="curve" smooth="yes"/>
      <point x="638" y="150"/>
      <point x="731" y="241"/>
      <point x="731" y="422" type="curve" smooth="yes"/>
      <point x="731" y="592"/>
      <point x="607" y="701"/>
      <point x="435" y="701" type="curve" smooth="yes"/>
      <point x="419" y="701" type="line"/>
      <point x="419" y="863" type="line"/>
      <point x="428" y="863" type="line" smooth="yes"/>
      <point x="597" y="863"/>
      <point x="682" y="938"/>
      <point x="682" y="1087" type="curve" smooth="yes"/>
      <point x="682" y="1243"/>
      <point x="602" y="1321"/>
      <point x="443" y="1321" type="curve" smooth="yes"/>
      <point x="356" y="1321"/>
      <point x="287" y="1292"/>
      <point x="236" y="1234" type="curve"/>
      <point x="147" y="1370" type="line"/>
      <point x="209" y="1451"/>
      <point x="313" y="1491"/>
      <point x="458" y="1491" type="curve" smooth="yes"/>
      <point x="694" y="1491"/>
      <point x="892" y="1354"/>
      <point x="892" y="1126" type="curve" smooth="yes"/>
      <point x="892" y="966"/>
      <point x="785" y="825"/>
      <point x="666" y="784" type="curve"/>
      <point x="821" y="734"/>
      <point x="941" y="604"/>
    </contour>
  </outline>
</glyph>
<glyph name="four" format="1">
  <advance width="1074"/>
  <unicode hex="0034"/>
  <outline>
    <contour>
      <point x="1030" y="399" type="line"/>
      <point x="882" y="399" type="line"/>
      <point x="882" y="0" type="line"/>
      <point x="692" y="0" type="line"/>
      <point x="692" y="399" type="line"/>
      <point x="25" y="399" type="line"/>
      <point x="25" y="513" type="line"/>
      <point x="812" y="1471" type="line"/>
      <point x="882" y="1471" type="line"/>
      <point x="882" y="553" type="line"/>
      <point x="1030" y="553" type="line"/>
    </contour>
    <contour>
      <point x="692" y="553" type="line"/>
      <point x="692" y="1072" type="line"/>
      <point x="262" y="553" type="line"/>
    </contour>
  </outline>
</glyph>
<glyph name="five" format="1">
  <advance width="1074"/>
  <unicode hex="0035"/>
  <outline>
    <contour>
      <point x="232" y="715" type="curve"/>
      <point x="164" y="762" type="line"/>
      <point x="164" y="1471" type="line"/>
      <point x="893" y="1471" type="line"/>
      <point x="893" y="1301" type="line"/>
      <point x="354" y="1301" type="line"/>
      <point x="354" y="945" type="line"/>
      <point x="403" y="982"/>
      <point x="466" y="1000"/>
      <point x="542" y="1000" type="curve" smooth="yes"/>
      <point x="814" y="1000"/>
      <point x="961" y="831"/>
      <point x="961" y="531" type="curve" smooth="yes"/>
      <point x="961" y="164"/>
      <point x="797" y="-20"/>
      <point x="470" y="-20" type="curve" smooth="yes"/>
      <point x="333" y="-20"/>
      <point x="220" y="18"/>
      <point x="130" y="94" type="curve"/>
      <point x="207" y="261" type="line"/>
      <point x="298" y="187"/>
      <point x="385" y="150"/>
      <point x="469" y="150" type="curve" smooth="yes"/>
      <point x="657" y="150"/>
      <point x="751" y="267"/>
      <point x="751" y="502" type="curve" smooth="yes"/>
      <point x="751" y="721"/>
      <point x="658" y="830"/>
      <point x="473" y="830" type="curve" smooth="yes"/>
      <point x="384" y="830"/>
      <point x="303" y="792"/>
    </contour>
  </outline>
</glyph>
<glyph name="six" format="1">
  <advance width="436"/>
  <unicode hex="0036"/>
  <outline>
    <contour>
      <point x="228" y="373" type="curve" smooth="yes"/>
      <point x="337" y="373"/>
      <point x="402" y="296"/>
      <point x="402" y="184" type="curve" smooth="yes"/>
      <point x="402" y="126"/>
      <point x="386" y="78"/>
      <point x="353" y="43" type="curve" smooth="yes"/>
      <point x="320" y="8"/>
      <point x="279" y="-10"/>
      <point x="230" y="-10" type="curve" smooth="yes"/>
      <point x="99" y="-10"/>
      <point x="34" y="77"/>
      <point x="34" y="250" type="curve" smooth="yes"/>
      <point x="34" y="322"/>
      <point x="60" y="396"/>
      <point x="111" y="471" type="curve" smooth="yes"/>
      <point x="162" y="547"/>
      <point x="216" y="592"/>
      <point x="273" y="607" type="curve"/>
      <point x="313" y="563" type="line"/>
      <point x="289" y="554"/>
      <point x="254" y="522"/>
      <point x="209" y="467" type="curve" smooth="yes"/>
      <point x="164" y="412"/>
      <point x="139" y="371"/>
      <point x="134" y="341" type="curve"/>
      <point x="156" y="363"/>
      <point x="188" y="373"/>
    </contour>
    <contour>
      <point x="319" y="180" type="curve" smooth="yes"/>
      <point x="319" y="247"/>
      <point x="286" y="304"/>
      <point x="223" y="304" type="curve" smooth="yes"/>
      <point x="154" y="304"/>
      <point x="120" y="265"/>
      <point x="120" y="186" type="curve" smooth="yes"/>
      <point x="120" y="101"/>
      <point x="154" y="59"/>
      <point x="224" y="59" type="curve" smooth="yes"/>
      <point x="287" y="59"/>
      <point x="319" y="114"/>
    </contour>
  </outline>
</glyph>
<glyph name="seven" format="1">
  <advance width="1074"/>
  <unicode hex="0037"/>
  <outline>
    <contour>
      <point x="428" y="0" type="curve"/>
      <point x="206" y="0" type="line"/>
      <point x="255" y="157"/>
      <point x="338" y="364"/>
      <point x="455" y="621" type="curve" smooth="yes"/>
      <point x="572" y="879"/>
      <point x="678" y="1099"/>
      <point x="775" y="1281" type="curve"/>
      <point x="84" y="1281" type="line"/>
      <point x="84" y="1471" type="line"/>
      <point x="1034" y="1471" type="line"/>
      <point x="1034" y="1393" type="line"/>
      <point x="905" y="1139" type="line" smooth="yes"/>
      <point x="818" y="967"/>
      <point x="721" y="755"/>
      <point x="630" y="542" type="curve" smooth="yes"/>
      <point x="539" y="329"/>
      <point x="471" y="144"/>
    </contour>
  </outline>
</glyph>
<glyph name="eight" format="1">
  <advance width="1074"/>
  <unicode hex="0038"/>
  <outline>
    <contour>
      <point x="89" y="406" type="curve" smooth="yes"/>
      <point x="89" y="586"/>
      <point x="221" y="759"/>
      <point x="353" y="815" type="curve"/>
      <point x="249" y="870"/>
      <point x="142" y="992"/>
      <point x="142" y="1138" type="curve" smooth="yes"/>
      <point x="142" y="1361"/>
      <point x="312" y="1491"/>
      <point x="538" y="1491" type="curve" smooth="yes"/>
      <point x="776" y="1491"/>
      <point x="935" y="1367"/>
      <point x="935" y="1137" type="curve" smooth="yes"/>
      <point x="935" y="996"/>
      <point x="821" y="848"/>
      <point x="726" y="795" type="curve"/>
      <point x="902" y="696"/>
      <point x="990" y="567"/>
      <point x="990" y="406" type="curve" smooth="yes"/>
      <point x="990" y="131"/>
      <point x="811" y="-20"/>
      <point x="533" y="-20" type="curve" smooth="yes"/>
      <point x="237" y="-20"/>
      <point x="89" y="122"/>
    </contour>
    <contour>
      <point x="598" y="877" type="curve"/>
      <point x="689" y="962"/>
      <point x="734" y="1051"/>
      <point x="734" y="1142" type="curve" smooth="yes"/>
      <point x="734" y="1251"/>
      <point x="654" y="1321"/>
      <point x="538" y="1321" type="curve" smooth="yes"/>
      <point x="407" y="1321"/>
      <point x="342" y="1261"/>
      <point x="342" y="1140" type="curve" smooth="yes"/>
      <point x="342" y="1051"/>
      <point x="427" y="963"/>
    </contour>
    <contour>
      <point x="533" y="150" type="curve" smooth="yes"/>
      <point x="682" y="150"/>
      <point x="790" y="258"/>
      <point x="790" y="406" type="curve" smooth="yes"/>
      <point x="790" y="460"/>
      <point x="773" y="511"/>
      <point x="740" y="558" type="curve" smooth="yes"/>
      <point x="707" y="606"/>
      <point x="630" y="663"/>
      <point x="509" y="728" type="curve"/>
      <point x="362" y="649"/>
      <point x="289" y="541"/>
      <point x="289" y="406" type="curve" smooth="yes"/>
      <point x="289" y="262"/>
      <point x="389" y="150"/>
    </contour>
  </outline>
</glyph>
<glyph name="nine" format="1">
  <advance width="436"/>
  <unicode hex="0039"/>
  <outline>
    <contour>
      <point x="204" y="223" type="curve" smooth="yes"/>
      <point x="95" y="223"/>
      <point x="30" y="301"/>
      <point x="30" y="413" type="curve" smooth="yes"/>
      <point x="30" y="471"/>
      <point x="46" y="518"/>
      <point x="79" y="553" type="curve" smooth="yes"/>
      <point x="112" y="588"/>
      <point x="153" y="607"/>
      <point x="202" y="607" type="curve" smooth="yes"/>
      <point x="333" y="607"/>
      <point x="398" y="520"/>
      <point x="398" y="347" type="curve" smooth="yes"/>
      <point x="398" y="275"/>
      <point x="372" y="201"/>
      <point x="321" y="125" type="curve" smooth="yes"/>
      <point x="270" y="50"/>
      <point x="216" y="5"/>
      <point x="159" y="-10" type="curve"/>
      <point x="120" y="33" type="line"/>
      <point x="144" y="42"/>
      <point x="178" y="74"/>
      <point x="223" y="129" type="curve" smooth="yes"/>
      <point x="269" y="184"/>
      <point x="294" y="225"/>
      <point x="298" y="255" type="curve"/>
      <point x="276" y="233"/>
      <point x="244" y="223"/>
    </contour>
    <contour>
      <point x="114" y="417" type="curve" smooth="yes"/>
      <point x="114" y="350"/>
      <point x="147" y="293"/>
      <point x="210" y="293" type="curve" smooth="yes"/>
      <point x="279" y="293"/>
      <point x="313" y="331"/>
      <point x="313" y="410" type="curve" smooth="yes"/>
      <point x="313" y="495"/>
      <point x="278" y="537"/>
      <point x="208" y="537" type="curve" smooth="yes"/>
      <point x="145" y="537"/>
      <point x="114" y="483"/>
    </contour>
  </outline>
</glyph>
<glyph name="colon" format="1">
  <advance width="752"/>
  <unicode hex="003A"/>
  <outline>
    <contour>
      <point x="354" y="1091" type="curve" smooth="yes"/>
      <point x="395" y="1091"/>
      <point x="431" y="1076"/>
      <point x="460" y="1047" type="curve" smooth="yes"/>
      <point x="489" y="1018"/>
      <point x="504" y="982"/>
      <point x="504" y="941" type="curve" smooth="yes"/>
      <point x="504" y="900"/>
      <point x="489" y="864"/>
      <point x="460" y="834" type="curve" smooth="yes"/>
      <point x="431" y="805"/>
      <point x="395" y="790"/>
      <point x="354" y="790" type="curve" smooth="yes"/>
      <point x="313" y="790"/>
      <point x="277" y="805"/>
      <point x="248" y="834" type="curve" smooth="yes"/>
      <point x="219" y="864"/>
      <point x="204" y="900"/>
      <point x="204" y="941" type="curve" smooth="yes"/>
      <point x="204" y="982"/>
      <point x="219" y="1018"/>
      <point x="248" y="1047" type="curve" smooth="yes"/>
      <point x="277" y="1076"/>
      <point x="313" y="1091"/>
    </contour>
    <contour>
      <point x="354" y="281" type="curve" smooth="yes"/>
      <point x="395" y="281"/>
      <point x="431" y="266"/>
      <point x="460" y="237" type="curve" smooth="yes"/>
      <point x="489" y="208"/>
      <point x="504" y="172"/>
      <point x="504" y="131" type="curve" smooth="yes"/>
      <point x="504" y="90"/>
      <point x="489" y="54"/>
      <point x="460" y="24" type="curve" smooth="yes"/>
      <point x="431" y="-5"/>
      <point x="395" y="-20"/>
      <point x="354" y="-20" type="curve" smooth="yes"/>
      <point x="313" y="-20"/>
      <point x="277" y="-5"/>
      <point x="248" y="24" type="curve" smooth="yes"/>
      <point x="219" y="54"/>
      <point x="204" y="90"/>
      <point x="204" y="131" type="curve" smooth="yes"/>
      <point x="204" y="172"/>
      <point x="219" y="208"/>
      <point x="248" y="237" type="curve" smooth="yes"/>
      <point x="277" y="266"/>
      <point x="313" y="281"/>
    </contour>
  </outline>
</glyph>
<glyph name="semicolon" format="1">
  <advance width="305"/>
  <unicode hex="003B"/>
  <outline>
    <contour>
      <point x="83" y="383" type="curve" smooth="yes"/>
      <point x="83" y="416"/>
      <point x="111" y="444"/>
      <point x="144" y="444" type="curve" smooth="yes"/>
      <point x="177" y="444"/>
      <point x="205" y="416"/>
      <point x="205" y="383" type="curve" smooth="yes"/>
      <point x="205" y="350"/>
      <point x="177" y="321"/>
      <point x="144" y="321" type="curve" smooth="yes"/>
      <point x="111" y="321"/>
      <point x="83" y="350"/>
    </contour>
    <contour>
      <point x="152" y="113" type="curve" smooth="yes"/>
      <point x="183" y="113"/>
      <point x="210" y="80"/>
      <point x="210" y="48" type="curve" smooth="yes"/>
      <point x="210" y="12"/>
      <point x="202" y="-21"/>
      <point x="187" y="-50" type="curve" smooth="yes"/>
      <point x="172" y="-79"/>
      <point x="140" y="-112"/>
      <point x="91" y="-148" type="curve"/>
      <point x="70" y="-118" type="line"/>
      <point x="117" y="-80"/>
      <point x="140" y="-48"/>
      <point x="140" y="-21" type="curve" smooth="yes"/>
      <point x="140" y="-9"/>
      <point x="136" y="3"/>
      <point x="128" y="15" type="curve"/>
      <point x="105" y="26"/>
      <point x="93" y="42"/>
      <point x="93" y="63" type="curve" smooth="yes"/>
      <point x="93" y="92"/>
      <point x="118" y="113"/>
    </contour>
  </outline>
</glyph>
<glyph name="less" format="1">
  <advance width="436"/>
  <unicode hex="003C"/>
  <outline>
    <contour>
      <point x="362" y="154" type="line"/>
      <point x="362" y="89" type="line"/>
      <point x="61" y="234" type="line"/>
      <point x="61" y="284" type="line"/>
      <point x="362" y="428" type="line"/>
      <point x="362" y="363" type="line"/>
      <point x="129" y="259" type="line"/>
    </contour>
  </outline>
</glyph>
<glyph name="equal" format="1">
  <advance width="436"/>
  <unicode hex="003D"/>
  <outline>
    <contour>
      <point x="50" y="356" type="line"/>
      <point x="391" y="356" type="line"/>
      <point x="391" y="299" type="line"/>
      <point x="50" y="299" type="line"/>
    </contour>
    <contour>
      <point x="50" y="218" type="line"/>
      <point x="391" y="218" type="line"/>
      <point x="391" y="161" type="line"/>
      <point x="50" y="161" type="line"/>
    </contour>
  </outline>
</glyph>
<glyph name="greater" format="1">
  <advance width="1074"/>
  <unicode hex="003E"/>
  <outline>
    <contour>
      <point x="889" y="699" type="line"/>
      <point x="889" y="576" type="line"/>
      <point x="150" y="218" type="line"/>
      <point x="150" y="379" type="line"/>
      <point x="721" y="637" type="line"/>
      <point x="150" y="892" type="line"/>
      <point x="150" y="1053" type="line"/>
    </contour>
  </outline>
</glyph>
<glyph name="question" format="1">
  <advance width="880"/>
  <unicode hex="003F"/>
  <outline>
    <contour>
      <point x="465" y="1491" type="curve" smooth="yes"/>
      <point x="659" y="1491"/>
      <point x="814" y="1371"/>
      <point x="814" y="1179" type="curve" smooth="yes"/>
      <point x="814" y="1083"/>
      <point x="781" y="993"/>
      <point x="710" y="918" type="curve" smooth="yes"/>
      <point x="564" y="762" type="line"/>
      <point x="505" y="690"/>
      <point x="476" y="609"/>
      <point x="476" y="520" type="curve" smooth="yes"/>
      <point x="476" y="506"/>
      <point x="481" y="476"/>
      <point x="490" y="429" type="curve"/>
      <point x="358" y="429" type="line"/>
      <point x="335" y="492"/>
      <point x="324" y="538"/>
      <point x="324" y="566" type="curve" smooth="yes"/>
      <point x="324" y="614"/>
      <point x="333" y="663"/>
      <point x="350" y="713" type="curve" smooth="yes"/>
      <point x="368" y="763"/>
      <point x="408" y="823"/>
      <point x="470" y="892" type="curve" smooth="yes"/>
      <point x="533" y="962"/>
      <point x="575" y="1016"/>
      <point x="596" y="1053" type="curve" smooth="yes"/>
      <point x="617" y="1090"/>
      <point x="628" y="1127"/>
      <point x="628" y="1162" type="curve" smooth="yes"/>
      <point x="628" y="1279"/>
      <point x="557" y="1338"/>
      <point x="415" y="1338" type="curve" smooth="yes"/>
      <point x="347" y="1338"/>
      <point x="288" y="1314"/>
      <point x="237" y="1265" type="curve"/>
      <point x="164" y="1408" type="line"/>
      <point x="231" y="1463"/>
      <point x="332" y="1491"/>
    </contour>
    <contour>
      <point x="298" y="131" type="curve" smooth="yes"/>
      <point x="298" y="213"/>
      <point x="366" y="281"/>
      <point x="448" y="281" type="curve" smooth="yes"/>
      <point x="530" y="281"/>
      <point x="598" y="213"/>
      <point x="598" y="131" type="curve" smooth="yes"/>
      <point x="598" y="49"/>
      <point x="530" y="-20"/>
      <point x="448" y="-20" type="curve" smooth="yes"/>
      <point x="366" y="-20"/>
      <point x="298" y="49"/>
    </contour>
  </outline>
</glyph>
<glyph name="at" format="1">
  <advance width="1578"/>
  <unicode hex="0040"/>
  <outline>
    <contour>
      <point x="242" y="581" type="curve" smooth="yes"/>
      <point x="242" y="232"/>
      <point x="459" y="-12"/>
      <point x="805" y="-12" type="curve" smooth="yes"/>
      <point x="959" y="-12"/>
      <point x="1083" y="31"/>
      <point x="1176" y="116" type="curve"/>
      <point x="1207" y="105"/>
      <point x="1252" y="85"/>
      <point x="1311" y="58" type="curve"/>
      <point x="1183" y="-70"/>
      <point x="1014" y="-134"/>
      <point x="805" y="-134" type="curve" smooth="yes"/>
      <point x="380" y="-134"/>
      <point x="100" y="155"/>
      <point x="100" y="581" type="curve" smooth="yes"/>
      <point x="100" y="798"/>
      <point x="165" y="977"/>
      <point x="295" y="1116" type="curve" smooth="yes"/>
      <point x="425" y="1255"/>
      <point x="595" y="1325"/>
      <point x="805" y="1325" type="curve" smooth="yes"/>
      <point x="1207" y="1325"/>
      <point x="1478" y="1062"/>
      <point x="1478" y="661" type="curve" smooth="yes"/>
      <point x="1478" y="450"/>
      <point x="1358" y="254"/>
      <point x="1152" y="254" type="curve" smooth="yes"/>
      <point x="1046" y="254"/>
      <point x="969" y="277"/>
      <point x="922" y="324" type="curve"/>
      <point x="865" y="272"/>
      <point x="798" y="246"/>
      <point x="721" y="246" type="curve" smooth="yes"/>
      <point x="583" y="246"/>
      <point x="482" y="326"/>
      <point x="482" y="462" type="curve" smooth="yes"/>
      <point x="482" y="654"/>
      <point x="674" y="720"/>
      <point x="882" y="720" type="curve"/>
      <point x="872" y="818"/>
      <point x="833" y="867"/>
      <point x="764" y="867" type="curve" smooth="yes"/>
      <point x="694" y="867"/>
      <point x="639" y="848"/>
      <point x="598" y="811" type="curve"/>
      <point x="550" y="910" type="line"/>
      <point x="605" y="951"/>
      <point x="671" y="971"/>
      <point x="750" y="971" type="curve" smooth="yes"/>
      <point x="935" y="971"/>
      <point x="1028" y="865"/>
      <point x="1028" y="652" type="curve" smooth="yes"/>
      <point x="1028" y="413" type="line"/>
      <point x="1076" y="378"/>
      <point x="1117" y="360"/>
      <point x="1150" y="360" type="curve" smooth="yes"/>
      <point x="1274" y="360"/>
      <point x="1336" y="461"/>
      <point x="1336" y="664" type="curve" smooth="yes"/>
      <point x="1336" y="818"/>
      <point x="1286" y="946"/>
      <point x="1186" y="1049" type="curve" smooth="yes"/>
      <point x="1086" y="1152"/>
      <point x="959" y="1203"/>
      <point x="805" y="1203" type="curve" smooth="yes"/>
      <point x="636" y="1203"/>
      <point x="500" y="1145"/>
      <point x="397" y="1028" type="curve" smooth="yes"/>
      <point x="294" y="911"/>
      <point x="242" y="762"/>
    </contour>
    <contour>
      <point x="882" y="393" type="curve"/>
      <point x="882" y="627" type="line"/>
      <point x="831" y="627" type="line" smooth="yes"/>
      <point x="701" y="627"/>
      <point x="636" y="574"/>
      <point x="636" y="467" type="curve" smooth="yes"/>
      <point x="636" y="395"/>
      <point x="693" y="343"/>
      <point x="769" y="343" type="curve" smooth="yes"/>
      <point x="811" y="343"/>
      <point x="849" y="360"/>
    </contour>
  </outline>
</glyph>
<glyph name="A" format="1">
  <advance width="491"/>
  <unicode hex="0041"/>
  <outline>
    <contour>
      <point x="490" y="0" type="line"/>
      <point x="400" y="0" type="line"/>
      <point x="358" y="126" type="line"/>
      <point x="137" y="126" type="line"/>
      <point x="93" y="0" type="line"/>
      <point x="2" y="0" type="line"/>
      <point x="244" y="604" type="line"/>
      <point x="265" y="604" type="line"/>
    </contour>
    <contour>
      <point x="335" y="186" type="line"/>
      <point x="251" y="448" type="line"/>
      <point x="158" y="186" type="line"/>
    </contour>
  </outline>
</glyph>
<glyph name="B" format="1">
  <advance width="1159"/>
  <unicode hex="0042"/>
  <outline>
    <contour>
      <point x="1079" y="423" type="curve" smooth="yes"/>
      <point x="1079" y="150"/>
      <point x="850" y="0"/>
      <point x="568" y="0" type="curve" smooth="yes"/>
      <point x="150" y="0" type="line"/>
      <point x="150" y="1465" type="line"/>
      <point x="328" y="1474"/>
      <point x="456" y="1478"/>
      <point x="535" y="1478" type="curve" smooth="yes"/>
      <point x="824" y="1478"/>
      <point x="990" y="1349"/>
      <point x="990" y="1117" type="curve" smooth="yes"/>
      <point x="990" y="977"/>
      <point x="861" y="852"/>
      <point x="746" y="826" type="curve"/>
      <point x="978" y="770"/>
      <point x="1079" y="646"/>
    </contour>
    <contour>
      <point x="350" y="1305" type="curve"/>
      <point x="350" y="884" type="line"/>
      <point x="392" y="880"/>
      <point x="444" y="878"/>
      <point x="506" y="878" type="curve" smooth="yes"/>
      <point x="695" y="878"/>
      <point x="790" y="955"/>
      <point x="790" y="1109" type="curve" smooth="yes"/>
      <point x="790" y="1244"/>
      <point x="703" y="1312"/>
      <point x="529" y="1312" type="curve" smooth="yes"/>
      <point x="462" y="1312"/>
      <point x="403" y="1310"/>
    </contour>
    <contour>
      <point x="869" y="455" type="curve" smooth="yes"/>
      <point x="869" y="668"/>
      <point x="741" y="734"/>
      <point x="511" y="734" type="curve"/>
      <point x="350" y="729" type="line"/>
      <point x="350" y="170" type="line"/>
      <point x="419" y="163"/>
      <point x="471" y="160"/>
      <point x="508" y="160" type="curve" smooth="yes"/>
      <point x="759" y="160"/>
      <point x="869" y="250"/>
    </contour>
  </outline>
</glyph>
<glyph name="C" format="1">
  <advance width="498"/>
  <unicode hex="0043"/>
  <outline>
    <contour>
      <point x="284" y="-10" type="curve" smooth="yes"/>
      <point x="119" y="-10"/>
      <point x="33" y="125"/>
      <point x="33" y="296" type="curve" smooth="yes"/>
      <point x="33" y="385"/>
      <point x="56" y="459"/>
      <point x="104" y="518" type="curve" smooth="yes"/>
      <point x="152" y="577"/>
      <point x="213" y="606"/>
      <point x="289" y="606" type="curve" smooth="yes"/>
      <point x="354" y="606"/>
      <point x="404" y="596"/>
      <point x="441" y="574" type="curve"/>
      <point x="414" y="504" type="line"/>
      <point x="388" y="523"/>
      <point x="347" y="533"/>
      <point x="291" y="533" type="curve" smooth="yes"/>
      <point x="174" y="533"/>
      <point x="118" y="415"/>
      <point x="118" y="291" type="curve" smooth="yes"/>
      <point x="118" y="171"/>
      <point x="178" y="63"/>
      <point x="292" y="63" type="curve" smooth="yes"/>
      <point x="348" y="63"/>
      <point x="391" y="83"/>
      <point x="421" y="122" type="curve"/>
      <point x="466" y="60" type="line"/>
      <point x="419" y="13"/>
      <point x="358" y="-10"/>
    </contour>
  </outline>
</glyph>
<glyph name="D" format="1">
  <advance width="1256"/>
  <unicode hex="0044"/>
  <outline>
    <contour>
      <point x="445" y="0" type="curve" smooth="yes"/>
      <point x="150" y="0" type="line"/>
      <point x="150" y="1465" type="line"/>
      <point x="338" y="1472"/>
      <point x="458" y="1475"/>
      <point x="511" y="1475" type="curve" smooth="yes"/>
      <point x="716" y="1475"/>
      <point x="878" y="1413"/>
      <point x="997" y="1288" type="curve" smooth="yes"/>
      <point x="1116" y="1164"/>
      <point x="1176" y="999"/>
      <point x="1176" y="792" type="curve" smooth="yes"/>
      <point x="1176" y="264"/>
      <point x="932" y="0"/>
    </contour>
    <contour>
      <point x="350" y="1285" type="curve"/>
      <point x="350" y="190" type="line"/>
      <point x="395" y="183"/>
      <point x="450" y="180"/>
      <point x="516" y="180" type="curve" smooth="yes"/>
      <point x="656" y="180"/>
      <point x="766" y="232"/>
      <point x="846" y="337" type="curve" smooth="yes"/>
      <point x="926" y="442"/>
      <point x="966" y="588"/>
      <point x="966" y="775" type="curve" smooth="yes"/>
      <point x="966" y="1122"/>
      <point x="810" y="1295"/>
      <point x="499" y="1295" type="curve" smooth="yes"/>
      <point x="480" y="1295"/>
      <point x="431" y="1292"/>
    </contour>
  </outline>
</glyph>
<glyph name="E" format="1">
  <advance width="446"/>
  <unicode hex="0045"/>
  <outline>
    <contour>
      <point x="417" y="523" type="line"/>
      <point x="142" y="523" type="line"/>
      <point x="142" y="357" type="line"/>
      <point x="339" y="357" type="line"/>
      <point x="339" y="288" type="line"/>
      <point x="142" y="288" type="line"/>
      <point x="142" y="73" type="line"/>
      <point x="413" y="73" type="line"/>
      <point x="413" y="0" type="line"/>
      <point x="61" y="0" type="line"/>
      <point x="61" y="596" type="line"/>
      <point x="417" y="596" type="line"/>
    </contour>
  </outline>
</glyph>
<glyph name="F" format="1">
  <advance width="1075"/>
  <unicode hex="0046"/>
  <outline>
    <contour>
      <point x="1055" y="1285" type="line"/>
      <point x="350" y="1285" type="line"/>
      <point x="350" y="878" type="line"/>
      <point x="865" y="878" type="line"/>
      <point x="865" y="708" type="line"/>
      <point x="350" y="708" type="line"/>
      <point x="350" y="0" type="line"/>
      <point x="150" y="0" type="line"/>
      <point x="150" y="1465" type="line"/>
      <point x="1055" y="1465" type="line"/>
    </contour>
  </outline>
</glyph>
<glyph name="G" format="1">
  <advance width="563"/>
  <unicode hex="0047"/>
  <outline>
    <contour>
      <point x="299" y="-10" type="curve" smooth="yes"/>
      <point x="127" y="-10"/>
      <point x="33" y="120"/>
      <point x="33" y="296" type="curve" smooth="yes"/>
      <point x="33" y="388"/>
      <point x="59" y="463"/>
      <point x="111" y="520" type="curve" smooth="yes"/>
      <point x="163" y="577"/>
      <point x="233" y="606"/>
      <point x="322" y="606" type="curve" smooth="yes"/>
      <point x="384" y="606"/>
      <point x="435" y="590"/>
      <point x="474" y="555" type="curve"/>
      <point x="440" y="487" type="line"/>
      <point x="399" y="518"/>
      <point x="359" y="533"/>
      <point x="320" y="533" type="curve" smooth="yes"/>
      <point x="189" y="533"/>
      <point x="118" y="428"/>
      <point x="118" y="293" type="curve" smooth="yes"/>
      <point x="118" y="162"/>
      <point x="188" y="63"/>
      <point x="316" y="63" type="curve" smooth="yes"/>
      <point x="360" y="63"/>
      <point x="394" y="76"/>
      <point x="421" y="102" type="curve"/>
      <point x="421" y="242" type="line"/>
      <point x="338" y="242" type="line"/>
      <point x="338" y="311" type="line"/>
      <point x="502" y="311" type="line"/>
      <point x="502" y="51" type="line"/>
      <point x="461" y="16"/>
      <point x="374" y="-10"/>
    </contour>
  </outline>
</glyph>
<glyph name="H" format="1">
  <advance width="545"/>
  <unicode hex="0048"/>
  <outline>
    <contour>
      <point x="484" y="0" type="line"/>
      <point x="403" y="0" type="line"/>
      <point x="403" y="288" type="line"/>
      <point x="142" y="288" type="line"/>
      <point x="142" y="0" type="line"/>
      <point x="61" y="0" type="line"/>
      <point x="61" y="596" type="line"/>
      <point x="142" y="596" type="line"/>
      <point x="142" y="357" type="line"/>
      <point x="403" y="357" type="line"/>
      <point x="403" y="596" type="line"/>
      <point x="484" y="596" type="line"/>
    </contour>
  </outline>
</glyph>
<glyph name="I" format="1">
  <advance width="570"/>
  <unicode hex="0049"/>
  <outline>
    <contour>
      <point x="385" y="0" type="line"/>
      <point x="185" y="0" type="line"/>
      <point x="185" y="1465" type="line"/>
      <point x="385" y="1465" type="line"/>
    </contour>
  </outline>
</glyph>
<glyph name="J" format="1">
  <advance width="397"/>
  <unicode hex="004A"/>
  <outline>
    <contour>
      <point x="20" y="119" type="curve"/>
      <point x="91" y="119" type="line"/>
      <point x="98" y="83"/>
      <point x="119" y="65"/>
      <point x="156" y="65" type="curve" smooth="yes"/>
      <point x="192" y="65"/>
      <point x="217" y="73"/>
      <point x="232" y="88" type="curve" smooth="yes"/>
      <point x="247" y="104"/>
      <point x="255" y="147"/>
      <point x="255" y="219" type="curve" smooth="yes"/>
      <point x="255" y="596" type="line"/>
      <point x="336" y="596" type="line"/>
      <point x="336" y="223" type="line" smooth="yes"/>
      <point x="336" y="142"/>
      <point x="323" y="82"/>
      <point x="297" y="46" type="curve" smooth="yes"/>
      <point x="271" y="10"/>
      <point x="223" y="-8"/>
      <point x="156" y="-8" type="curve" smooth="yes"/>
      <point x="77" y="-8"/>
      <point x="25" y="43"/>
    </contour>
  </outline>
</glyph>
<glyph name="K" format="1">
  <advance width="1179"/>
  <unicode hex="004B"/>
  <outline>
    <contour>
      <point x="1179" y="0" type="line"/>
      <point x="958" y="0" type="line"/>
      <point x="545" y="674" type="line"/>
      <point x="350" y="397" type="line"/>
      <point x="350" y="0" type="line"/>
      <point x="150" y="0" type="line"/>
      <point x="150" y="1465" type="line"/>
      <point x="350" y="1465" type="line"/>
      <point x="350" y="668" type="line"/>
      <point x="894" y="1465" type="line"/>
      <point x="1117" y="1465" type="line"/>
      <point x="679" y="830" type="line"/>
    </contour>
  </outline>
</glyph>
<glyph name="L" format="1">
  <advance width="421"/>
  <unicode hex="004C"/>
  <outline>
    <contour>
      <point x="412" y="0" type="line"/>
      <point x="61" y="0" type="line"/>
      <point x="61" y="596" type="line"/>
      <point x="142" y="596" type="line"/>
      <point x="142" y="73" type="line"/>
      <point x="412" y="73" type="line"/>
    </contour>
  </outline>
</glyph>
<glyph name="M" format="1">
  <advance width="1453"/>
  <unicode hex="004D"/>
  <outline>
    <contour>
      <point x="1443" y="0" type="line"/>
      <point x="1253" y="0" type="line"/>
      <point x="1079" y="941" type="line"/>
      <point x="759" y="-20" type="line"/>
      <point x="709" y="-20" type="line"/>
      <point x="380" y="941" type="line"/>
      <point x="210" y="0" type="line"/>
      <point x="20" y="0" type="line"/>
      <point x="294" y="1465" type="line"/>
      <point x="385" y="1465" type="line"/>
      <point x="734" y="396" type="line"/>
      <point x="1056" y="1465" type="line"/>
      <point x="1146" y="1465" type="line"/>
    </contour>
  </outline>
</glyph>
<glyph name="N" format="1">
  <advance width="1307"/>
  <unicode hex="004E"/>
  <outline>
    <contour>
      <point x="1157" y="-20" type="line"/>
      <point x="1097" y="-20" type="line"/>
      <point x="340" y="1051" type="line"/>
      <point x="340" y="0" type="line"/>
      <point x="150" y="0" type="line"/>
      <point x="150" y="1465" type="line"/>
      <point x="230" y="1465" type="line"/>
      <point x="967" y="452" type="line"/>
      <point x="967" y="1465" type="line"/>
      <point x="1157" y="1465" type="line"/>
    </contour>
  </outline>
</glyph>
<glyph name="O" format="1">
  <advance width="561"/>
  <unicode hex="004F"/>
  <outline>
    <contour>
      <point x="529" y="303" type="curve" smooth="yes"/>
      <point x="529" y="121"/>
      <point x="449" y="-10"/>
      <point x="273" y="-10" type="curve" smooth="yes"/>
      <point x="198" y="-10"/>
      <point x="139" y="19"/>
      <point x="96" y="78" type="curve" smooth="yes"/>
      <point x="54" y="137"/>
      <point x="33" y="211"/>
      <point x="33" y="303" type="curve" smooth="yes"/>
      <point x="33" y="389"/>
      <point x="54" y="462"/>
      <point x="97" y="520" type="curve" smooth="yes"/>
      <point x="141" y="578"/>
      <point x="199" y="607"/>
      <point x="273" y="607" type="curve" smooth="yes"/>
      <point x="447" y="607"/>
      <point x="529" y="483"/>
    </contour>
    <contour>
      <point x="273" y="533" type="curve" smooth="yes"/>
      <point x="159" y="533"/>
      <point x="118" y="426"/>
      <point x="118" y="303" type="curve" smooth="yes"/>
      <point x="118" y="185"/>
      <point x="163" y="63"/>
      <point x="273" y="63" type="curve" smooth="yes"/>
      <point x="397" y="63"/>
      <point x="443" y="170"/>
      <point x="443" y="303" type="curve" smooth="yes"/>
      <point x="443" y="456"/>
      <point x="387" y="533"/>
    </contour>
  </outline>
</glyph>
<glyph name="P" format="1">
  <advance width="464"/>
  <unicode hex="0050"/>
  <outline>
    <contour>
      <point x="142" y="229" type="curve"/>
      <point x="142" y="0" type="line"/>
      <point x="61" y="0" type="line"/>
      <point x="61" y="596" type="line"/>
      <point x="122" y="599"/>
      <point x="159" y="600"/>
      <point x="172" y="600" type="curve" smooth="yes"/>
      <point x="345" y="600"/>
      <point x="432" y="542"/>
      <point x="432" y="426" type="curve" smooth="yes"/>
      <point x="432" y="292"/>
      <point x="356" y="225"/>
      <point x="203" y="225" type="curve" smooth="yes"/>
      <point x="194" y="225"/>
      <point x="173" y="226"/>
    </contour>
    <contour>
      <point x="142" y="523" type="curve"/>
      <point x="142" y="303" type="line"/>
      <point x="177" y="300"/>
      <point x="195" y="299"/>
      <point x="197" y="299" type="curve" smooth="yes"/>
      <point x="298" y="299"/>
      <point x="348" y="339"/>
      <point x="348" y="418" type="curve" smooth="yes"/>
      <point x="348" y="491"/>
      <point x="295" y="527"/>
      <point x="187" y="527" type="curve" smooth="yes"/>
      <point x="176" y="527"/>
      <point x="161" y="526"/>
    </contour>
  </outline>
</glyph>
<glyph name="Q" format="1">
  <advance width="1384"/>
  <unicode hex="0051"/>
  <outline>
    <contour>
      <point x="1364" y="-108" type="curve" smooth="yes"/>
      <point x="1520" y="-108" type="line"/>
      <point x="1490" y="-303" type="line"/>
      <point x="1141" y="-303"/>
      <point x="912" y="-206"/>
      <point x="803" y="-12" type="curve"/>
      <point x="782" y="-21"/>
      <point x="738" y="-25"/>
      <point x="670" y="-25" type="curve" smooth="yes"/>
      <point x="485" y="-25"/>
      <point x="341" y="47"/>
      <point x="236" y="191" type="curve" smooth="yes"/>
      <point x="132" y="335"/>
      <point x="80" y="520"/>
      <point x="80" y="745" type="curve" smooth="yes"/>
      <point x="80" y="956"/>
      <point x="133" y="1133"/>
      <point x="239" y="1276" type="curve" smooth="yes"/>
      <point x="345" y="1419"/>
      <point x="489" y="1491"/>
      <point x="670" y="1491" type="curve" smooth="yes"/>
      <point x="873" y="1491"/>
      <point x="1029" y="1425"/>
      <point x="1137" y="1294" type="curve" smooth="yes"/>
      <point x="1246" y="1163"/>
      <point x="1300" y="980"/>
      <point x="1300" y="745" type="curve" smooth="yes"/>
      <point x="1300" y="408"/>
      <point x="1199" y="177"/>
      <point x="998" y="52" type="curve"/>
      <point x="1071" y="-55"/>
      <point x="1193" y="-108"/>
    </contour>
    <contour>
      <point x="670" y="1311" type="curve" smooth="yes"/>
      <point x="546" y="1311"/>
      <point x="452" y="1260"/>
      <point x="387" y="1159" type="curve" smooth="yes"/>
      <point x="322" y="1058"/>
      <point x="290" y="920"/>
      <point x="290" y="745" type="curve" smooth="yes"/>
      <point x="290" y="577"/>
      <point x="323" y="437"/>
      <point x="389" y="324" type="curve" smooth="yes"/>
      <point x="456" y="211"/>
      <point x="549" y="155"/>
      <point x="670" y="155" type="curve" smooth="yes"/>
      <point x="807" y="155"/>
      <point x="912" y="207"/>
      <point x="983" y="311" type="curve" smooth="yes"/>
      <point x="1054" y="416"/>
      <point x="1090" y="560"/>
      <point x="1090" y="745" type="curve" smooth="yes"/>
      <point x="1090" y="1122"/>
      <point x="950" y="1311"/>
    </contour>
  </outline>
</glyph>
<glyph name="R" format="1">
  <advance width="484"/>
  <unicode hex="0052"/>
  <outline>
    <contour>
      <point x="429" y="431" type="curve" smooth="yes"/>
      <point x="429" y="356"/>
      <point x="374" y="288"/>
      <point x="312" y="274" type="curve"/>
      <point x="485" y="0" type="line"/>
      <point x="392" y="0" type="line"/>
      <point x="233" y="256" type="line"/>
      <point x="215" y="256"/>
      <point x="185" y="257"/>
      <point x="146" y="260" type="curve"/>
      <point x="146" y="0" type="line"/>
      <point x="65" y="0" type="line"/>
      <point x="65" y="596" type="line"/>
      <point x="77" y="596"/>
      <point x="201" y="602"/>
      <point x="214" y="602" type="curve" smooth="yes"/>
      <point x="357" y="602"/>
      <point x="429" y="545"/>
    </contour>
    <contour>
      <point x="203" y="325" type="curve" smooth="yes"/>
      <point x="294" y="325"/>
      <point x="343" y="346"/>
      <point x="343" y="433" type="curve" smooth="yes"/>
      <point x="343" y="500"/>
      <point x="297" y="527"/>
      <point x="194" y="527" type="curve" smooth="yes"/>
      <point x="186" y="527"/>
      <point x="170" y="526"/>
      <point x="146" y="523" type="curve"/>
      <point x="146" y="329" type="line"/>
      <point x="166" y="326"/>
      <point x="185" y="325"/>
    </contour>
  </outline>
</glyph>
<glyph name="S" format="1">
  <advance width="985"/>
  <unicode hex="0053"/>
  <outline>
    <contour>
      <point x="499" y="1320" type="curve" smooth="yes"/>
      <point x="369" y="1320"/>
      <point x="280" y="1240"/>
      <point x="280" y="1113" type="curve" smooth="yes"/>
      <point x="280" y="1033"/>
      <point x="314" y="972"/>
      <point x="359" y="934" type="curve" smooth="yes"/>
      <point x="384" y="913"/>
      <point x="436" y="884"/>
      <point x="513" y="847" type="curve" smooth="yes"/>
      <point x="633" y="790" type="line" smooth="yes"/>
      <point x="733" y="743"/>
      <point x="803" y="686"/>
      <point x="843" y="620" type="curve" smooth="yes"/>
      <point x="884" y="555"/>
      <point x="904" y="471"/>
      <point x="904" y="370" type="curve" smooth="yes"/>
      <point x="904" y="260"/>
      <point x="860" y="167"/>
      <point x="771" y="90" type="curve" smooth="yes"/>
      <point x="683" y="13"/>
      <point x="565" y="-25"/>
      <point x="417" y="-25" type="curve" smooth="yes"/>
      <point x="287" y="-25"/>
      <point x="176" y="6"/>
      <point x="84" y="67" type="curve"/>
      <point x="157" y="251" type="line"/>
      <point x="219" y="206"/>
      <point x="345" y="155"/>
      <point x="446" y="155" type="curve" smooth="yes"/>
      <point x="591" y="155"/>
      <point x="705" y="242"/>
      <point x="705" y="382" type="curve" smooth="yes"/>
      <point x="705" y="431"/>
      <point x="692" y="477"/>
      <point x="665" y="519" type="curve" smooth="yes"/>
      <point x="639" y="562"/>
      <point x="573" y="608"/>
      <point x="467" y="658" type="curve" smooth="yes"/>
      <point x="349" y="713" type="line" smooth="yes"/>
      <point x="181" y="792"/>
      <point x="80" y="891"/>
      <point x="80" y="1110" type="curve" smooth="yes"/>
      <point x="80" y="1336"/>
      <point x="263" y="1490"/>
      <point x="494" y="1490" type="curve" smooth="yes"/>
      <point x="656" y="1490"/>
      <point x="769" y="1464"/>
      <point x="832" y="1411" type="curve"/>
      <point x="773" y="1237" type="line"/>
      <point x="722" y="1273"/>
      <point x="589" y="1320"/>
    </contour>
  </outline>
</glyph>
<glyph name="T" format="1">
  <advance width="1189"/>
  <unicode hex="0054"/>
  <outline>
    <contour>
      <point x="1171" y="1285" type="line"/>
      <point x="684" y="1285" type="line"/>
      <point x="684" y="0" type="line"/>
      <point x="484" y="0" type="line"/>
      <point x="484" y="1285" type="line"/>
      <point x="18" y="1285" type="line"/>
      <point x="18" y="1465" type="line"/>
      <point x="1171" y="1465" type="line"/>
    </contour>
  </outline>
</glyph>
<glyph name="U" format="1">
  <advance width="1328"/>
  <unicode hex="0055"/>
  <outline>
    <contour>
      <point x="150" y="447" type="curve" smooth="yes"/>
      <point x="150" y="1465" type="line"/>
      <point x="350" y="1465" type="line"/>
      <point x="350" y="462" type="line" smooth="yes"/>
      <point x="350" y="373"/>
      <point x="378" y="299"/>
      <point x="435" y="241" type="curve" smooth="yes"/>
      <point x="492" y="184"/>
      <point x="567" y="155"/>
      <point x="660" y="155" type="curve" smooth="yes"/>
      <point x="759" y="155"/>
      <point x="836" y="183"/>
      <point x="893" y="239" type="curve" smooth="yes"/>
      <point x="950" y="295"/>
      <point x="978" y="371"/>
      <point x="978" y="467" type="curve" smooth="yes"/>
      <point x="978" y="1465" type="line"/>
      <point x="1178" y="1465" type="line"/>
      <point x="1178" y="446" type="line" smooth="yes"/>
      <point x="1178" y="298"/>
      <point x="1132" y="182"/>
      <point x="1039" y="99" type="curve" smooth="yes"/>
      <point x="947" y="16"/>
      <point x="821" y="-25"/>
      <point x="662" y="-25" type="curve" smooth="yes"/>
      <point x="334" y="-25"/>
      <point x="150" y="143"/>
    </contour>
  </outline>
</glyph>
<glyph name="V" format="1">
  <advance width="489"/>
  <unicode hex="0056"/>
  <outline>
    <contour>
      <point x="484" y="596" type="line"/>
      <point x="269" y="-8" type="line"/>
      <point x="227" y="-8" type="line"/>
      <point x="5" y="596" type="line"/>
      <point x="96" y="596" type="line"/>
      <point x="249" y="157" type="line"/>
      <point x="397" y="596" type="line"/>
    </contour>
  </outline>
</glyph>
<glyph name="W" format="1">
  <advance width="1745"/>
  <unicode hex="0057"/>
  <outline>
    <contour>
      <point x="1732" y="1465" type="line"/>
      <point x="1276" y="-20" type="line"/>
      <point x="1213" y="-20" type="line"/>
      <point x="864" y="990" type="line"/>
      <point x="538" y="-20" type="line"/>
      <point x="475" y="-20" type="line"/>
      <point x="13" y="1465" type="line"/>
      <point x="221" y="1465" type="line"/>
      <point x="515" y="442" type="line"/>
      <point x="837" y="1465" type="line"/>
      <point x="907" y="1465" type="line"/>
      <point x="1225" y="444" type="line"/>
      <point x="1524" y="1465" type="line"/>
    </contour>
  </outline>
</glyph>
<glyph name="X" format="1">
  <advance width="463"/>
  <unicode hex="0058"/>
  <outline>
    <contour>
      <point x="459" y="0" type="line"/>
      <point x="372" y="0" type="line"/>
      <point x="224" y="239" type="line"/>
      <point x="87" y="0" type="line"/>
      <point x="5" y="0" type="line"/>
      <point x="181" y="309" type="line"/>
      <point x="20" y="596" type="line"/>
      <point x="100" y="596" type="line"/>
      <point x="227" y="371" type="line"/>
      <point x="367" y="596" type="line"/>
      <point x="449" y="596" type="line"/>
      <point x="264" y="308" type="line"/>
    </contour>
  </outline>
</glyph>
<glyph name="Y" format="1">
  <advance width="475"/>
  <unicode hex="0059"/>
  <outline>
    <contour>
      <point x="470" y="596" type="line"/>
      <point x="279" y="267" type="line"/>
      <point x="279" y="0" type="line"/>
      <point x="197" y="0" type="line"/>
      <point x="197" y="267" type="line"/>
      <point x="5" y="596" type="line"/>
      <point x="89" y="596" type="line"/>
      <point x="238" y="336" type="line"/>
      <point x="386" y="596" type="line"/>
    </contour>
  </outline>
</glyph>
<glyph name="Z" format="1">
  <advance width="458"/>
  <unicode hex="005A"/>
  <outline>
    <contour>
      <point x="418" y="0" type="line"/>
      <point x="41" y="0" type="line"/>
      <point x="41" y="20" type="line"/>
      <point x="297" y="523" type="line"/>
      <point x="45" y="523" type="line"/>
      <point x="45" y="596" type="line"/>
      <point x="409" y="596" type="line"/>
      <point x="409" y="576" type="line"/>
      <point x="152" y="73" type="line"/>
      <point x="418" y="73" type="line"/>
    </contour>
  </outline>
</glyph>
<glyph name="bracketleft" format="1">
  <advance width="366"/>
  <unicode hex="005B"/>
  <outline>
    <contour>
      <point x="417" y="-150" type="line"/>
      <point x="271" y="-150" type="line" smooth="yes"/>
      <point x="220" y="-150"/>
      <point x="171" y="-130"/>
      <point x="135" y="-94" type="curve" smooth="yes"/>
      <point x="99" y="-58"/>
      <point x="79" y="-10"/>
      <point x="79" y="41" type="curve" smooth="yes"/>
      <point x="79" y="625" type="line" smooth="yes"/>
      <point x="79" y="676"/>
      <point x="99" y="724"/>
      <point x="135" y="760" type="curve" smooth="yes"/>
      <point x="171" y="796"/>
      <point x="220" y="817"/>
      <point x="271" y="817" type="curve" smooth="yes"/>
      <point x="417" y="817" type="line"/>
      <point x="417" y="766" type="line"/>
      <point x="271" y="766" type="line" smooth="yes"/>
      <point x="193" y="766"/>
      <point x="129" y="703"/>
      <point x="129" y="625" type="curve" smooth="yes"/>
      <point x="129" y="41" type="line" smooth="yes"/>
      <point x="129" y="-37"/>
      <point x="193" y="-100"/>
      <point x="271" y="-100" type="curve" smooth="yes"/>
      <point x="417" y="-100" type="line"/>
    </contour>
  </outline>
</glyph>
<glyph name="backslash" format="1">
  <advance width="296"/>
  <unicode hex="005C"/>
  <outline>
    <contour>
      <point x="266" y="0" type="line"/>
      <point x="208" y="0" type="line"/>
      <point x="-1" y="598" type="line"/>
      <point x="57" y="598" type="line"/>
    </contour>
  </outline>
</glyph>
<glyph name="bracketright" format="1">
  <advance width="320"/>
  <unicode hex="005D"/>
  <outline>
    <contour>
      <point x="0" y="-150" type="line"/>
      <point x="0" y="-100" type="line"/>
      <point x="118" y="-100" type="line" smooth="yes"/>
      <point x="196" y="-100"/>
      <point x="259" y="-37"/>
      <point x="259" y="41" type="curve" smooth="yes"/>
      <point x="259" y="625" type="line" smooth="yes"/>
      <point x="259" y="703"/>
      <point x="196" y="766"/>
      <point x="118" y="766" type="curve" smooth="yes"/>
      <point x="0" y="766" type="line"/>
      <point x="0" y="817" type="line"/>
      <point x="118" y="817" type="line" smooth="yes"/>
      <point x="169" y="817"/>
      <point x="217" y="796"/>
      <point x="253" y="760" type="curve" smooth="yes"/>
      <point x="289" y="724"/>
      <point x="309" y="676"/>
      <point x="309" y="625" type="curve" smooth="yes"/>
      <point x="309" y="41" type="line" smooth="yes"/>
      <point x="309" y="-10"/>
      <point x="289" y="-58"/>
      <point x="253" y="-94" type="curve" smooth="yes"/>
      <point x="217" y="-130"/>
      <point x="169" y="-150"/>
      <point x="118" y="-150" type="curve" smooth="yes"/>
    </contour>
  </outline>
</glyph>
<glyph name="asciicircum" format="1">
  <advance width="436"/>
  <unicode hex="005E"/>
  <outline>
    <contour>
      <point x="362" y="369" type="line"/>
      <point x="310" y="369" type="line"/>
      <point x="211" y="551" type="line"/>
      <point x="110" y="367" type="line"/>
      <point x="61" y="367" type="line"/>
      <point x="190" y="598" type="line"/>
      <point x="234" y="598" type="line"/>
    </contour>
  </outline>
</glyph>
<glyph name="underscore" format="1">
  <advance width="4"/>
  <unicode hex="005F"/>
  <outline>
    <contour>
      <point x="854" y="766" type="line"/>
      <point x="0" y="766" type="line"/>
      <point x="0" y="817" type="line"/>
      <point x="854" y="817" type="line"/>
    </contour>
    <contour>
      <point x="854" y="-150" type="line"/>
      <point x="0" y="-150" type="line"/>
      <point x="0" y="-100" type="line"/>
      <point x="854" y="-100" type="line"/>
    </contour>
  </outline>
</glyph>
<glyph name="grave" format="1">
  <advance width="1074"/>
  <unicode hex="0060"/>
  <outline>
    <contour>
      <point x="699" y="1285" type="line"/>
      <point x="559" y="1285" type="line"/>
      <point x="333" y="1618" type="line"/>
      <point x="530" y="1618" type="line"/>
    </contour>
  </outline>
</glyph>
<glyph name="a" format="1">
  <advance width="437"/>
  <unicode hex="0061"/>
  <outline>
    <contour>
      <point x="405" y="-8" type="line"/>
      <point x="345" y="-8"/>
      <point x="316" y="6"/>
      <point x="301" y="50" type="curve"/>
      <point x="270" y="11"/>
      <point x="223" y="-8"/>
      <point x="159" y="-8" type="curve" smooth="yes"/>
      <point x="89" y="-8"/>
      <point x="33" y="50"/>
      <point x="33" y="122" type="curve" smooth="yes"/>
      <point x="33" y="166"/>
      <point x="51" y="203"/>
      <point x="90" y="234" type="curve" smooth="yes"/>
      <point x="129" y="265"/>
      <point x="178" y="279"/>
      <point x="238" y="279" type="curve" smooth="yes"/>
      <point x="254" y="279"/>
      <point x="273" y="276"/>
      <point x="294" y="269" type="curve"/>
      <point x="294" y="339"/>
      <point x="262" y="375"/>
      <point x="199" y="375" type="curve" smooth="yes"/>
      <point x="151" y="375"/>
      <point x="114" y="362"/>
      <point x="88" y="336" type="curve"/>
      <point x="55" y="400" type="line"/>
      <point x="82" y="422"/>
      <point x="142" y="444"/>
      <point x="190" y="444" type="curve" smooth="yes"/>
      <point x="316" y="444"/>
      <point x="371" y="390"/>
      <point x="371" y="264" type="curve" smooth="yes"/>
      <point x="371" y="107" type="line" smooth="yes"/>
      <point x="371" y="69"/>
      <point x="382" y="44"/>
      <point x="405" y="31" type="curve"/>
    </contour>
    <contour>
      <point x="242" y="222" type="curve" smooth="yes"/>
      <point x="174" y="222"/>
      <point x="110" y="184"/>
      <point x="110" y="121" type="curve" smooth="yes"/>
      <point x="110" y="76"/>
      <point x="137" y="53"/>
      <point x="190" y="53" type="curve" smooth="yes"/>
      <point x="229" y="53"/>
      <point x="264" y="72"/>
      <point x="294" y="109" type="curve"/>
      <point x="294" y="214" type="line"/>
      <point x="270" y="219"/>
      <point x="252" y="222"/>
    </contour>
  </outline>
</glyph>
<glyph name="b" format="1">
  <advance width="1141"/>
  <unicode hex="0062"/>
  <outline>
    <contour>
      <point x="558" y="-20" type="curve" smooth="yes"/>
      <point x="457" y="-20"/>
      <point x="346" y="25"/>
      <point x="297" y="77" type="curve"/>
      <point x="230" y="-20" type="line"/>
      <point x="135" y="-20" type="line"/>
      <point x="135" y="1510" type="line"/>
      <point x="325" y="1510" type="line"/>
      <point x="325" y="992" type="line"/>
      <point x="361" y="1043"/>
      <point x="484" y="1091"/>
      <point x="573" y="1091" type="curve" smooth="yes"/>
      <point x="871" y="1091"/>
      <point x="1066" y="856"/>
      <point x="1066" y="555" type="curve" smooth="yes"/>
      <point x="1066" y="217"/>
      <point x="886" y="-20"/>
    </contour>
    <contour>
      <point x="504" y="931" type="curve" smooth="yes"/>
      <point x="457" y="931"/>
      <point x="346" y="873"/>
      <point x="325" y="847" type="curve"/>
      <point x="325" y="229" type="line" smooth="yes"/>
      <point x="325" y="218"/>
      <point x="349" y="201"/>
      <point x="396" y="176" type="curve" smooth="yes"/>
      <point x="443" y="152"/>
      <point x="479" y="140"/>
      <point x="504" y="140" type="curve" smooth="yes"/>
      <point x="775" y="140"/>
      <point x="866" y="265"/>
      <point x="866" y="545" type="curve" smooth="yes"/>
      <point x="866" y="778"/>
      <point x="733" y="931"/>
    </contour>
  </outline>
</glyph>
<glyph name="c" format="1">
  <advance width="1014"/>
  <unicode hex="0063"/>
  <outline>
    <contour>
      <point x="65" y="525" type="curve" smooth="yes"/>
      <point x="65" y="867"/>
      <point x="278" y="1091"/>
      <point x="620" y="1091" type="curve" smooth="yes"/>
      <point x="726" y="1091"/>
      <point x="885" y="1031"/>
      <point x="943" y="984" type="curve"/>
      <point x="849" y="850" type="line"/>
      <point x="809" y="890"/>
      <point x="686" y="931"/>
      <point x="602" y="931" type="curve" smooth="yes"/>
      <point x="381" y="931"/>
      <point x="265" y="757"/>
      <point x="265" y="525" type="curve" smooth="yes"/>
      <point x="265" y="274"/>
      <point x="396" y="140"/>
      <point x="616" y="140" type="curve" smooth="yes"/>
      <point x="701" y="140"/>
      <point x="787" y="173"/>
      <point x="874" y="239" type="curve"/>
      <point x="949" y="79" type="line"/>
      <point x="847" y="13"/>
      <point x="721" y="-20"/>
      <point x="570" y="-20" type="curve" smooth="yes"/>
      <point x="424" y="-20"/>
      <point x="303" y="29"/>
      <point x="208" y="127" type="curve" smooth="yes"/>
      <point x="113" y="225"/>
      <point x="65" y="358"/>
    </contour>
  </outline>
</glyph>
<glyph name="d" format="1">
  <advance width="1141"/>
  <unicode hex="0064"/>
  <outline>
    <contour>
      <point x="1004" y="1" type="line"/>
      <point x="814" y="1" type="line"/>
      <point x="814" y="80" type="line"/>
      <point x="748" y="14"/>
      <point x="652" y="-19"/>
      <point x="526" y="-19" type="curve" smooth="yes"/>
      <point x="392" y="-19"/>
      <point x="283" y="29"/>
      <point x="200" y="125" type="curve" smooth="yes"/>
      <point x="117" y="221"/>
      <point x="75" y="349"/>
      <point x="75" y="509" type="curve" smooth="yes"/>
      <point x="75" y="670"/>
      <point x="123" y="807"/>
      <point x="219" y="920" type="curve" smooth="yes"/>
      <point x="315" y="1034"/>
      <point x="429" y="1091"/>
      <point x="562" y="1091" type="curve" smooth="yes"/>
      <point x="673" y="1091"/>
      <point x="757" y="1065"/>
      <point x="814" y="1013" type="curve"/>
      <point x="814" y="1510" type="line"/>
      <point x="1004" y="1510" type="line"/>
    </contour>
    <contour>
      <point x="814" y="229" type="curve"/>
      <point x="814" y="823" type="line"/>
      <point x="766" y="895"/>
      <point x="700" y="931"/>
      <point x="617" y="931" type="curve" smooth="yes"/>
      <point x="515" y="931"/>
      <point x="432" y="893"/>
      <point x="369" y="817" type="curve" smooth="yes"/>
      <point x="306" y="741"/>
      <point x="275" y="644"/>
      <point x="275" y="527" type="curve" smooth="yes"/>
      <point x="275" y="269"/>
      <point x="392" y="140"/>
      <point x="627" y="140" type="curve" smooth="yes"/>
      <point x="657" y="140"/>
      <point x="693" y="149"/>
      <point x="735" y="168" type="curve" smooth="yes"/>
      <point x="777" y="187"/>
      <point x="803" y="208"/>
    </contour>
  </outline>
</glyph>
<glyph name="e" format="1">
  <advance width="1117"/>
  <unicode hex="0065"/>
  <outline>
    <contour>
      <point x="1037" y="517" type="curve"/>
      <point x="265" y="517" type="line"/>
      <point x="265" y="392"/>
      <point x="299" y="295"/>
      <point x="368" y="228" type="curve" smooth="yes"/>
      <point x="429" y="169"/>
      <point x="507" y="140"/>
      <point x="602" y="140" type="curve" smooth="yes"/>
      <point x="711" y="140"/>
      <point x="801" y="172"/>
      <point x="874" y="235" type="curve"/>
      <point x="954" y="98" type="line"/>
      <point x="925" y="69"/>
      <point x="880" y="43"/>
      <point x="819" y="22" type="curve" smooth="yes"/>
      <point x="743" y="-6"/>
      <point x="658" y="-20"/>
      <point x="565" y="-20" type="curve" smooth="yes"/>
      <point x="430" y="-20"/>
      <point x="316" y="26"/>
      <point x="222" y="117" type="curve" smooth="yes"/>
      <point x="117" y="218"/>
      <point x="65" y="353"/>
      <point x="65" y="523" type="curve" smooth="yes"/>
      <point x="65" y="700"/>
      <point x="119" y="841"/>
      <point x="226" y="948" type="curve" smooth="yes"/>
      <point x="322" y="1043"/>
      <point x="436" y="1091"/>
      <point x="567" y="1091" type="curve" smooth="yes"/>
      <point x="720" y="1091"/>
      <point x="839" y="1048"/>
      <point x="926" y="962" type="curve" smooth="yes"/>
      <point x="1010" y="879"/>
      <point x="1052" y="770"/>
      <point x="1052" y="633" type="curve" smooth="yes"/>
      <point x="1052" y="591"/>
      <point x="1047" y="552"/>
    </contour>
    <contour>
      <point x="576" y="931" type="curve" smooth="yes"/>
      <point x="491" y="931"/>
      <point x="420" y="904"/>
      <point x="363" y="849" type="curve" smooth="yes"/>
      <point x="308" y="797"/>
      <point x="277" y="732"/>
      <point x="270" y="655" type="curve"/>
      <point x="863" y="655" type="line"/>
      <point x="863" y="732"/>
      <point x="839" y="796"/>
      <point x="791" y="847" type="curve" smooth="yes"/>
      <point x="738" y="903"/>
      <point x="667" y="931"/>
    </contour>
  </outline>
</glyph>
<glyph name="f" format="1">
  <advance width="307"/>
  <unicode hex="0066"/>
  <outline>
    <contour>
      <point x="90" y="436" type="line"/>
      <point x="90" y="538"/>
      <point x="143" y="614"/>
      <point x="240" y="614" type="curve" smooth="yes"/>
      <point x="262" y="614"/>
      <point x="286" y="610"/>
      <point x="312" y="602" type="curve"/>
      <point x="290" y="545" type="line"/>
      <point x="274" y="550"/>
      <point x="260" y="553"/>
      <point x="247" y="553" type="curve" smooth="yes"/>
      <point x="197" y="553"/>
      <point x="165" y="510"/>
      <point x="165" y="459" type="curve" smooth="yes"/>
      <point x="165" y="452"/>
      <point x="166" y="444"/>
      <point x="167" y="436" type="curve"/>
      <point x="256" y="436" type="line"/>
      <point x="256" y="371" type="line"/>
      <point x="167" y="371" type="line"/>
      <point x="167" y="0" type="line"/>
      <point x="90" y="0" type="line"/>
      <point x="90" y="371" type="line"/>
      <point x="26" y="371" type="line"/>
      <point x="26" y="436" type="line"/>
    </contour>
  </outline>
</glyph>
<glyph name="g" format="1">
  <advance width="418"/>
  <unicode hex="0067"/>
  <outline>
    <contour>
      <point x="394" y="-37" type="curve" smooth="yes"/>
      <point x="394" y="-127"/>
      <point x="299" y="-171"/>
      <point x="203" y="-171" type="curve" smooth="yes"/>
      <point x="144" y="-171"/>
      <point x="73" y="-145"/>
      <point x="39" y="-119" type="curve"/>
      <point x="81" y="-57" type="line"/>
      <point x="126" y="-87"/>
      <point x="167" y="-103"/>
      <point x="205" y="-103" type="curve" smooth="yes"/>
      <point x="240" y="-103"/>
      <point x="268" y="-96"/>
      <point x="288" y="-84" type="curve" smooth="yes"/>
      <point x="308" y="-72"/>
      <point x="319" y="-57"/>
      <point x="319" y="-39" type="curve" smooth="yes"/>
      <point x="319" y="-4"/>
      <point x="293" y="13"/>
      <point x="242" y="13" type="curve" smooth="yes"/>
      <point x="225" y="13"/>
      <point x="160" y="0"/>
      <point x="142" y="0" type="curve" smooth="yes"/>
      <point x="80" y="0"/>
      <point x="49" y="23"/>
      <point x="49" y="70" type="curve" smooth="yes"/>
      <point x="49" y="105"/>
      <point x="92" y="127"/>
      <point x="124" y="135" type="curve"/>
      <point x="63" y="164"/>
      <point x="33" y="213"/>
      <point x="33" y="284" type="curve" smooth="yes"/>
      <point x="33" y="376"/>
      <point x="106" y="444"/>
      <point x="198" y="444" type="curve" smooth="yes"/>
      <point x="241" y="444"/>
      <point x="274" y="434"/>
      <point x="298" y="417" type="curve"/>
      <point x="337" y="464" type="line"/>
      <point x="387" y="416" type="line"/>
      <point x="341" y="381" type="line"/>
      <point x="361" y="355"/>
      <point x="371" y="321"/>
      <point x="371" y="280" type="curve" smooth="yes"/>
      <point x="371" y="189"/>
      <point x="307" y="127"/>
      <point x="222" y="118" type="curve" smooth="yes"/>
      <point x="158" y="112" type="line" smooth="yes"/>
      <point x="150" y="111"/>
      <point x="140" y="108"/>
      <point x="127" y="103" type="curve" smooth="yes"/>
      <point x="114" y="98"/>
      <point x="108" y="91"/>
      <point x="108" y="83" type="curve" smooth="yes"/>
      <point x="108" y="72"/>
      <point x="122" y="67"/>
      <point x="148" y="67" type="curve" smooth="yes"/>
      <point x="168" y="67"/>
      <point x="239" y="79"/>
      <point x="258" y="79" type="curve" smooth="yes"/>
      <point x="344" y="79"/>
      <point x="394" y="36"/>
    </contour>
    <contour>
      <point x="290" y="284" type="curve" smooth="yes"/>
      <point x="290" y="336"/>
      <point x="254" y="382"/>
      <point x="203" y="382" type="curve" smooth="yes"/>
      <point x="149" y="382"/>
      <point x="112" y="338"/>
      <point x="112" y="284" type="curve" smooth="yes"/>
      <point x="112" y="225"/>
      <point x="145" y="179"/>
      <point x="203" y="179" type="curve" smooth="yes"/>
      <point x="261" y="179"/>
      <point x="290" y="225"/>
    </contour>
  </outline>
</glyph>
<glyph name="h" format="1">
  <advance width="1119"/>
  <unicode hex="0068"/>
  <outline>
    <contour>
      <point x="985" y="0" type="line"/>
      <point x="795" y="0" type="line"/>
      <point x="795" y="673" type="line" smooth="yes"/>
      <point x="795" y="833"/>
      <point x="713" y="931"/>
      <point x="570" y="931" type="curve" smooth="yes"/>
      <point x="524" y="931"/>
      <point x="478" y="917"/>
      <point x="431" y="890" type="curve" smooth="yes"/>
      <point x="385" y="863"/>
      <point x="350" y="832"/>
      <point x="325" y="796" type="curve"/>
      <point x="325" y="0" type="line"/>
      <point x="135" y="0" type="line"/>
      <point x="135" y="1510" type="line"/>
      <point x="325" y="1510" type="line"/>
      <point x="325" y="953" type="line"/>
      <point x="350" y="992"/>
      <point x="391" y="1025"/>
      <point x="447" y="1051" type="curve" smooth="yes"/>
      <point x="504" y="1078"/>
      <point x="562" y="1091"/>
      <point x="622" y="1091" type="curve" smooth="yes"/>
      <point x="735" y="1091"/>
      <point x="824" y="1054"/>
      <point x="888" y="979" type="curve" smooth="yes"/>
      <point x="953" y="904"/>
      <point x="985" y="802"/>
      <point x="985" y="673" type="curve" smooth="yes"/>
    </contour>
  </outline>
</glyph>
<glyph name="i" format="1">
  <advance width="584"/>
  <unicode hex="0069"/>
  <outline>
    <contour>
      <point x="331" y="1476" type="curve" smooth="yes"/>
      <point x="364" y="1476"/>
      <point x="391" y="1464"/>
      <point x="414" y="1441" type="curve" smooth="yes"/>
      <point x="437" y="1418"/>
      <point x="449" y="1391"/>
      <point x="449" y="1359" type="curve" smooth="yes"/>
      <point x="449" y="1326"/>
      <point x="437" y="1298"/>
      <point x="414" y="1275" type="curve" smooth="yes"/>
      <point x="391" y="1252"/>
      <point x="364" y="1241"/>
      <point x="331" y="1241" type="curve" smooth="yes"/>
      <point x="299" y="1241"/>
      <point x="271" y="1252"/>
      <point x="248" y="1275" type="curve" smooth="yes"/>
      <point x="225" y="1298"/>
      <point x="214" y="1326"/>
      <point x="214" y="1359" type="curve" smooth="yes"/>
      <point x="214" y="1424"/>
      <point x="266" y="1476"/>
    </contour>
    <contour>
      <point x="417" y="0" type="line"/>
      <point x="227" y="0" type="line"/>
      <point x="227" y="911" type="line"/>
      <point x="80" y="911" type="line"/>
      <point x="80" y="1071" type="line"/>
      <point x="417" y="1071" type="line"/>
    </contour>
  </outline>
</glyph>
<glyph name="j" format="1">
  <advance width="751"/>
  <unicode hex="006A"/>
  <outline>
    <contour>
      <point x="546" y="1359" type="curve" smooth="yes"/>
      <point x="546" y="1294"/>
      <point x="493" y="1241"/>
      <point x="428" y="1241" type="curve" smooth="yes"/>
      <point x="363" y="1241"/>
      <point x="311" y="1294"/>
      <point x="311" y="1359" type="curve" smooth="yes"/>
      <point x="311" y="1424"/>
      <point x="363" y="1476"/>
      <point x="428" y="1476" type="curve" smooth="yes"/>
      <point x="491" y="1476"/>
      <point x="546" y="1422"/>
    </contour>
    <contour>
      <point x="18" y="-420" type="curve"/>
      <point x="18" y="-250" type="line"/>
      <point x="149" y="-250"/>
      <point x="238" y="-230"/>
      <point x="286" y="-190" type="curve" smooth="yes"/>
      <point x="335" y="-151"/>
      <point x="359" y="-86"/>
      <point x="359" y="5" type="curve" smooth="yes"/>
      <point x="359" y="911" type="line"/>
      <point x="146" y="911" type="line"/>
      <point x="146" y="1071" type="line"/>
      <point x="549" y="1071" type="line"/>
      <point x="549" y="9" type="line" smooth="yes"/>
      <point x="549" y="-286"/>
      <point x="379" y="-420"/>
    </contour>
  </outline>
</glyph>
<glyph name="k" format="1">
  <advance width="420"/>
  <unicode hex="006B"/>
  <outline>
    <contour>
      <point x="420" y="0" type="line"/>
      <point x="336" y="0" type="line"/>
      <point x="200" y="218" type="line"/>
      <point x="132" y="148" type="line"/>
      <point x="132" y="0" type="line"/>
      <point x="55" y="0" type="line"/>
      <point x="55" y="614" type="line"/>
      <point x="132" y="614" type="line"/>
      <point x="132" y="233" type="line"/>
      <point x="299" y="436" type="line"/>
      <point x="389" y="436" type="line"/>
      <point x="250" y="270" type="line"/>
    </contour>
  </outline>
</glyph>
<glyph name="l" format="1">
  <advance width="604"/>
  <unicode hex="006C"/>
  <outline>
    <contour>
      <point x="150" y="303" type="curve" smooth="yes"/>
      <point x="150" y="1510" type="line"/>
      <point x="340" y="1510" type="line"/>
      <point x="340" y="335" type="line" smooth="yes"/>
      <point x="340" y="220"/>
      <point x="412" y="150"/>
      <point x="519" y="150" type="curve"/>
      <point x="519" y="-20" type="line"/>
      <point x="273" y="-20"/>
      <point x="150" y="88"/>
    </contour>
  </outline>
</glyph>
<glyph name="m" format="1">
  <advance width="1700"/>
  <unicode hex="006D"/>
  <outline>
    <contour>
      <point x="919" y="948" type="curve"/>
      <point x="960" y="1028"/>
      <point x="1096" y="1091"/>
      <point x="1217" y="1091" type="curve" smooth="yes"/>
      <point x="1438" y="1091"/>
      <point x="1565" y="953"/>
      <point x="1565" y="716" type="curve" smooth="yes"/>
      <point x="1565" y="0" type="line"/>
      <point x="1375" y="0" type="line"/>
      <point x="1375" y="678" type="line" smooth="yes"/>
      <point x="1375" y="847"/>
      <point x="1302" y="931"/>
      <point x="1156" y="931" type="curve" smooth="yes"/>
      <point x="1062" y="931"/>
      <point x="973" y="860"/>
      <point x="945" y="792" type="curve"/>
      <point x="945" y="0" type="line"/>
      <point x="755" y="0" type="line"/>
      <point x="755" y="761" type="line" smooth="yes"/>
      <point x="755" y="866"/>
      <point x="669" y="931"/>
      <point x="538" y="931" type="curve" smooth="yes"/>
      <point x="452" y="931"/>
      <point x="355" y="849"/>
      <point x="325" y="790" type="curve"/>
      <point x="325" y="0" type="line"/>
      <point x="135" y="0" type="line"/>
      <point x="135" y="1071" type="line"/>
      <point x="259" y="1071" type="line"/>
      <point x="322" y="947" type="line"/>
      <point x="395" y="1043"/>
      <point x="487" y="1091"/>
      <point x="597" y="1091" type="curve" smooth="yes"/>
      <point x="750" y="1091"/>
      <point x="858" y="1043"/>
    </contour>
  </outline>
</glyph>
<glyph name="n" format="1">
  <advance width="455"/>
  <unicode hex="006E"/>
  <outline>
    <contour>
      <point x="232" y="379" type="curve" smooth="yes"/>
      <point x="192" y="379"/>
      <point x="149" y="350"/>
      <point x="132" y="324" type="curve"/>
      <point x="132" y="0" type="line"/>
      <point x="55" y="0" type="line"/>
      <point x="55" y="436" type="line"/>
      <point x="108" y="436" type="line"/>
      <point x="132" y="380" type="line"/>
      <point x="158" y="423"/>
      <point x="199" y="444"/>
      <point x="257" y="444" type="curve" smooth="yes"/>
      <point x="353" y="444"/>
      <point x="400" y="386"/>
      <point x="400" y="270" type="curve" smooth="yes"/>
      <point x="400" y="0" type="line"/>
      <point x="323" y="0" type="line"/>
      <point x="323" y="253" type="line" smooth="yes"/>
      <point x="323" y="334"/>
      <point x="306" y="379"/>
    </contour>
  </outline>
</glyph>
<glyph name="o" format="1">
  <advance width="447"/>
  <unicode hex="006F"/>
  <outline>
    <contour>
      <point x="224" y="-8" type="curve" smooth="yes"/>
      <point x="95" y="-8"/>
      <point x="26" y="87"/>
      <point x="26" y="219" type="curve" smooth="yes"/>
      <point x="26" y="346"/>
      <point x="100" y="444"/>
      <point x="224" y="444" type="curve" smooth="yes"/>
      <point x="354" y="444"/>
      <point x="421" y="353"/>
      <point x="421" y="219" type="curve" smooth="yes"/>
      <point x="421" y="87"/>
      <point x="352" y="-8"/>
    </contour>
    <contour>
      <point x="224" y="381" type="curve" smooth="yes"/>
      <point x="143" y="381"/>
      <point x="108" y="306"/>
      <point x="108" y="219" type="curve" smooth="yes"/>
      <point x="108" y="110"/>
      <point x="147" y="55"/>
      <point x="224" y="55" type="curve" smooth="yes"/>
      <point x="305" y="55"/>
      <point x="339" y="131"/>
      <point x="339" y="219" type="curve" smooth="yes"/>
      <point x="339" y="327"/>
      <point x="301" y="381"/>
    </contour>
  </outline>
</glyph>
<glyph name="p" format="1">
  <advance width="1141"/>
  <unicode hex="0070"/>
  <outline>
    <contour>
      <point x="570" y="-20" type="curve" smooth="yes"/>
      <point x="492" y="-20"/>
      <point x="357" y="15"/>
      <point x="325" y="59" type="curve"/>
      <point x="325" y="-420" type="line"/>
      <point x="135" y="-420" type="line"/>
      <point x="135" y="1071" type="line"/>
      <point x="325" y="1071" type="line"/>
      <point x="325" y="983" type="line"/>
      <point x="397" y="1055"/>
      <point x="484" y="1091"/>
      <point x="586" y="1091" type="curve" smooth="yes"/>
      <point x="911" y="1091"/>
      <point x="1068" y="873"/>
      <point x="1068" y="533" type="curve" smooth="yes"/>
      <point x="1068" y="370"/>
      <point x="1025" y="237"/>
      <point x="940" y="134" type="curve" smooth="yes"/>
      <point x="855" y="31"/>
      <point x="731" y="-20"/>
    </contour>
    <contour>
      <point x="515" y="931" type="curve" smooth="yes"/>
      <point x="450" y="931"/>
      <point x="360" y="875"/>
      <point x="325" y="840" type="curve"/>
      <point x="325" y="216" type="line"/>
      <point x="350" y="178"/>
      <point x="447" y="140"/>
      <point x="514" y="140" type="curve" smooth="yes"/>
      <point x="750" y="140"/>
      <point x="868" y="273"/>
      <point x="868" y="540" type="curve" smooth="yes"/>
      <point x="868" y="811"/>
      <point x="762" y="931"/>
    </contour>
  </outline>
</glyph>
<glyph name="q" format="1">
  <advance width="1141"/>
  <unicode hex="0071"/>
  <outline>
    <contour>
      <point x="1011" y="-420" type="line"/>
      <point x="821" y="-420" type="line"/>
      <point x="821" y="63" type="line"/>
      <point x="766" y="8"/>
      <point x="673" y="-20"/>
      <point x="543" y="-20" type="curve" smooth="yes"/>
      <point x="397" y="-20"/>
      <point x="282" y="29"/>
      <point x="199" y="126" type="curve" smooth="yes"/>
      <point x="116" y="224"/>
      <point x="75" y="360"/>
      <point x="75" y="533" type="curve" smooth="yes"/>
      <point x="75" y="704"/>
      <point x="122" y="840"/>
      <point x="217" y="940" type="curve" smooth="yes"/>
      <point x="312" y="1041"/>
      <point x="435" y="1091"/>
      <point x="584" y="1091" type="curve" smooth="yes"/>
      <point x="677" y="1091"/>
      <point x="764" y="1057"/>
      <point x="845" y="990" type="curve"/>
      <point x="896" y="1071" type="line"/>
      <point x="1011" y="1071" type="line"/>
    </contour>
    <contour>
      <point x="821" y="210" type="curve"/>
      <point x="821" y="849" type="line"/>
      <point x="766" y="904"/>
      <point x="698" y="931"/>
      <point x="616" y="931" type="curve" smooth="yes"/>
      <point x="509" y="931"/>
      <point x="425" y="895"/>
      <point x="365" y="822" type="curve" smooth="yes"/>
      <point x="305" y="749"/>
      <point x="275" y="653"/>
      <point x="275" y="533" type="curve" smooth="yes"/>
      <point x="275" y="409"/>
      <point x="305" y="312"/>
      <point x="365" y="243" type="curve" smooth="yes"/>
      <point x="425" y="174"/>
      <point x="506" y="140"/>
      <point x="608" y="140" type="curve" smooth="yes"/>
      <point x="699" y="140"/>
      <point x="770" y="163"/>
    </contour>
  </outline>
</glyph>
<glyph name="r" format="1">
  <advance width="796"/>
  <unicode hex="0072"/>
  <outline>
    <contour>
      <point x="592" y="931" type="curve" smooth="yes"/>
      <point x="444" y="931"/>
      <point x="340" y="770"/>
      <point x="340" y="614" type="curve" smooth="yes"/>
      <point x="340" y="0" type="line"/>
      <point x="150" y="0" type="line"/>
      <point x="150" y="1071" type="line"/>
      <point x="340" y="1071" type="line"/>
      <point x="340" y="900" type="line"/>
      <point x="409" y="1027"/>
      <point x="512" y="1091"/>
      <point x="649" y="1091" type="curve" smooth="yes"/>
      <point x="683" y="1091"/>
      <point x="732" y="1085"/>
      <point x="796" y="1073" type="curve"/>
      <point x="717" y="888" type="line"/>
      <point x="676" y="917"/>
      <point x="634" y="931"/>
    </contour>
  </outline>
</glyph>
<glyph name="s" format="1">
  <advance width="337"/>
  <unicode hex="0073"/>
  <outline>
    <contour>
      <point x="311" y="117" type="curve" smooth="yes"/>
      <point x="311" y="32"/>
      <point x="245" y="-8"/>
      <point x="156" y="-8" type="curve" smooth="yes"/>
      <point x="110" y="-8"/>
      <point x="66" y="3"/>
      <point x="26" y="26" type="curve"/>
      <point x="54" y="99" type="line"/>
      <point x="97" y="71"/>
      <point x="132" y="57"/>
      <point x="158" y="57" type="curve" smooth="yes"/>
      <point x="206" y="57"/>
      <point x="229" y="77"/>
      <point x="229" y="117" type="curve" smooth="yes"/>
      <point x="229" y="146"/>
      <point x="206" y="170"/>
      <point x="160" y="191" type="curve" smooth="yes"/>
      <point x="125" y="207"/>
      <point x="101" y="219"/>
      <point x="88" y="228" type="curve" smooth="yes"/>
      <point x="57" y="250"/>
      <point x="29" y="284"/>
      <point x="29" y="330" type="curve" smooth="yes"/>
      <point x="29" y="406"/>
      <point x="92" y="444"/>
      <point x="170" y="444" type="curve" smooth="yes"/>
      <point x="202" y="444"/>
      <point x="242" y="434"/>
      <point x="290" y="414" type="curve"/>
      <point x="269" y="342" type="line"/>
      <point x="238" y="366"/>
      <point x="207" y="379"/>
      <point x="176" y="379" type="curve" smooth="yes"/>
      <point x="144" y="379"/>
      <point x="111" y="363"/>
      <point x="111" y="333" type="curve" smooth="yes"/>
      <point x="111" y="305"/>
      <point x="126" y="283"/>
      <point x="158" y="269" type="curve" smooth="yes"/>
      <point x="214" y="244" type="line" smooth="yes"/>
      <point x="282" y="213"/>
      <point x="311" y="177"/>
    </contour>
  </outline>
</glyph>
<glyph name="t" format="1">
  <advance width="330"/>
  <unicode hex="0074"/>
  <outline>
    <contour>
      <point x="205" y="-8" type="curve" smooth="yes"/>
      <point x="133" y="-8"/>
      <point x="83" y="53"/>
      <point x="83" y="127" type="curve" smooth="yes"/>
      <point x="83" y="375" type="line"/>
      <point x="32" y="375" type="line"/>
      <point x="32" y="436" type="line"/>
      <point x="83" y="436" type="line"/>
      <point x="83" y="527" type="line"/>
      <point x="160" y="557" type="line"/>
      <point x="160" y="436" type="line"/>
      <point x="279" y="436" type="line"/>
      <point x="279" y="375" type="line"/>
      <point x="160" y="375" type="line"/>
      <point x="160" y="158" type="line" smooth="yes"/>
      <point x="160" y="85"/>
      <point x="183" y="57"/>
      <point x="238" y="57" type="curve" smooth="yes"/>
      <point x="258" y="57"/>
      <point x="278" y="62"/>
      <point x="299" y="72" type="curve"/>
      <point x="311" y="4" type="line"/>
      <point x="279" y="-4"/>
      <point x="243" y="-8"/>
    </contour>
  </outline>
</glyph>
<glyph name="u" format="1">
  <advance width="1119"/>
  <unicode hex="0075"/>
  <outline>
    <contour>
      <point x="125" y="1071" type="line"/>
      <point x="315" y="1071" type="line"/>
      <point x="315" y="388" type="line" smooth="yes"/>
      <point x="315" y="223"/>
      <point x="387" y="140"/>
      <point x="530" y="140" type="curve" smooth="yes"/>
      <point x="593" y="140"/>
      <point x="650" y="158"/>
      <point x="702" y="194" type="curve" smooth="yes"/>
      <point x="754" y="230"/>
      <point x="788" y="272"/>
      <point x="805" y="319" type="curve"/>
      <point x="805" y="1071" type="line"/>
      <point x="995" y="1071" type="line"/>
      <point x="995" y="0" type="line"/>
      <point x="805" y="0" type="line"/>
      <point x="805" y="148" type="line"/>
      <point x="784" y="106"/>
      <point x="741" y="67"/>
      <point x="676" y="32" type="curve" smooth="yes"/>
      <point x="612" y="-3"/>
      <point x="549" y="-20"/>
      <point x="488" y="-20" type="curve" smooth="yes"/>
      <point x="253" y="-20"/>
      <point x="125" y="120"/>
      <point x="125" y="368" type="curve" smooth="yes"/>
    </contour>
  </outline>
</glyph>
<glyph name="v" format="1">
  <advance width="1003"/>
  <unicode hex="0076"/>
  <outline>
    <contour>
      <point x="991" y="1074" type="line"/>
      <point x="521" y="-20" type="line"/>
      <point x="471" y="-20" type="line"/>
      <point x="12" y="1074" type="line"/>
      <point x="220" y="1074" type="line"/>
      <point x="503" y="324" type="line"/>
      <point x="792" y="1074" type="line"/>
    </contour>
  </outline>
</glyph>
<glyph name="w" format="1">
  <advance width="1524"/>
  <unicode hex="0077"/>
  <outline>
    <contour>
      <point x="1509" y="1074" type="line"/>
      <point x="1125" y="-20" type="line"/>
      <point x="1075" y="-20" type="line"/>
      <point x="761" y="709" type="line"/>
      <point x="448" y="-20" type="line"/>
      <point x="398" y="-20" type="line"/>
      <point x="15" y="1074" type="line"/>
      <point x="218" y="1074" type="line"/>
      <point x="447" y="371" type="line"/>
      <point x="732" y="1074" type="line"/>
      <point x="782" y="1074" type="line"/>
      <point x="1076" y="371" type="line"/>
      <point x="1322" y="1074" type="line"/>
    </contour>
  </outline>
</glyph>
<glyph name="x" format="1">
  <advance width="1026"/>
  <unicode hex="0078"/>
  <outline>
    <contour>
      <point x="1014" y="0" type="line"/>
      <point x="787" y="0" type="line"/>
      <point x="495" y="390" type="line"/>
      <point x="234" y="0" type="line"/>
      <point x="12" y="0" type="line"/>
      <point x="401" y="548" type="line"/>
      <point x="44" y="1071" type="line"/>
      <point x="258" y="1071" type="line"/>
      <point x="498" y="703" type="line"/>
      <point x="767" y="1071" type="line"/>
      <point x="977" y="1071" type="line"/>
      <point x="588" y="548" type="line"/>
    </contour>
  </outline>
</glyph>
<glyph name="y" format="1">
  <advance width="1010"/>
  <unicode hex="0079"/>
  <outline>
    <contour>
      <point x="998" y="1071" type="line"/>
      <point x="544" y="-182" type="line" smooth="yes"/>
      <point x="519" y="-250"/>
      <point x="467" y="-307"/>
      <point x="388" y="-352" type="curve" smooth="yes"/>
      <point x="309" y="-397"/>
      <point x="221" y="-420"/>
      <point x="124" y="-420" type="curve"/>
      <point x="124" y="-250" type="line"/>
      <point x="203" y="-250"/>
      <point x="271" y="-231"/>
      <point x="328" y="-194" type="curve" smooth="yes"/>
      <point x="385" y="-157"/>
      <point x="413" y="-112"/>
      <point x="413" y="-59" type="curve" smooth="yes"/>
      <point x="413" y="0"/>
      <point x="403" y="57"/>
      <point x="382" y="114" type="curve" smooth="yes"/>
      <point x="361" y="171"/>
      <point x="335" y="242"/>
      <point x="302" y="326" type="curve" smooth="yes"/>
      <point x="12" y="1071" type="line"/>
      <point x="206" y="1071" type="line"/>
      <point x="521" y="243" type="line"/>
      <point x="804" y="1071" type="line"/>
    </contour>
  </outline>
</glyph>
<glyph name="z" format="1">
  <advance width="972"/>
  <unicode hex="007A"/>
  <outline>
    <contour>
      <point x="926" y="1017" type="line"/>
      <point x="338" y="170" type="line"/>
      <point x="932" y="170" type="line"/>
      <point x="932" y="0" type="line"/>
      <point x="40" y="0" type="line"/>
      <point x="40" y="50" type="line"/>
      <point x="649" y="901" type="line"/>
      <point x="50" y="901" type="line"/>
      <point x="50" y="1071" type="line"/>
      <point x="926" y="1071" type="line"/>
    </contour>
  </outline>
</glyph>
<glyph name="braceleft" format="1">
  <advance width="305"/>
  <unicode hex="007B"/>
  <outline>
    <contour>
      <point x="70" y="585" type="curve" smooth="yes"/>
      <point x="70" y="661"/>
      <point x="148" y="702"/>
      <point x="227" y="702" type="curve" smooth="yes"/>
      <point x="288" y="702" type="line"/>
      <point x="288" y="648" type="line"/>
      <point x="216" y="648" type="line" smooth="yes"/>
      <point x="172" y="648"/>
      <point x="150" y="623"/>
      <point x="150" y="573" type="curve" smooth="yes"/>
      <point x="150" y="556"/>
      <point x="153" y="533"/>
      <point x="162" y="505" type="curve" smooth="yes"/>
      <point x="171" y="477"/>
      <point x="175" y="456"/>
      <point x="175" y="439" type="curve" smooth="yes"/>
      <point x="175" y="396"/>
      <point x="145" y="356"/>
      <point x="84" y="321" type="curve"/>
      <point x="112" y="309"/>
      <point x="135" y="295"/>
      <point x="151" y="276" type="curve" smooth="yes"/>
      <point x="167" y="257"/>
      <point x="175" y="239"/>
      <point x="175" y="220" type="curve" smooth="yes"/>
      <point x="175" y="203"/>
      <point x="171" y="177"/>
      <point x="162" y="146" type="curve" smooth="yes"/>
      <point x="153" y="115"/>
      <point x="150" y="90"/>
      <point x="150" y="70" type="curve" smooth="yes"/>
      <point x="150" y="8"/>
      <point x="186" y="-23"/>
      <point x="257" y="-23" type="curve" smooth="yes"/>
      <point x="288" y="-23" type="line"/>
      <point x="288" y="-80" type="line"/>
      <point x="231" y="-80" type="line" smooth="yes"/>
      <point x="148" y="-80"/>
      <point x="70" y="-38"/>
      <point x="70" y="41" type="curve" smooth="yes"/>
      <point x="70" y="60"/>
      <point x="75" y="89"/>
      <point x="85" y="128" type="curve" smooth="yes"/>
      <point x="95" y="167"/>
      <point x="100" y="197"/>
      <point x="100" y="217" type="curve" smooth="yes"/>
      <point x="100" y="271"/>
      <point x="72" y="299"/>
      <point x="15" y="303" type="curve"/>
      <point x="15" y="338" type="line"/>
      <point x="69" y="342"/>
      <point x="100" y="378"/>
      <point x="100" y="431" type="curve" smooth="yes"/>
      <point x="100" y="449"/>
      <point x="95" y="475"/>
      <point x="85" y="509" type="curve" smooth="yes"/>
      <point x="75" y="543"/>
      <point x="70" y="568"/>
    </contour>
  </outline>
</glyph>
<glyph name="bar" format="1">
  <advance width="436"/>
  <unicode hex="007C"/>
  <outline>
    <contour>
      <point x="247" y="-83" type="line"/>
      <point x="188" y="-83" type="line"/>
      <point x="188" y="601" type="line"/>
      <point x="247" y="601" type="line"/>
    </contour>
  </outline>
</glyph>
<glyph name="braceright" format="1">
  <advance width="305"/>
  <unicode hex="007D"/>
  <outline>
    <contour>
      <point x="233" y="39" type="curve" smooth="yes"/>
      <point x="233" y="-40"/>
      <point x="155" y="-82"/>
      <point x="72" y="-82" type="curve" smooth="yes"/>
      <point x="15" y="-82" type="line"/>
      <point x="15" y="-25" type="line"/>
      <point x="46" y="-25" type="line" smooth="yes"/>
      <point x="117" y="-25"/>
      <point x="153" y="6"/>
      <point x="153" y="68" type="curve" smooth="yes"/>
      <point x="153" y="88"/>
      <point x="149" y="113"/>
      <point x="140" y="144" type="curve" smooth="yes"/>
      <point x="131" y="175"/>
      <point x="128" y="201"/>
      <point x="128" y="218" type="curve" smooth="yes"/>
      <point x="128" y="237"/>
      <point x="136" y="255"/>
      <point x="152" y="274" type="curve" smooth="yes"/>
      <point x="168" y="293"/>
      <point x="191" y="307"/>
      <point x="219" y="319" type="curve"/>
      <point x="158" y="354"/>
      <point x="128" y="394"/>
      <point x="128" y="437" type="curve" smooth="yes"/>
      <point x="128" y="454"/>
      <point x="131" y="475"/>
      <point x="140" y="503" type="curve" smooth="yes"/>
      <point x="149" y="531"/>
      <point x="153" y="554"/>
      <point x="153" y="571" type="curve" smooth="yes"/>
      <point x="153" y="621"/>
      <point x="131" y="646"/>
      <point x="87" y="646" type="curve" smooth="yes"/>
      <point x="15" y="646" type="line"/>
      <point x="15" y="700" type="line"/>
      <point x="76" y="700" type="line" smooth="yes"/>
      <point x="155" y="700"/>
      <point x="233" y="658"/>
      <point x="233" y="583" type="curve" smooth="yes"/>
      <point x="233" y="566"/>
      <point x="228" y="541"/>
      <point x="218" y="507" type="curve" smooth="yes"/>
      <point x="208" y="473"/>
      <point x="203" y="447"/>
      <point x="203" y="429" type="curve" smooth="yes"/>
      <point x="203" y="376"/>
      <point x="234" y="340"/>
      <point x="288" y="336" type="curve"/>
      <point x="288" y="301" type="line"/>
      <point x="231" y="297"/>
      <point x="203" y="269"/>
      <point x="203" y="215" type="curve" smooth="yes"/>
      <point x="203" y="195"/>
      <point x="208" y="166"/>
      <point x="218" y="127" type="curve" smooth="yes"/>
      <point x="228" y="88"/>
      <point x="233" y="59"/>
    </contour>
  </outline>
</glyph>
<glyph name="asciitilde" format="1">
  <advance width="1074"/>
  <unicode hex="007E"/>
  <outline>
    <contour>
      <point x="816" y="716" type="curve"/>
      <point x="904" y="716" type="line"/>
      <point x="869" y="578"/>
      <point x="805" y="509"/>
      <point x="712" y="509" type="curve" smooth="yes"/>
      <point x="659" y="509"/>
      <point x="592" y="522"/>
      <point x="509" y="547" type="curve" smooth="yes"/>
      <point x="426" y="573"/>
      <point x="376" y="586"/>
      <point x="357" y="586" type="curve" smooth="yes"/>
      <point x="310" y="586"/>
      <point x="274" y="560"/>
      <point x="249" y="509" type="curve"/>
      <point x="158" y="509" type="line"/>
      <point x="167" y="565"/>
      <point x="189" y="613"/>
      <point x="222" y="654" type="curve" smooth="yes"/>
      <point x="256" y="695"/>
      <point x="296" y="716"/>
      <point x="342" y="716" type="curve" smooth="yes"/>
      <point x="400" y="716"/>
      <point x="467" y="703"/>
      <point x="544" y="677" type="curve" smooth="yes"/>
      <point x="621" y="652"/>
      <point x="676" y="639"/>
      <point x="708" y="639" type="curve" smooth="yes"/>
      <point x="762" y="639"/>
      <point x="798" y="665"/>
    </contour>
  </outline>
</glyph>
<glyph name="exclamdown" format="1">
  <advance width="305"/>
  <unicode hex="00A1"/>
  <outline>
    <contour>
      <point x="217" y="382" type="curve" smooth="yes"/>
      <point x="217" y="349"/>
      <point x="189" y="321"/>
      <point x="156" y="321" type="curve" smooth="yes"/>
      <point x="123" y="321"/>
      <point x="95" y="349"/>
      <point x="95" y="382" type="curve" smooth="yes"/>
      <point x="95" y="415"/>
      <point x="123" y="444"/>
      <point x="156" y="444" type="curve" smooth="yes"/>
      <point x="189" y="444"/>
      <point x="217" y="415"/>
    </contour>
    <contour>
      <point x="200" y="-4" type="curve" smooth="yes"/>
      <point x="200" y="-171" type="line"/>
      <point x="108" y="-171" type="line"/>
      <point x="108" y="-4" type="line" smooth="yes"/>
      <point x="108" y="49"/>
      <point x="118" y="144"/>
      <point x="139" y="280" type="curve"/>
      <point x="168" y="280" type="line"/>
      <point x="189" y="141"/>
      <point x="200" y="47"/>
    </contour>
  </outline>
</glyph>
<glyph name="cent" format="1">
  <advance width="1074"/>
  <unicode hex="00A2"/>
  <outline>
    <contour>
      <point x="193" y="527" type="curve" smooth="yes"/>
      <point x="193" y="797"/>
      <point x="359" y="974"/>
      <point x="624" y="980" type="curve"/>
      <point x="694" y="1217" type="line"/>
      <point x="796" y="1217" type="line"/>
      <point x="725" y="969" type="line"/>
      <point x="798" y="952"/>
      <point x="854" y="927"/>
      <point x="895" y="894" type="curve"/>
      <point x="817" y="781" type="line"/>
      <point x="792" y="806"/>
      <point x="748" y="825"/>
      <point x="687" y="837" type="curve"/>
      <point x="518" y="247" type="line"/>
      <point x="553" y="234"/>
      <point x="592" y="227"/>
      <point x="634" y="227" type="curve" smooth="yes"/>
      <point x="702" y="227"/>
      <point x="771" y="253"/>
      <point x="840" y="306" type="curve"/>
      <point x="900" y="170" type="line"/>
      <point x="819" y="117"/>
      <point x="718" y="91"/>
      <point x="597" y="91" type="curve" smooth="yes"/>
      <point x="556" y="91"/>
      <point x="516" y="96"/>
      <point x="478" y="106" type="curve"/>
      <point x="404" y="-152" type="line"/>
      <point x="289" y="-152" type="line"/>
      <point x="377" y="148" type="line"/>
      <point x="254" y="221"/>
      <point x="193" y="348"/>
    </contour>
    <contour>
      <point x="583" y="841" type="line"/>
      <point x="446" y="818"/>
      <point x="353" y="689"/>
      <point x="353" y="527" type="curve" smooth="yes"/>
      <point x="353" y="434"/>
      <point x="377" y="361"/>
      <point x="425" y="309" type="curve"/>
    </contour>
  </outline>
</glyph>
<glyph name="sterling" format="1">
  <advance width="1074"/>
  <unicode hex="00A3"/>
  <outline>
    <contour>
      <point x="222" y="1004" type="line" smooth="yes"/>
      <point x="222" y="1286"/>
      <point x="362" y="1491"/>
      <point x="629" y="1491" type="curve" smooth="yes"/>
      <point x="766" y="1491"/>
      <point x="863" y="1451"/>
      <point x="922" y="1370" type="curve"/>
      <point x="828" y="1237" type="line"/>
      <point x="785" y="1294"/>
      <point x="711" y="1323"/>
      <point x="606" y="1323" type="curve" smooth="yes"/>
      <point x="483" y="1323"/>
      <point x="422" y="1219"/>
      <point x="422" y="1012" type="curve" smooth="yes"/>
      <point x="422" y="856" type="line"/>
      <point x="621" y="856" type="line"/>
      <point x="621" y="707" type="line"/>
      <point x="422" y="707" type="line"/>
      <point x="422" y="180" type="line"/>
      <point x="645" y="180" type="line" smooth="yes"/>
      <point x="746" y="180"/>
      <point x="824" y="218"/>
      <point x="879" y="293" type="curve"/>
      <point x="1021" y="182" type="line"/>
      <point x="953" y="61"/>
      <point x="805" y="0"/>
      <point x="576" y="0" type="curve" smooth="yes"/>
      <point x="132" y="0" type="line"/>
      <point x="132" y="139" type="line"/>
      <point x="192" y="159"/>
      <point x="222" y="202"/>
      <point x="222" y="268" type="curve" smooth="yes"/>
      <point x="222" y="707" type="line"/>
      <point x="140" y="707" type="line"/>
      <point x="140" y="856" type="line"/>
      <point x="222" y="856" type="line"/>
    </contour>
  </outline>
</glyph>
<glyph name="currency" format="1">
  <advance width="1074"/>
  <unicode hex="00A4"/>
  <outline>
    <contour>
      <point x="1017" y="334" type="line"/>
      <point x="932" y="246" type="line"/>
      <point x="789" y="390" type="line"/>
      <point x="708" y="334"/>
      <point x="624" y="306"/>
      <point x="536" y="306" type="curve" smooth="yes"/>
      <point x="449" y="306"/>
      <point x="364" y="334"/>
      <point x="283" y="390" type="curve"/>
      <point x="140" y="246" type="line"/>
      <point x="56" y="334" type="line"/>
      <point x="199" y="474" type="line"/>
      <point x="144" y="559"/>
      <point x="117" y="643"/>
      <point x="117" y="726" type="curve" smooth="yes"/>
      <point x="117" y="809"/>
      <point x="144" y="892"/>
      <point x="199" y="977" type="curve"/>
      <point x="56" y="1117" type="line"/>
      <point x="140" y="1205" type="line"/>
      <point x="283" y="1062" type="line"/>
      <point x="364" y="1117"/>
      <point x="449" y="1145"/>
      <point x="536" y="1145" type="curve" smooth="yes"/>
      <point x="624" y="1145"/>
      <point x="708" y="1117"/>
      <point x="789" y="1062" type="curve"/>
      <point x="932" y="1205" type="line"/>
      <point x="1017" y="1117" type="line"/>
      <point x="874" y="977" type="line"/>
      <point x="929" y="892"/>
      <point x="956" y="809"/>
      <point x="956" y="726" type="curve" smooth="yes"/>
      <point x="956" y="643"/>
      <point x="929" y="559"/>
      <point x="874" y="474" type="curve"/>
    </contour>
    <contour>
      <point x="236" y="726" type="curve" smooth="yes"/>
      <point x="236" y="643"/>
      <point x="265" y="572"/>
      <point x="323" y="513" type="curve" smooth="yes"/>
      <point x="381" y="455"/>
      <point x="452" y="426"/>
      <point x="535" y="426" type="curve" smooth="yes"/>
      <point x="618" y="426"/>
      <point x="688" y="455"/>
      <point x="746" y="514" type="curve" smooth="yes"/>
      <point x="805" y="573"/>
      <point x="834" y="643"/>
      <point x="834" y="726" type="curve" smooth="yes"/>
      <point x="834" y="809"/>
      <point x="805" y="880"/>
      <point x="747" y="938" type="curve" smooth="yes"/>
      <point x="689" y="996"/>
      <point x="618" y="1025"/>
      <point x="535" y="1025" type="curve" smooth="yes"/>
      <point x="452" y="1025"/>
      <point x="381" y="996"/>
      <point x="323" y="938" type="curve" smooth="yes"/>
      <point x="265" y="880"/>
      <point x="236" y="809"/>
    </contour>
  </outline>
</glyph>
<glyph name="yen" format="1">
  <advance width="1168"/>
  <unicode hex="00A5"/>
  <outline>
    <contour>
      <point x="932" y="606" type="line"/>
      <point x="932" y="475" type="line"/>
      <point x="678" y="475" type="line"/>
      <point x="678" y="0" type="line"/>
      <point x="478" y="0" type="line"/>
      <point x="478" y="475" type="line"/>
      <point x="235" y="475" type="line"/>
      <point x="235" y="606" type="line"/>
      <point x="478" y="606" type="line"/>
      <point x="478" y="656" type="line"/>
      <point x="39" y="1465" type="line"/>
      <point x="245" y="1465" type="line"/>
      <point x="577" y="825" type="line"/>
      <point x="945" y="1465" type="line"/>
      <point x="1142" y="1465" type="line"/>
      <point x="678" y="656" type="line"/>
      <point x="678" y="606" type="line"/>
    </contour>
  </outline>
</glyph>
<glyph name="brokenbar" format="1">
  <advance width="1074"/>
  <unicode hex="00A6"/>
  <outline>
    <contour>
      <point x="618" y="694" type="line"/>
      <point x="472" y="694" type="line"/>
      <point x="472" y="1417" type="line"/>
      <point x="618" y="1417" type="line"/>
    </contour>
    <contour>
      <point x="618" y="-276" type="line"/>
      <point x="472" y="-276" type="line"/>
      <point x="472" y="447" type="line"/>
      <point x="618" y="447" type="line"/>
    </contour>
  </outline>
</glyph>
<glyph name="section" format="1">
  <advance width="377"/>
  <unicode hex="00A7"/>
  <outline>
    <contour>
      <point x="346" y="131" type="curve" smooth="yes"/>
      <point x="346" y="37"/>
      <point x="279" y="-9"/>
      <point x="183" y="-9" type="curve" smooth="yes"/>
      <point x="123" y="-9"/>
      <point x="76" y="3"/>
      <point x="41" y="28" type="curve"/>
      <point x="69" y="104" type="line"/>
      <point x="99" y="77"/>
      <point x="135" y="63"/>
      <point x="179" y="63" type="curve" smooth="yes"/>
      <point x="234" y="63"/>
      <point x="260" y="83"/>
      <point x="260" y="123" type="curve" smooth="yes"/>
      <point x="260" y="160"/>
      <point x="229" y="184"/>
      <point x="167" y="197" type="curve" smooth="yes"/>
      <point x="130" y="205"/>
      <point x="101" y="219"/>
      <point x="78" y="239" type="curve" smooth="yes"/>
      <point x="55" y="259"/>
      <point x="44" y="280"/>
      <point x="44" y="301" type="curve" smooth="yes"/>
      <point x="44" y="338"/>
      <point x="57" y="364"/>
      <point x="83" y="381" type="curve"/>
      <point x="51" y="399"/>
      <point x="35" y="432"/>
      <point x="35" y="480" type="curve" smooth="yes"/>
      <point x="35" y="517"/>
      <point x="51" y="548"/>
      <point x="83" y="571" type="curve" smooth="yes"/>
      <point x="115" y="595"/>
      <point x="152" y="606"/>
      <point x="194" y="606" type="curve" smooth="yes"/>
      <point x="232" y="606"/>
      <point x="290" y="584"/>
      <point x="312" y="566" type="curve"/>
      <point x="286" y="491" type="line"/>
      <point x="257" y="519"/>
      <point x="227" y="533"/>
      <point x="196" y="533" type="curve" smooth="yes"/>
      <point x="145" y="533"/>
      <point x="120" y="516"/>
      <point x="120" y="481" type="curve" smooth="yes"/>
      <point x="120" y="469"/>
      <point x="124" y="459"/>
      <point x="132" y="448" type="curve" smooth="yes"/>
      <point x="141" y="437"/>
      <point x="166" y="427"/>
      <point x="208" y="416" type="curve" smooth="yes"/>
      <point x="293" y="395"/>
      <point x="329" y="358"/>
      <point x="329" y="295" type="curve" smooth="yes"/>
      <point x="329" y="269"/>
      <point x="318" y="244"/>
      <point x="296" y="221" type="curve"/>
      <point x="329" y="199"/>
      <point x="346" y="169"/>
    </contour>
    <contour>
      <point x="144" y="358" type="curve"/>
      <point x="127" y="347"/>
      <point x="118" y="335"/>
      <point x="118" y="321" type="curve" smooth="yes"/>
      <point x="118" y="297"/>
      <point x="143" y="277"/>
      <point x="165" y="269" type="curve" smooth="yes"/>
      <point x="180" y="264"/>
      <point x="205" y="257"/>
      <point x="242" y="249" type="curve"/>
      <point x="247" y="259"/>
      <point x="250" y="272"/>
      <point x="250" y="288" type="curve" smooth="yes"/>
      <point x="250" y="312"/>
      <point x="236" y="330"/>
      <point x="212" y="340" type="curve" smooth="yes"/>
      <point x="182" y="353"/>
      <point x="182" y="348"/>
    </contour>
  </outline>
</glyph>
<glyph name="dieresis" format="1">
  <advance width="436"/>
  <unicode hex="00A8"/>
  <outline>
    <contour>
      <point x="123" y="524" type="curve" smooth="yes"/>
      <point x="98" y="524"/>
      <point x="77" y="545"/>
      <point x="77" y="570" type="curve" smooth="yes"/>
      <point x="77" y="596"/>
      <point x="97" y="616"/>
      <point x="123" y="616" type="curve" smooth="yes"/>
      <point x="149" y="616"/>
      <point x="168" y="596"/>
      <point x="168" y="570" type="curve" smooth="yes"/>
      <point x="168" y="544"/>
      <point x="149" y="524"/>
    </contour>
    <contour>
      <point x="361" y="570" type="curve" smooth="yes"/>
      <point x="361" y="545"/>
      <point x="340" y="524"/>
      <point x="315" y="524" type="curve" smooth="yes"/>
      <point x="289" y="524"/>
      <point x="269" y="544"/>
      <point x="269" y="570" type="curve" smooth="yes"/>
      <point x="269" y="596"/>
      <point x="289" y="616"/>
      <point x="315" y="616" type="curve" smooth="yes"/>
      <point x="341" y="616"/>
      <point x="361" y="596"/>
    </contour>
  </outline>
</glyph>
<glyph name="copyright" format="1">
  <advance width="1460"/>
  <unicode hex="00A9"/>
  <outline>
    <contour>
      <point x="105" y="661" type="curve" smooth="yes"/>
      <point x="105" y="847"/>
      <point x="171" y="1006"/>
      <point x="303" y="1137" type="curve" smooth="yes"/>
      <point x="435" y="1269"/>
      <point x="594" y="1335"/>
      <point x="780" y="1335" type="curve" smooth="yes"/>
      <point x="966" y="1335"/>
      <point x="1125" y="1269"/>
      <point x="1256" y="1137" type="curve" smooth="yes"/>
      <point x="1388" y="1006"/>
      <point x="1454" y="847"/>
      <point x="1454" y="661" type="curve" smooth="yes"/>
      <point x="1454" y="475"/>
      <point x="1388" y="316"/>
      <point x="1256" y="184" type="curve" smooth="yes"/>
      <point x="1125" y="52"/>
      <point x="966" y="-14"/>
      <point x="780" y="-14" type="curve" smooth="yes"/>
      <point x="594" y="-14"/>
      <point x="435" y="52"/>
      <point x="303" y="184" type="curve" smooth="yes"/>
      <point x="171" y="316"/>
      <point x="105" y="475"/>
    </contour>
    <contour>
      <point x="1344" y="661" type="curve" smooth="yes"/>
      <point x="1344" y="817"/>
      <point x="1289" y="950"/>
      <point x="1179" y="1060" type="curve" smooth="yes"/>
      <point x="1069" y="1170"/>
      <point x="936" y="1225"/>
      <point x="780" y="1225" type="curve" smooth="yes"/>
      <point x="624" y="1225"/>
      <point x="491" y="1170"/>
      <point x="380" y="1060" type="curve" smooth="yes"/>
      <point x="270" y="950"/>
      <point x="215" y="817"/>
      <point x="215" y="661" type="curve" smooth="yes"/>
      <point x="215" y="505"/>
      <point x="270" y="372"/>
      <point x="380" y="261" type="curve" smooth="yes"/>
      <point x="491" y="151"/>
      <point x="624" y="96"/>
      <point x="780" y="96" type="curve" smooth="yes"/>
      <point x="936" y="96"/>
      <point x="1069" y="151"/>
      <point x="1179" y="261" type="curve" smooth="yes"/>
      <point x="1289" y="372"/>
      <point x="1344" y="505"/>
    </contour>
    <contour>
      <point x="975" y="421" type="curve"/>
      <point x="1038" y="335" type="line"/>
      <point x="971" y="269"/>
      <point x="887" y="236"/>
      <point x="784" y="236" type="curve" smooth="yes"/>
      <point x="676" y="236"/>
      <point x="591" y="275"/>
      <point x="528" y="352" type="curve" smooth="yes"/>
      <point x="465" y="430"/>
      <point x="434" y="534"/>
      <point x="434" y="663" type="curve" smooth="yes"/>
      <point x="434" y="788"/>
      <point x="467" y="891"/>
      <point x="534" y="972" type="curve" smooth="yes"/>
      <point x="601" y="1054"/>
      <point x="687" y="1095"/>
      <point x="792" y="1095" type="curve" smooth="yes"/>
      <point x="883" y="1095"/>
      <point x="954" y="1080"/>
      <point x="1004" y="1051" type="curve"/>
      <point x="966" y="954" type="line"/>
      <point x="930" y="980"/>
      <point x="873" y="993"/>
      <point x="794" y="993" type="curve" smooth="yes"/>
      <point x="721" y="993"/>
      <point x="662" y="962"/>
      <point x="618" y="899" type="curve" smooth="yes"/>
      <point x="575" y="836"/>
      <point x="553" y="756"/>
      <point x="553" y="657" type="curve" smooth="yes"/>
      <point x="553" y="562"/>
      <point x="576" y="486"/>
      <point x="621" y="427" type="curve" smooth="yes"/>
      <point x="666" y="368"/>
      <point x="725" y="339"/>
      <point x="796" y="339" type="curve" smooth="yes"/>
      <point x="874" y="339"/>
      <point x="934" y="366"/>
    </contour>
  </outline>
</glyph>
<glyph name="ordfeminine" format="1">
  <advance width="752"/>
  <unicode hex="00AA"/>
  <outline>
    <contour>
      <point x="87" y="1002" type="curve" smooth="yes"/>
      <point x="87" y="1171"/>
      <point x="246" y="1251"/>
      <point x="423" y="1251" type="curve" smooth="yes"/>
      <point x="462" y="1251" type="line"/>
      <point x="497" y="1250" type="line"/>
      <point x="495" y="1335"/>
      <point x="449" y="1377"/>
      <point x="359" y="1377" type="curve" smooth="yes"/>
      <point x="286" y="1377"/>
      <point x="228" y="1356"/>
      <point x="184" y="1315" type="curve"/>
      <point x="126" y="1423" type="line"/>
      <point x="187" y="1468"/>
      <point x="260" y="1491"/>
      <point x="345" y="1491" type="curve" smooth="yes"/>
      <point x="537" y="1491"/>
      <point x="633" y="1402"/>
      <point x="633" y="1224" type="curve" smooth="yes"/>
      <point x="633" y="999" type="line" smooth="yes"/>
      <point x="633" y="946"/>
      <point x="651" y="911"/>
      <point x="686" y="892" type="curve"/>
      <point x="686" y="825" type="line"/>
      <point x="593" y="825"/>
      <point x="536" y="851"/>
      <point x="513" y="902" type="curve"/>
      <point x="463" y="850"/>
      <point x="391" y="824"/>
      <point x="297" y="824" type="curve" smooth="yes"/>
      <point x="186" y="824"/>
      <point x="87" y="894"/>
    </contour>
    <contour>
      <point x="426" y="1157" type="line" smooth="yes"/>
      <point x="324" y="1157"/>
      <point x="221" y="1111"/>
      <point x="221" y="1017" type="curve" smooth="yes"/>
      <point x="221" y="966"/>
      <point x="275" y="933"/>
      <point x="344" y="933" type="curve" smooth="yes"/>
      <point x="405" y="933"/>
      <point x="457" y="956"/>
      <point x="498" y="1002" type="curve"/>
      <point x="498" y="1157" type="line"/>
    </contour>
  </outline>
</glyph>
<glyph name="guillemotleft" format="1">
  <advance width="436"/>
  <unicode hex="00AB"/>
  <outline>
    <contour>
      <point x="197" y="121" type="line"/>
      <point x="52" y="218" type="line"/>
      <point x="52" y="244" type="line"/>
      <point x="197" y="343" type="line"/>
      <point x="197" y="292" type="line"/>
      <point x="111" y="228" type="line"/>
      <point x="197" y="172" type="line"/>
    </contour>
    <contour>
      <point x="359" y="121" type="line"/>
      <point x="215" y="218" type="line"/>
      <point x="215" y="244" type="line"/>
      <point x="359" y="343" type="line"/>
      <point x="359" y="292" type="line"/>
      <point x="273" y="228" type="line"/>
      <point x="359" y="172" type="line"/>
    </contour>
  </outline>
</glyph>
<glyph name="logicalnot" format="1">
  <advance width="436"/>
  <unicode hex="00AC"/>
  <outline>
    <contour>
      <point x="50" y="360" type="line"/>
      <point x="391" y="360" type="line"/>
      <point x="391" y="163" type="line"/>
      <point x="333" y="163" type="line"/>
      <point x="333" y="303" type="line"/>
      <point x="50" y="303" type="line"/>
    </contour>
  </outline>
</glyph>
<glyph name="sfthyphen" format="1">
  <advance width="752"/>
  <unicode hex="00AD"/>
  <outline>
    <contour>
      <point x="587" y="506" type="line"/>
      <point x="159" y="506" type="line"/>
      <point x="159" y="681" type="line"/>
      <point x="587" y="681" type="line"/>
    </contour>
  </outline>
</glyph>
<glyph name="registered" format="1">
  <advance width="593"/>
  <unicode hex="00AE"/>
  <outline>
    <contour>
      <point x="43" y="269" type="curve" smooth="yes"/>
      <point x="43" y="345"/>
      <point x="69" y="410"/>
      <point x="123" y="463" type="curve" smooth="yes"/>
      <point x="177" y="517"/>
      <point x="241" y="543"/>
      <point x="317" y="543" type="curve" smooth="yes"/>
      <point x="393" y="543"/>
      <point x="458" y="517"/>
      <point x="511" y="463" type="curve" smooth="yes"/>
      <point x="565" y="410"/>
      <point x="592" y="345"/>
      <point x="592" y="269" type="curve" smooth="yes"/>
      <point x="592" y="193"/>
      <point x="565" y="129"/>
      <point x="511" y="75" type="curve" smooth="yes"/>
      <point x="458" y="21"/>
      <point x="393" y="-6"/>
      <point x="317" y="-6" type="curve" smooth="yes"/>
      <point x="241" y="-6"/>
      <point x="177" y="21"/>
      <point x="123" y="75" type="curve" smooth="yes"/>
      <point x="69" y="129"/>
      <point x="43" y="193"/>
    </contour>
    <contour>
      <point x="547" y="269" type="curve" smooth="yes"/>
      <point x="547" y="332"/>
      <point x="525" y="386"/>
      <point x="480" y="431" type="curve" smooth="yes"/>
      <point x="435" y="476"/>
      <point x="380" y="498"/>
      <point x="317" y="498" type="curve" smooth="yes"/>
      <point x="254" y="498"/>
      <point x="200" y="476"/>
      <point x="155" y="431" type="curve" smooth="yes"/>
      <point x="110" y="386"/>
      <point x="87" y="332"/>
      <point x="87" y="269" type="curve" smooth="yes"/>
      <point x="87" y="206"/>
      <point x="110" y="151"/>
      <point x="155" y="106" type="curve" smooth="yes"/>
      <point x="200" y="61"/>
      <point x="254" y="39"/>
      <point x="317" y="39" type="curve" smooth="yes"/>
      <point x="380" y="39"/>
      <point x="435" y="61"/>
      <point x="480" y="106" type="curve" smooth="yes"/>
      <point x="525" y="151"/>
      <point x="547" y="206"/>
    </contour>
    <contour>
      <point x="455" y="103" type="line"/>
      <point x="403" y="103" type="line"/>
      <point x="317" y="249" type="line"/>
      <point x="268" y="249" type="line"/>
      <point x="268" y="103" type="line"/>
      <point x="220" y="103" type="line"/>
      <point x="220" y="441" type="line"/>
      <point x="306" y="441" type="line" smooth="yes"/>
      <point x="387" y="441"/>
      <point x="428" y="410"/>
      <point x="428" y="348" type="curve" smooth="yes"/>
      <point x="428" y="304"/>
      <point x="407" y="274"/>
      <point x="363" y="256" type="curve"/>
    </contour>
    <contour>
      <point x="300" y="287" type="curve" smooth="yes"/>
      <point x="356" y="287"/>
      <point x="380" y="294"/>
      <point x="380" y="345" type="curve" smooth="yes"/>
      <point x="380" y="382"/>
      <point x="355" y="400"/>
      <point x="306" y="400" type="curve" smooth="yes"/>
      <point x="287" y="400" type="line"/>
      <point x="268" y="400" type="line"/>
      <point x="268" y="288" type="line"/>
      <point x="272" y="288"/>
      <point x="283" y="287"/>
    </contour>
  </outline>
</glyph>
<glyph name="overscore" format="1">
  <advance width="436"/>
  <unicode hex="00AF"/>
  <outline>
    <contour>
      <point x="438" y="651" type="line"/>
      <point x="-3" y="651" type="line"/>
      <point x="-3" y="703" type="line"/>
      <point x="438" y="703" type="line"/>
    </contour>
  </outline>
</glyph>
<glyph name="degree" format="1">
  <advance width="1074"/>
  <unicode hex="00B0"/>
  <outline>
    <contour>
      <point x="719" y="1282" type="curve" smooth="yes"/>
      <point x="719" y="1167"/>
      <point x="624" y="1072"/>
      <point x="508" y="1072" type="curve" smooth="yes"/>
      <point x="391" y="1072"/>
      <point x="296" y="1166"/>
      <point x="296" y="1282" type="curve" smooth="yes"/>
      <point x="296" y="1398"/>
      <point x="392" y="1491"/>
      <point x="508" y="1491" type="curve" smooth="yes"/>
      <point x="624" y="1491"/>
      <point x="719" y="1397"/>
    </contour>
    <contour>
      <point x="647" y="1282" type="curve" smooth="yes"/>
      <point x="647" y="1357"/>
      <point x="583" y="1421"/>
      <point x="508" y="1421" type="curve" smooth="yes"/>
      <point x="433" y="1421"/>
      <point x="369" y="1357"/>
      <point x="369" y="1282" type="curve" smooth="yes"/>
      <point x="369" y="1207"/>
      <point x="433" y="1143"/>
      <point x="508" y="1143" type="curve" smooth="yes"/>
      <point x="583" y="1143"/>
      <point x="647" y="1207"/>
    </contour>
  </outline>
</glyph>
<glyph name="plusminus" format="1">
  <advance width="436"/>
  <unicode hex="00B1"/>
  <outline>
    <contour>
      <point x="249" y="427" type="line"/>
      <point x="249" y="287" type="line"/>
      <point x="391" y="287" type="line"/>
      <point x="391" y="230" type="line"/>
      <point x="249" y="230" type="line"/>
      <point x="249" y="90" type="line"/>
      <point x="191" y="90" type="line"/>
      <point x="191" y="230" type="line"/>
      <point x="50" y="230" type="line"/>
      <point x="50" y="287" type="line"/>
      <point x="191" y="287" type="line"/>
      <point x="191" y="427" type="line"/>
    </contour>
    <contour>
      <point x="50" y="49" type="line"/>
      <point x="391" y="49" type="line"/>
      <point x="391" y="-8" type="line"/>
      <point x="50" y="-8" type="line"/>
    </contour>
  </outline>
</glyph>
<glyph name="twosuperior" format="1">
  <advance width="375"/>
  <unicode hex="00B2"/>
  <outline>
    <contour>
      <point x="66" y="536" type="line"/>
      <point x="79" y="572"/>
      <point x="118" y="606"/>
      <point x="164" y="606" type="curve" smooth="yes"/>
      <point x="236" y="606"/>
      <point x="271" y="576"/>
      <point x="271" y="515" type="curve" smooth="yes"/>
      <point x="271" y="482"/>
      <point x="258" y="446"/>
      <point x="233" y="407" type="curve" smooth="yes"/>
      <point x="159" y="290" type="line"/>
      <point x="295" y="290" type="line"/>
      <point x="295" y="242" type="line"/>
      <point x="75" y="242" type="line"/>
      <point x="75" y="252" type="line"/>
      <point x="183" y="420" type="line" smooth="yes"/>
      <point x="206" y="456"/>
      <point x="218" y="487"/>
      <point x="218" y="511" type="curve" smooth="yes"/>
      <point x="218" y="544"/>
      <point x="201" y="561"/>
      <point x="166" y="561" type="curve" smooth="yes"/>
      <point x="137" y="561"/>
      <point x="114" y="544"/>
      <point x="97" y="510" type="curve"/>
    </contour>
  </outline>
</glyph>
<glyph name="threesuperior" format="1">
  <advance width="929"/>
  <unicode hex="00B3"/>
  <outline>
    <contour>
      <point x="185" y="657" type="curve"/>
      <point x="244" y="759" type="line"/>
      <point x="277" y="723"/>
      <point x="326" y="705"/>
      <point x="392" y="705" type="curve" smooth="yes"/>
      <point x="501" y="705"/>
      <point x="555" y="752"/>
      <point x="555" y="847" type="curve" smooth="yes"/>
      <point x="555" y="944"/>
      <point x="490" y="1010"/>
      <point x="381" y="1010" type="curve" smooth="yes"/>
      <point x="371" y="1010" type="line"/>
      <point x="371" y="1112" type="line"/>
      <point x="377" y="1112" type="line" smooth="yes"/>
      <point x="476" y="1112"/>
      <point x="525" y="1158"/>
      <point x="525" y="1251" type="curve" smooth="yes"/>
      <point x="525" y="1330"/>
      <point x="479" y="1370"/>
      <point x="386" y="1370" type="curve" smooth="yes"/>
      <point x="329" y="1370"/>
      <point x="288" y="1355"/>
      <point x="262" y="1326" type="curve"/>
      <point x="208" y="1417" type="line"/>
      <point x="245" y="1466"/>
      <point x="308" y="1490"/>
      <point x="395" y="1490" type="curve" smooth="yes"/>
      <point x="472" y="1490"/>
      <point x="535" y="1469"/>
      <point x="583" y="1427" type="curve" smooth="yes"/>
      <point x="631" y="1386"/>
      <point x="655" y="1333"/>
      <point x="655" y="1270" type="curve" smooth="yes"/>
      <point x="655" y="1221"/>
      <point x="642" y="1178"/>
      <point x="615" y="1141" type="curve" smooth="yes"/>
      <point x="589" y="1104"/>
      <point x="557" y="1079"/>
      <point x="520" y="1065" type="curve"/>
      <point x="630" y="1029"/>
      <point x="685" y="953"/>
      <point x="685" y="838" type="curve" smooth="yes"/>
      <point x="685" y="669"/>
      <point x="587" y="585"/>
      <point x="390" y="585" type="curve" smooth="yes"/>
      <point x="304" y="585"/>
      <point x="236" y="609"/>
    </contour>
  </outline>
</glyph>
<glyph name="acute" format="1">
  <advance width="1074"/>
  <unicode hex="00B4"/>
  <outline>
    <contour>
      <point x="547" y="1618" type="line"/>
      <point x="744" y="1618" type="line"/>
      <point x="518" y="1285" type="line"/>
      <point x="378" y="1285" type="line"/>
    </contour>
  </outline>
</glyph>
<glyph name="mu1" format="1">
  <advance width="1119"/>
  <unicode hex="00B5"/>
  <outline>
    <contour>
      <point x="325" y="18" type="curve"/>
      <point x="325" y="-420" type="line"/>
      <point x="135" y="-420" type="line"/>
      <point x="135" y="1071" type="line"/>
      <point x="325" y="1071" type="line"/>
      <point x="325" y="448" type="line" smooth="yes"/>
      <point x="325" y="247"/>
      <point x="403" y="146"/>
      <point x="560" y="146" type="curve" smooth="yes"/>
      <point x="616" y="146"/>
      <point x="665" y="160"/>
      <point x="708" y="189" type="curve" smooth="yes"/>
      <point x="751" y="218"/>
      <point x="780" y="254"/>
      <point x="795" y="295" type="curve"/>
      <point x="795" y="1071" type="line"/>
      <point x="985" y="1071" type="line"/>
      <point x="985" y="0" type="line"/>
      <point x="795" y="0" type="line"/>
      <point x="795" y="148" type="line"/>
      <point x="772" y="98"/>
      <point x="735" y="57"/>
      <point x="683" y="26" type="curve" smooth="yes"/>
      <point x="631" y="-5"/>
      <point x="573" y="-20"/>
      <point x="508" y="-20" type="curve" smooth="yes"/>
      <point x="436" y="-20"/>
      <point x="375" y="-7"/>
    </contour>
  </outline>
</glyph>
<glyph name="paragraph" format="1">
  <advance width="436"/>
  <unicode hex="00B6"/>
  <outline>
    <contour>
      <point x="48" y="438" type="curve" smooth="yes"/>
      <point x="48" y="525"/>
      <point x="89" y="606"/>
      <point x="173" y="606" type="curve" smooth="yes"/>
      <point x="379" y="606" type="line"/>
      <point x="379" y="-102" type="line"/>
      <point x="317" y="-102" type="line"/>
      <point x="317" y="556" type="line"/>
      <point x="252" y="556" type="line"/>
      <point x="252" y="-102" type="line"/>
      <point x="190" y="-102" type="line"/>
      <point x="190" y="262" type="line"/>
      <point x="96" y="262"/>
      <point x="48" y="320"/>
    </contour>
  </outline>
</glyph>
<glyph name="middot.001" format="1">
  <advance width="752"/>
  <unicode hex="00B7"/>
  <outline>
    <contour>
      <point x="205" y="651" type="curve" smooth="yes"/>
      <point x="205" y="733"/>
      <point x="273" y="801"/>
      <point x="355" y="801" type="curve" smooth="yes"/>
      <point x="437" y="801"/>
      <point x="505" y="733"/>
      <point x="505" y="651" type="curve" smooth="yes"/>
      <point x="505" y="569"/>
      <point x="437" y="500"/>
      <point x="355" y="500" type="curve" smooth="yes"/>
      <point x="273" y="500"/>
      <point x="205" y="569"/>
    </contour>
  </outline>
</glyph>
<glyph name="cedilla" format="1">
  <advance width="1074"/>
  <unicode hex="00B8"/>
  <outline>
    <contour>
      <point x="423" y="-61" type="line"/>
      <point x="545" y="-61"/>
      <point x="632" y="-137"/>
      <point x="632" y="-254" type="curve" smooth="yes"/>
      <point x="632" y="-379"/>
      <point x="530" y="-455"/>
      <point x="355" y="-455" type="curve"/>
      <point x="331" y="-356" type="line"/>
      <point x="435" y="-356"/>
      <point x="513" y="-318"/>
      <point x="513" y="-254" type="curve" smooth="yes"/>
      <point x="513" y="-205"/>
      <point x="483" y="-180"/>
      <point x="423" y="-180" type="curve"/>
    </contour>
  </outline>
</glyph>
<glyph name="onesuperior" format="1">
  <advance width="924"/>
  <unicode hex="00B9"/>
  <outline>
    <contour>
      <point x="569" y="595" type="line"/>
      <point x="439" y="595" type="line"/>
      <point x="439" y="1269" type="line"/>
      <point x="251" y="1157" type="line"/>
      <point x="251" y="1270" type="line"/>
      <point x="382" y="1336"/>
      <point x="476" y="1405"/>
      <point x="533" y="1478" type="curve"/>
      <point x="569" y="1478" type="line"/>
    </contour>
  </outline>
</glyph>
<glyph name="ordmasculine" format="1">
  <advance width="752"/>
  <unicode hex="00BA"/>
  <outline>
    <contour>
      <point x="379" y="824" type="curve" smooth="yes"/>
      <point x="179" y="824"/>
      <point x="66" y="958"/>
      <point x="66" y="1159" type="curve" smooth="yes"/>
      <point x="66" y="1352"/>
      <point x="188" y="1491"/>
      <point x="379" y="1491" type="curve" smooth="yes"/>
      <point x="580" y="1491"/>
      <point x="691" y="1361"/>
      <point x="691" y="1159" type="curve" smooth="yes"/>
      <point x="691" y="960"/>
      <point x="577" y="824"/>
    </contour>
    <contour>
      <point x="207" y="1159" type="curve" smooth="yes"/>
      <point x="207" y="1012"/>
      <point x="264" y="938"/>
      <point x="379" y="938" type="curve" smooth="yes"/>
      <point x="493" y="938"/>
      <point x="550" y="1012"/>
      <point x="550" y="1159" type="curve" smooth="yes"/>
      <point x="550" y="1304"/>
      <point x="493" y="1377"/>
      <point x="379" y="1377" type="curve" smooth="yes"/>
      <point x="264" y="1377"/>
      <point x="207" y="1304"/>
    </contour>
  </outline>
</glyph>
<glyph name="guillemotright" format="1">
  <advance width="436"/>
  <unicode hex="00BB"/>
  <outline>
    <contour>
      <point x="213" y="244" type="line"/>
      <point x="213" y="218" type="line"/>
      <point x="69" y="121" type="line"/>
      <point x="69" y="172" type="line"/>
      <point x="155" y="228" type="line"/>
      <point x="69" y="292" type="line"/>
      <point x="69" y="343" type="line"/>
    </contour>
    <contour>
      <point x="376" y="244" type="line"/>
      <point x="376" y="218" type="line"/>
      <point x="231" y="121" type="line"/>
      <point x="231" y="172" type="line"/>
      <point x="317" y="228" type="line"/>
      <point x="231" y="292" type="line"/>
      <point x="231" y="343" type="line"/>
    </contour>
  </outline>
</glyph>
<glyph name="onequarter" format="1">
  <advance width="678"/>
  <unicode hex="00BC"/>
  <outline>
    <contour>
      <point x="537" y="607" type="line"/>
      <point x="142" y="-14" type="line"/>
      <point x="90" y="-14" type="line"/>
      <point x="486" y="607" type="line"/>
    </contour>
    <contour>
      <point x="162" y="242" type="line"/>
      <point x="105" y="242" type="line"/>
      <point x="105" y="512" type="line"/>
      <point x="33" y="471" type="line"/>
      <point x="33" y="517" type="line"/>
      <point x="86" y="544"/>
      <point x="125" y="571"/>
      <point x="148" y="601" type="curve"/>
      <point x="162" y="601" type="line"/>
    </contour>
    <contour>
      <point x="606" y="85" type="line"/>
      <point x="570" y="85" type="line"/>
      <point x="570" y="0" type="line"/>
      <point x="517" y="0" type="line"/>
      <point x="517" y="85" type="line"/>
      <point x="352" y="85" type="line"/>
      <point x="352" y="113" type="line"/>
      <point x="552" y="359" type="line"/>
      <point x="570" y="359" type="line"/>
      <point x="570" y="127" type="line"/>
      <point x="606" y="127" type="line"/>
    </contour>
    <contour>
      <point x="517" y="127" type="line"/>
      <point x="517" y="253" type="line"/>
      <point x="414" y="127" type="line"/>
    </contour>
  </outline>
</glyph>
<glyph name="onehalf" format="1">
  <advance width="1668"/>
  <unicode hex="00BD"/>
  <outline>
    <contour>
      <point x="1308" y="1491" type="line"/>
      <point x="336" y="-35" type="line"/>
      <point x="208" y="-35" type="line"/>
      <point x="1182" y="1491" type="line"/>
    </contour>
    <contour>
      <point x="419" y="595" type="line"/>
      <point x="289" y="595" type="line"/>
      <point x="289" y="1269" type="line"/>
      <point x="101" y="1157" type="line"/>
      <point x="101" y="1270" type="line"/>
      <point x="232" y="1336"/>
      <point x="326" y="1405"/>
      <point x="383" y="1478" type="curve"/>
      <point x="419" y="1478" type="line"/>
    </contour>
    <contour>
      <point x="1564" y="0" type="line"/>
      <point x="1024" y="0" type="line"/>
      <point x="1024" y="24" type="line"/>
      <point x="1290" y="438" type="line" smooth="yes"/>
      <point x="1347" y="527"/>
      <point x="1376" y="602"/>
      <point x="1376" y="661" type="curve" smooth="yes"/>
      <point x="1376" y="742"/>
      <point x="1333" y="783"/>
      <point x="1248" y="783" type="curve" smooth="yes"/>
      <point x="1177" y="783"/>
      <point x="1120" y="742"/>
      <point x="1079" y="659" type="curve"/>
      <point x="1002" y="722" type="line"/>
      <point x="1019" y="771"/>
      <point x="1050" y="812"/>
      <point x="1095" y="845" type="curve" smooth="yes"/>
      <point x="1140" y="878"/>
      <point x="1189" y="895"/>
      <point x="1242" y="895" type="curve" smooth="yes"/>
      <point x="1418" y="895"/>
      <point x="1506" y="820"/>
      <point x="1506" y="671" type="curve" smooth="yes"/>
      <point x="1506" y="591"/>
      <point x="1475" y="502"/>
      <point x="1413" y="405" type="curve" smooth="yes"/>
      <point x="1230" y="118" type="line"/>
      <point x="1564" y="118" type="line"/>
    </contour>
  </outline>
</glyph>
<glyph name="threequarters" format="1">
  <advance width="1668"/>
  <unicode hex="00BE"/>
  <outline>
    <contour>
      <point x="1401" y="1491" type="line"/>
      <point x="429" y="-35" type="line"/>
      <point x="301" y="-35" type="line"/>
      <point x="1275" y="1491" type="line"/>
    </contour>
    <contour>
      <point x="125" y="657" type="curve"/>
      <point x="184" y="759" type="line"/>
      <point x="217" y="723"/>
      <point x="266" y="705"/>
      <point x="332" y="705" type="curve" smooth="yes"/>
      <point x="441" y="705"/>
      <point x="495" y="752"/>
      <point x="495" y="847" type="curve" smooth="yes"/>
      <point x="495" y="944"/>
      <point x="430" y="1010"/>
      <point x="321" y="1010" type="curve" smooth="yes"/>
      <point x="311" y="1010" type="line"/>
      <point x="311" y="1112" type="line"/>
      <point x="317" y="1112" type="line" smooth="yes"/>
      <point x="416" y="1112"/>
      <point x="465" y="1158"/>
      <point x="465" y="1251" type="curve" smooth="yes"/>
      <point x="465" y="1330"/>
      <point x="419" y="1370"/>
      <point x="326" y="1370" type="curve" smooth="yes"/>
      <point x="269" y="1370"/>
      <point x="228" y="1355"/>
      <point x="202" y="1326" type="curve"/>
      <point x="148" y="1417" type="line"/>
      <point x="185" y="1466"/>
      <point x="248" y="1490"/>
      <point x="335" y="1490" type="curve" smooth="yes"/>
      <point x="412" y="1490"/>
      <point x="475" y="1469"/>
      <point x="523" y="1427" type="curve" smooth="yes"/>
      <point x="571" y="1386"/>
      <point x="595" y="1333"/>
      <point x="595" y="1270" type="curve" smooth="yes"/>
      <point x="595" y="1221"/>
      <point x="582" y="1178"/>
      <point x="555" y="1141" type="curve" smooth="yes"/>
      <point x="529" y="1104"/>
      <point x="497" y="1079"/>
      <point x="460" y="1065" type="curve"/>
      <point x="570" y="1029"/>
      <point x="625" y="953"/>
      <point x="625" y="838" type="curve" smooth="yes"/>
      <point x="625" y="669"/>
      <point x="527" y="585"/>
      <point x="330" y="585" type="curve" smooth="yes"/>
      <point x="244" y="585"/>
      <point x="176" y="609"/>
    </contour>
    <contour>
      <point x="1519" y="210" type="line"/>
      <point x="1430" y="210" type="line"/>
      <point x="1430" y="0" type="line"/>
      <point x="1300" y="0" type="line"/>
      <point x="1300" y="210" type="line"/>
      <point x="896" y="210" type="line"/>
      <point x="896" y="278" type="line"/>
      <point x="1388" y="883" type="line"/>
      <point x="1430" y="883" type="line"/>
      <point x="1430" y="312" type="line"/>
      <point x="1519" y="312" type="line"/>
    </contour>
    <contour>
      <point x="1300" y="312" type="line"/>
      <point x="1300" y="623" type="line"/>
      <point x="1048" y="312" type="line"/>
    </contour>
  </outline>
</glyph>
<glyph name="questiondown" format="1">
  <advance width="305"/>
  <unicode hex="00BF"/>
  <outline>
    <contour>
      <point x="226" y="382" type="curve" smooth="yes"/>
      <point x="226" y="349"/>
      <point x="198" y="321"/>
      <point x="165" y="321" type="curve" smooth="yes"/>
      <point x="132" y="321"/>
      <point x="104" y="349"/>
      <point x="104" y="382" type="curve" smooth="yes"/>
      <point x="104" y="415"/>
      <point x="132" y="444"/>
      <point x="165" y="444" type="curve" smooth="yes"/>
      <point x="198" y="444"/>
      <point x="226" y="415"/>
    </contour>
    <contour>
      <point x="158" y="-171" type="curve" smooth="yes"/>
      <point x="79" y="-171"/>
      <point x="16" y="-123"/>
      <point x="16" y="-44" type="curve" smooth="yes"/>
      <point x="16" y="-5"/>
      <point x="30" y="31"/>
      <point x="59" y="62" type="curve" smooth="yes"/>
      <point x="118" y="126" type="line"/>
      <point x="142" y="155"/>
      <point x="154" y="188"/>
      <point x="154" y="224" type="curve" smooth="yes"/>
      <point x="154" y="230"/>
      <point x="152" y="242"/>
      <point x="148" y="261" type="curve"/>
      <point x="202" y="261" type="line"/>
      <point x="211" y="235"/>
      <point x="216" y="216"/>
      <point x="216" y="205" type="curve" smooth="yes"/>
      <point x="216" y="185"/>
      <point x="212" y="166"/>
      <point x="205" y="146" type="curve" smooth="yes"/>
      <point x="198" y="126"/>
      <point x="182" y="100"/>
      <point x="156" y="72" type="curve" smooth="yes"/>
      <point x="131" y="44"/>
      <point x="114" y="22"/>
      <point x="105" y="7" type="curve" smooth="yes"/>
      <point x="96" y="-8"/>
      <point x="92" y="-23"/>
      <point x="92" y="-37" type="curve" smooth="yes"/>
      <point x="92" y="-85"/>
      <point x="121" y="-109"/>
      <point x="179" y="-109" type="curve" smooth="yes"/>
      <point x="207" y="-109"/>
      <point x="230" y="-99"/>
      <point x="251" y="-79" type="curve"/>
      <point x="281" y="-137" type="line"/>
      <point x="254" y="-159"/>
      <point x="212" y="-171"/>
    </contour>
  </outline>
</glyph>
<glyph name="OE" format="1">
  <advance width="827"/>
  <unicode hex="0152"/>
  <outline>
    <contour>
      <point x="798" y="523" type="line"/>
      <point x="524" y="523" type="line"/>
      <point x="524" y="357" type="line"/>
      <point x="721" y="357" type="line"/>
      <point x="721" y="288" type="line"/>
      <point x="524" y="288" type="line"/>
      <point x="524" y="73" type="line"/>
      <point x="794" y="73" type="line"/>
      <point x="794" y="0" type="line"/>
      <point x="442" y="0" type="line"/>
      <point x="442" y="56" type="line"/>
      <point x="398" y="12"/>
      <point x="340" y="-10"/>
      <point x="267" y="-10" type="curve" smooth="yes"/>
      <point x="192" y="-10"/>
      <point x="134" y="19"/>
      <point x="91" y="78" type="curve" smooth="yes"/>
      <point x="49" y="137"/>
      <point x="27" y="211"/>
      <point x="27" y="303" type="curve" smooth="yes"/>
      <point x="27" y="389"/>
      <point x="49" y="462"/>
      <point x="92" y="520" type="curve" smooth="yes"/>
      <point x="136" y="578"/>
      <point x="193" y="607"/>
      <point x="267" y="607" type="curve" smooth="yes"/>
      <point x="340" y="607"/>
      <point x="398" y="585"/>
      <point x="442" y="543" type="curve"/>
      <point x="442" y="596" type="line"/>
      <point x="798" y="596" type="line"/>
    </contour>
    <contour>
      <point x="267" y="533" type="curve" smooth="yes"/>
      <point x="153" y="533"/>
      <point x="113" y="426"/>
      <point x="113" y="303" type="curve" smooth="yes"/>
      <point x="113" y="185"/>
      <point x="157" y="63"/>
      <point x="267" y="63" type="curve" smooth="yes"/>
      <point x="391" y="63"/>
      <point x="438" y="170"/>
      <point x="438" y="303" type="curve" smooth="yes"/>
      <point x="438" y="456"/>
      <point x="381" y="533"/>
    </contour>
  </outline>
</glyph>
<glyph name="oe" format="1">
  <advance width="770"/>
  <unicode hex="0153"/>
  <outline>
    <contour>
      <point x="25" y="219" type="curve" smooth="yes"/>
      <point x="25" y="346"/>
      <point x="98" y="444"/>
      <point x="222" y="444" type="curve" smooth="yes"/>
      <point x="296" y="444"/>
      <point x="349" y="417"/>
      <point x="383" y="363" type="curve"/>
      <point x="423" y="417"/>
      <point x="476" y="444"/>
      <point x="541" y="444" type="curve" smooth="yes"/>
      <point x="601" y="444"/>
      <point x="650" y="426"/>
      <point x="685" y="390" type="curve" smooth="yes"/>
      <point x="721" y="354"/>
      <point x="739" y="306"/>
      <point x="739" y="249" type="curve" smooth="yes"/>
      <point x="739" y="236"/>
      <point x="737" y="223"/>
      <point x="733" y="210" type="curve"/>
      <point x="423" y="210" type="line"/>
      <point x="423" y="123"/>
      <point x="471" y="57"/>
      <point x="556" y="57" type="curve" smooth="yes"/>
      <point x="602" y="57"/>
      <point x="638" y="71"/>
      <point x="667" y="98" type="curve"/>
      <point x="700" y="36" type="line"/>
      <point x="666" y="6"/>
      <point x="613" y="-8"/>
      <point x="541" y="-8" type="curve" smooth="yes"/>
      <point x="472" y="-8"/>
      <point x="419" y="18"/>
      <point x="380" y="70" type="curve"/>
      <point x="345" y="18"/>
      <point x="292" y="-8"/>
      <point x="222" y="-8" type="curve" smooth="yes"/>
      <point x="93" y="-8"/>
      <point x="25" y="87"/>
    </contour>
    <contour>
      <point x="666" y="266" type="line"/>
      <point x="666" y="335"/>
      <point x="612" y="379"/>
      <point x="541" y="379" type="curve" smooth="yes"/>
      <point x="513" y="379"/>
      <point x="487" y="367"/>
      <point x="461" y="344" type="curve" smooth="yes"/>
      <point x="436" y="321"/>
      <point x="423" y="294"/>
      <point x="423" y="266" type="curve"/>
    </contour>
    <contour>
      <point x="222" y="61" type="curve" smooth="yes"/>
      <point x="304" y="61"/>
      <point x="338" y="132"/>
      <point x="338" y="219" type="curve" smooth="yes"/>
      <point x="338" y="323"/>
      <point x="299" y="375"/>
      <point x="222" y="375" type="curve" smooth="yes"/>
      <point x="149" y="375"/>
      <point x="106" y="318"/>
      <point x="106" y="219" type="curve" smooth="yes"/>
      <point x="106" y="114"/>
      <point x="145" y="61"/>
    </contour>
  </outline>
</glyph>
<glyph name="Scaron" format="1">
  <advance width="985"/>
  <unicode hex="0160"/>
  <outline>
    <contour>
      <point x="84" y="67" type="curve"/>
      <point x="157" y="251" type="line"/>
      <point x="194" y="224"/>
      <point x="241" y="201"/>
      <point x="296" y="182" type="curve" smooth="yes"/>
      <point x="352" y="164"/>
      <point x="402" y="155"/>
      <point x="446" y="155" type="curve" smooth="yes"/>
      <point x="524" y="155"/>
      <point x="587" y="176"/>
      <point x="634" y="219" type="curve" smooth="yes"/>
      <point x="681" y="262"/>
      <point x="705" y="316"/>
      <point x="705" y="382" type="curve" smooth="yes"/>
      <point x="705" y="431"/>
      <point x="692" y="477"/>
      <point x="665" y="519" type="curve" smooth="yes"/>
      <point x="639" y="562"/>
      <point x="573" y="608"/>
      <point x="467" y="658" type="curve" smooth="yes"/>
      <point x="349" y="713" type="line" smooth="yes"/>
      <point x="249" y="760"/>
      <point x="179" y="815"/>
      <point x="139" y="879" type="curve" smooth="yes"/>
      <point x="100" y="943"/>
      <point x="80" y="1020"/>
      <point x="80" y="1110" type="curve" smooth="yes"/>
      <point x="80" y="1219"/>
      <point x="119" y="1310"/>
      <point x="196" y="1382" type="curve" smooth="yes"/>
      <point x="273" y="1454"/>
      <point x="373" y="1490"/>
      <point x="494" y="1490" type="curve" smooth="yes"/>
      <point x="656" y="1490"/>
      <point x="769" y="1464"/>
      <point x="832" y="1411" type="curve"/>
      <point x="773" y="1237" type="line"/>
      <point x="746" y="1256"/>
      <point x="706" y="1275"/>
      <point x="651" y="1293" type="curve" smooth="yes"/>
      <point x="596" y="1311"/>
      <point x="546" y="1320"/>
      <point x="499" y="1320" type="curve" smooth="yes"/>
      <point x="431" y="1320"/>
      <point x="377" y="1301"/>
      <point x="338" y="1262" type="curve" smooth="yes"/>
      <point x="299" y="1223"/>
      <point x="280" y="1174"/>
      <point x="280" y="1113" type="curve" smooth="yes"/>
      <point x="280" y="1076"/>
      <point x="287" y="1042"/>
      <point x="301" y="1011" type="curve" smooth="yes"/>
      <point x="315" y="980"/>
      <point x="334" y="955"/>
      <point x="359" y="934" type="curve" smooth="yes"/>
      <point x="384" y="913"/>
      <point x="436" y="884"/>
      <point x="513" y="847" type="curve" smooth="yes"/>
      <point x="633" y="790" type="line" smooth="yes"/>
      <point x="733" y="743"/>
      <point x="803" y="686"/>
      <point x="843" y="620" type="curve" smooth="yes"/>
      <point x="884" y="555"/>
      <point x="904" y="471"/>
      <point x="904" y="370" type="curve" smooth="yes"/>
      <point x="904" y="260"/>
      <point x="860" y="167"/>
      <point x="771" y="90" type="curve" smooth="yes"/>
      <point x="683" y="13"/>
      <point x="565" y="-25"/>
      <point x="417" y="-25" type="curve" smooth="yes"/>
      <point x="287" y="-25"/>
      <point x="176" y="6"/>
    </contour>
    <contour>
      <point x="662" y="1919" type="line"/>
      <point x="859" y="1919" type="line"/>
      <point x="554" y="1585" type="line"/>
      <point x="447" y="1585" type="line"/>
      <point x="149" y="1923" type="line"/>
      <point x="321" y="1923" type="line"/>
      <point x="499" y="1731" type="line"/>
    </contour>
  </outline>
</glyph>
<glyph name="scaron" format="1">
  <advance width="337"/>
  <unicode hex="0161"/>
  <outline>
    <contour>
      <point x="311" y="117" type="curve" smooth="yes"/>
      <point x="311" y="32"/>
      <point x="245" y="-8"/>
      <point x="156" y="-8" type="curve" smooth="yes"/>
      <point x="110" y="-8"/>
      <point x="66" y="3"/>
      <point x="26" y="26" type="curve"/>
      <point x="54" y="99" type="line"/>
      <point x="97" y="71"/>
      <point x="132" y="57"/>
      <point x="158" y="57" type="curve" smooth="yes"/>
      <point x="206" y="57"/>
      <point x="229" y="77"/>
      <point x="229" y="117" type="curve" smooth="yes"/>
      <point x="229" y="146"/>
      <point x="206" y="170"/>
      <point x="160" y="191" type="curve" smooth="yes"/>
      <point x="125" y="207"/>
      <point x="101" y="219"/>
      <point x="88" y="228" type="curve" smooth="yes"/>
      <point x="57" y="250"/>
      <point x="29" y="284"/>
      <point x="29" y="330" type="curve" smooth="yes"/>
      <point x="29" y="406"/>
      <point x="92" y="444"/>
      <point x="170" y="444" type="curve" smooth="yes"/>
      <point x="202" y="444"/>
      <point x="242" y="434"/>
      <point x="290" y="414" type="curve"/>
      <point x="269" y="342" type="line"/>
      <point x="238" y="366"/>
      <point x="207" y="379"/>
      <point x="176" y="379" type="curve" smooth="yes"/>
      <point x="144" y="379"/>
      <point x="111" y="363"/>
      <point x="111" y="333" type="curve" smooth="yes"/>
      <point x="111" y="305"/>
      <point x="126" y="283"/>
      <point x="158" y="269" type="curve" smooth="yes"/>
      <point x="214" y="244" type="line" smooth="yes"/>
      <point x="282" y="213"/>
      <point x="311" y="177"/>
    </contour>
    <contour>
      <point x="230" y="659" type="line"/>
      <point x="310" y="659" type="line"/>
      <point x="186" y="523" type="line"/>
      <point x="142" y="523" type="line"/>
      <point x="21" y="660" type="line"/>
      <point x="91" y="660" type="line"/>
      <point x="164" y="582" type="line"/>
    </contour>
  </outline>
</glyph>
<glyph name="Ydieresis" format="1">
  <advance width="1168"/>
  <unicode hex="0178"/>
  <outline>
    <contour>
      <point x="1155" y="1465" type="line"/>
      <point x="685" y="656" type="line"/>
      <point x="685" y="0" type="line"/>
      <point x="485" y="0" type="line"/>
      <point x="485" y="656" type="line"/>
      <point x="13" y="1465" type="line"/>
      <point x="219" y="1465" type="line"/>
      <point x="584" y="825" type="line"/>
      <point x="949" y="1465" type="line"/>
    </contour>
    <contour>
      <point x="354" y="1813" type="curve" smooth="yes"/>
      <point x="417" y="1813"/>
      <point x="466" y="1764"/>
      <point x="466" y="1701" type="curve" smooth="yes"/>
      <point x="466" y="1638"/>
      <point x="417" y="1588"/>
      <point x="354" y="1588" type="curve" smooth="yes"/>
      <point x="323" y="1588"/>
      <point x="296" y="1599"/>
      <point x="274" y="1621" type="curve" smooth="yes"/>
      <point x="252" y="1643"/>
      <point x="241" y="1670"/>
      <point x="241" y="1701" type="curve" smooth="yes"/>
      <point x="241" y="1764"/>
      <point x="291" y="1813"/>
    </contour>
    <contour>
      <point x="826" y="1813" type="curve" smooth="yes"/>
      <point x="889" y="1813"/>
      <point x="939" y="1764"/>
      <point x="939" y="1701" type="curve" smooth="yes"/>
      <point x="939" y="1670"/>
      <point x="928" y="1643"/>
      <point x="906" y="1621" type="curve" smooth="yes"/>
      <point x="884" y="1599"/>
      <point x="857" y="1588"/>
      <point x="826" y="1588" type="curve" smooth="yes"/>
      <point x="763" y="1588"/>
      <point x="714" y="1638"/>
      <point x="714" y="1701" type="curve" smooth="yes"/>
      <point x="714" y="1764"/>
      <point x="763" y="1813"/>
    </contour>
  </outline>
</glyph>
<glyph name="Zcaron" format="1">
  <advance width="458"/>
  <unicode hex="017D"/>
  <outline>
    <contour>
      <point x="418" y="0" type="line"/>
      <point x="41" y="0" type="line"/>
      <point x="41" y="20" type="line"/>
      <point x="297" y="523" type="line"/>
      <point x="45" y="523" type="line"/>
      <point x="45" y="596" type="line"/>
      <point x="409" y="596" type="line"/>
      <point x="409" y="576" type="line"/>
      <point x="152" y="73" type="line"/>
      <point x="418" y="73" type="line"/>
    </contour>
    <contour>
      <point x="285" y="781" type="line"/>
      <point x="365" y="781" type="line"/>
      <point x="241" y="645" type="line"/>
      <point x="198" y="645" type="line"/>
      <point x="76" y="782" type="line"/>
      <point x="146" y="782" type="line"/>
      <point x="219" y="704" type="line"/>
    </contour>
  </outline>
</glyph>
<glyph name="zcaron" format="1">
  <advance width="395"/>
  <unicode hex="017E"/>
  <outline>
    <contour>
      <point x="377" y="414" type="line"/>
      <point x="138" y="69" type="line"/>
      <point x="379" y="69" type="line"/>
      <point x="379" y="0" type="line"/>
      <point x="16" y="0" type="line"/>
      <point x="16" y="20" type="line"/>
      <point x="264" y="367" type="line"/>
      <point x="20" y="367" type="line"/>
      <point x="20" y="436" type="line"/>
      <point x="377" y="436" type="line"/>
    </contour>
    <contour>
      <point x="257" y="659" type="line"/>
      <point x="337" y="659" type="line"/>
      <point x="213" y="523" type="line"/>
      <point x="169" y="523" type="line"/>
      <point x="48" y="660" type="line"/>
      <point x="118" y="660" type="line"/>
      <point x="190" y="582" type="line"/>
    </contour>
  </outline>
</glyph>
<glyph name="florin" format="1">
  <advance width="323"/>
  <unicode hex="0192"/>
  <outline>
    <contour>
      <point x="341" y="602" type="curve"/>
      <point x="326" y="542" type="line"/>
      <point x="305" y="550"/>
      <point x="289" y="553"/>
      <point x="278" y="553" type="curve" smooth="yes"/>
      <point x="224" y="553"/>
      <point x="192" y="514"/>
      <point x="182" y="436" type="curve"/>
      <point x="191" y="436"/>
      <point x="200" y="435"/>
      <point x="210" y="435" type="curve" smooth="yes"/>
      <point x="233" y="435"/>
      <point x="258" y="436"/>
      <point x="284" y="439" type="curve"/>
      <point x="279" y="392" type="line"/>
      <point x="234" y="385"/>
      <point x="197" y="381"/>
      <point x="171" y="380" type="curve"/>
      <point x="104" y="-30" type="line" smooth="yes"/>
      <point x="91" y="-107"/>
      <point x="31" y="-157"/>
      <point x="-50" y="-166" type="curve" smooth="yes"/>
      <point x="-50" y="-166"/>
      <point x="-54" y="-159"/>
      <point x="-59" y="-142" type="curve" smooth="yes"/>
      <point x="-66" y="-119" type="line" smooth="yes"/>
      <point x="-70" y="-109"/>
      <point x="-72" y="-103"/>
      <point x="-72" y="-103" type="curve" smooth="yes"/>
      <point x="-35" y="-95"/>
      <point x="19" y="-66"/>
      <point x="26" y="-30" type="curve" smooth="yes"/>
      <point x="94" y="377" type="line"/>
      <point x="82" y="377"/>
      <point x="62" y="375"/>
      <point x="33" y="371" type="curve"/>
      <point x="45" y="436" type="line"/>
      <point x="105" y="436" type="line"/>
      <point x="129" y="555"/>
      <point x="188" y="614"/>
      <point x="283" y="614" type="curve" smooth="yes"/>
      <point x="297" y="614"/>
      <point x="317" y="610"/>
    </contour>
  </outline>
</glyph>
<glyph name="circumflex" format="1">
  <advance width="436"/>
  <unicode hex="02C6"/>
  <outline>
    <contour>
      <point x="358" y="523" type="line"/>
      <point x="277" y="523" type="line"/>
      <point x="211" y="600" type="line"/>
      <point x="139" y="523" type="line"/>
      <point x="69" y="523" type="line"/>
      <point x="190" y="660" type="line"/>
      <point x="234" y="660" type="line"/>
    </contour>
  </outline>
</glyph>
<glyph name="tilde" format="1">
  <advance width="1074"/>
  <unicode hex="02DC"/>
  <outline>
    <contour>
      <point x="752" y="1492" type="curve"/>
      <point x="840" y="1492" type="line"/>
      <point x="805" y="1354"/>
      <point x="741" y="1285"/>
      <point x="648" y="1285" type="curve" smooth="yes"/>
      <point x="606" y="1285"/>
      <point x="560" y="1298"/>
      <point x="509" y="1323" type="curve" smooth="yes"/>
      <point x="459" y="1349"/>
      <point x="424" y="1362"/>
      <point x="403" y="1362" type="curve" smooth="yes"/>
      <point x="356" y="1362"/>
      <point x="320" y="1336"/>
      <point x="295" y="1285" type="curve"/>
      <point x="204" y="1285" type="line"/>
      <point x="213" y="1341"/>
      <point x="235" y="1389"/>
      <point x="268" y="1430" type="curve" smooth="yes"/>
      <point x="302" y="1471"/>
      <point x="342" y="1492"/>
      <point x="388" y="1492" type="curve" smooth="yes"/>
      <point x="443" y="1492"/>
      <point x="493" y="1479"/>
      <point x="539" y="1453" type="curve" smooth="yes"/>
      <point x="586" y="1428"/>
      <point x="621" y="1415"/>
      <point x="644" y="1415" type="curve" smooth="yes"/>
      <point x="698" y="1415"/>
      <point x="734" y="1441"/>
    </contour>
  </outline>
</glyph>
<glyph name="endash" format="1">
  <advance width="752"/>
  <unicode hex="2013"/>
  <outline>
    <contour>
      <point x="614" y="532" type="line"/>
      <point x="93" y="532" type="line"/>
      <point x="93" y="628" type="line"/>
      <point x="614" y="628" type="line"/>
    </contour>
  </outline>
</glyph>
<glyph name="emdash" format="1">
  <advance width="611"/>
  <unicode hex="2014"/>
  <outline>
    <contour>
      <point x="570" y="216" type="line"/>
      <point x="38" y="216" type="line"/>
      <point x="38" y="255" type="line"/>
      <point x="570" y="255" type="line"/>
    </contour>
  </outline>
</glyph>
<glyph name="quoteleft" format="1">
  <advance width="305"/>
  <unicode hex="2018"/>
  <outline>
    <contour>
      <point x="198" y="614" type="curve"/>
      <point x="225" y="578" type="line"/>
      <point x="194" y="552" type="line" smooth="yes"/>
      <point x="179" y="539"/>
      <point x="172" y="523"/>
      <point x="172" y="505" type="curve" smooth="yes"/>
      <point x="172" y="494"/>
      <point x="179" y="482"/>
      <point x="192" y="467" type="curve" smooth="yes"/>
      <point x="205" y="452"/>
      <point x="212" y="438"/>
      <point x="212" y="426" type="curve" smooth="yes"/>
      <point x="212" y="386"/>
      <point x="192" y="367"/>
      <point x="153" y="367" type="curve" smooth="yes"/>
      <point x="111" y="367"/>
      <point x="90" y="391"/>
      <point x="90" y="439" type="curve" smooth="yes"/>
      <point x="90" y="511"/>
      <point x="126" y="569"/>
    </contour>
  </outline>
</glyph>
<glyph name="quoteright" format="1">
  <advance width="752"/>
  <unicode hex="2019"/>
  <outline>
    <contour>
      <point x="531" y="1333" type="curve" smooth="yes"/>
      <point x="531" y="1156"/>
      <point x="443" y="1012"/>
      <point x="266" y="901" type="curve"/>
      <point x="199" y="990" type="line"/>
      <point x="274" y="1054" type="line" smooth="yes"/>
      <point x="311" y="1085"/>
      <point x="329" y="1124"/>
      <point x="329" y="1169" type="curve" smooth="yes"/>
      <point x="329" y="1196"/>
      <point x="313" y="1228"/>
      <point x="280" y="1264" type="curve" smooth="yes"/>
      <point x="247" y="1300"/>
      <point x="231" y="1333"/>
      <point x="231" y="1363" type="curve" smooth="yes"/>
      <point x="231" y="1461"/>
      <point x="279" y="1510"/>
      <point x="376" y="1510" type="curve" smooth="yes"/>
      <point x="479" y="1510"/>
      <point x="531" y="1451"/>
    </contour>
  </outline>
</glyph>
<glyph name="quotesinglbase" format="1">
  <advance width="752"/>
  <unicode hex="201A"/>
  <outline>
    <contour>
      <point x="531" y="100" type="curve" smooth="yes"/>
      <point x="531" y="-77"/>
      <point x="443" y="-221"/>
      <point x="266" y="-332" type="curve"/>
      <point x="199" y="-243" type="line"/>
      <point x="274" y="-179" type="line" smooth="yes"/>
      <point x="311" y="-148"/>
      <point x="329" y="-109"/>
      <point x="329" y="-64" type="curve" smooth="yes"/>
      <point x="329" y="-37"/>
      <point x="313" y="-5"/>
      <point x="280" y="31" type="curve" smooth="yes"/>
      <point x="247" y="67"/>
      <point x="231" y="100"/>
      <point x="231" y="130" type="curve" smooth="yes"/>
      <point x="231" y="228"/>
      <point x="279" y="277"/>
      <point x="376" y="277" type="curve" smooth="yes"/>
      <point x="479" y="277"/>
      <point x="531" y="218"/>
    </contour>
  </outline>
</glyph>
<glyph name="quotedblleft" format="1">
  <advance width="1074"/>
  <unicode hex="201C"/>
  <outline>
    <contour>
      <point x="882" y="1510" type="curve"/>
      <point x="949" y="1421" type="line"/>
      <point x="874" y="1357" type="line" smooth="yes"/>
      <point x="837" y="1326"/>
      <point x="819" y="1287"/>
      <point x="819" y="1242" type="curve" smooth="yes"/>
      <point x="819" y="1215"/>
      <point x="835" y="1183"/>
      <point x="868" y="1147" type="curve" smooth="yes"/>
      <point x="901" y="1111"/>
      <point x="917" y="1078"/>
      <point x="917" y="1048" type="curve" smooth="yes"/>
      <point x="917" y="950"/>
      <point x="869" y="901"/>
      <point x="772" y="901" type="curve" smooth="yes"/>
      <point x="669" y="901"/>
      <point x="617" y="960"/>
      <point x="617" y="1078" type="curve" smooth="yes"/>
      <point x="617" y="1255"/>
      <point x="705" y="1399"/>
    </contour>
    <contour>
      <point x="432" y="1510" type="curve"/>
      <point x="499" y="1421" type="line"/>
      <point x="424" y="1357" type="line" smooth="yes"/>
      <point x="387" y="1326"/>
      <point x="369" y="1287"/>
      <point x="369" y="1242" type="curve" smooth="yes"/>
      <point x="369" y="1215"/>
      <point x="385" y="1183"/>
      <point x="418" y="1147" type="curve" smooth="yes"/>
      <point x="451" y="1111"/>
      <point x="467" y="1078"/>
      <point x="467" y="1048" type="curve" smooth="yes"/>
      <point x="467" y="950"/>
      <point x="419" y="901"/>
      <point x="322" y="901" type="curve" smooth="yes"/>
      <point x="219" y="901"/>
      <point x="167" y="960"/>
      <point x="167" y="1078" type="curve" smooth="yes"/>
      <point x="167" y="1255"/>
      <point x="255" y="1399"/>
    </contour>
  </outline>
</glyph>
<glyph name="quotedblright" format="1">
  <advance width="1074"/>
  <unicode hex="201D"/>
  <outline>
    <contour>
      <point x="955" y="1333" type="curve" smooth="yes"/>
      <point x="955" y="1156"/>
      <point x="867" y="1012"/>
      <point x="690" y="901" type="curve"/>
      <point x="623" y="990" type="line"/>
      <point x="698" y="1054" type="line" smooth="yes"/>
      <point x="735" y="1085"/>
      <point x="753" y="1124"/>
      <point x="753" y="1169" type="curve" smooth="yes"/>
      <point x="753" y="1196"/>
      <point x="737" y="1228"/>
      <point x="704" y="1264" type="curve" smooth="yes"/>
      <point x="671" y="1300"/>
      <point x="655" y="1333"/>
      <point x="655" y="1363" type="curve" smooth="yes"/>
      <point x="655" y="1461"/>
      <point x="703" y="1510"/>
      <point x="800" y="1510" type="curve" smooth="yes"/>
      <point x="903" y="1510"/>
      <point x="955" y="1451"/>
    </contour>
    <contour>
      <point x="496" y="1333" type="curve" smooth="yes"/>
      <point x="496" y="1156"/>
      <point x="408" y="1012"/>
      <point x="231" y="901" type="curve"/>
      <point x="164" y="990" type="line"/>
      <point x="239" y="1054" type="line" smooth="yes"/>
      <point x="276" y="1085"/>
      <point x="294" y="1124"/>
      <point x="294" y="1169" type="curve" smooth="yes"/>
      <point x="294" y="1196"/>
      <point x="278" y="1228"/>
      <point x="245" y="1264" type="curve" smooth="yes"/>
      <point x="212" y="1300"/>
      <point x="196" y="1333"/>
      <point x="196" y="1363" type="curve" smooth="yes"/>
      <point x="196" y="1461"/>
      <point x="244" y="1510"/>
      <point x="341" y="1510" type="curve" smooth="yes"/>
      <point x="444" y="1510"/>
      <point x="496" y="1451"/>
    </contour>
  </outline>
</glyph>
<glyph name="quotedblbase" format="1">
  <advance width="436"/>
  <unicode hex="201E"/>
  <outline>
    <contour>
      <point x="389" y="41" type="curve" smooth="yes"/>
      <point x="389" y="-31"/>
      <point x="353" y="-90"/>
      <point x="281" y="-135" type="curve"/>
      <point x="253" y="-99" type="line"/>
      <point x="284" y="-73" type="line" smooth="yes"/>
      <point x="299" y="-60"/>
      <point x="306" y="-44"/>
      <point x="306" y="-26" type="curve" smooth="yes"/>
      <point x="306" y="-15"/>
      <point x="299" y="-2"/>
      <point x="286" y="13" type="curve" smooth="yes"/>
      <point x="273" y="28"/>
      <point x="266" y="41"/>
      <point x="266" y="53" type="curve" smooth="yes"/>
      <point x="266" y="93"/>
      <point x="286" y="113"/>
      <point x="325" y="113" type="curve" smooth="yes"/>
      <point x="367" y="113"/>
      <point x="389" y="89"/>
    </contour>
    <contour>
      <point x="202" y="41" type="curve" smooth="yes"/>
      <point x="202" y="-31"/>
      <point x="166" y="-90"/>
      <point x="94" y="-135" type="curve"/>
      <point x="67" y="-99" type="line"/>
      <point x="97" y="-73" type="line" smooth="yes"/>
      <point x="112" y="-60"/>
      <point x="120" y="-44"/>
      <point x="120" y="-26" type="curve" smooth="yes"/>
      <point x="120" y="-15"/>
      <point x="113" y="-2"/>
      <point x="100" y="13" type="curve" smooth="yes"/>
      <point x="87" y="28"/>
      <point x="80" y="41"/>
      <point x="80" y="53" type="curve" smooth="yes"/>
      <point x="80" y="93"/>
      <point x="100" y="113"/>
      <point x="139" y="113" type="curve" smooth="yes"/>
      <point x="181" y="113"/>
      <point x="202" y="89"/>
    </contour>
  </outline>
</glyph>
<glyph name="dagger" format="1">
  <advance width="940"/>
  <unicode hex="2020"/>
  <outline>
    <contour>
      <point x="395" y="-250" type="line"/>
      <point x="395" y="931" type="line"/>
      <point x="25" y="931" type="line"/>
      <point x="25" y="1071" type="line"/>
      <point x="395" y="1071" type="line"/>
      <point x="395" y="1385" type="line"/>
      <point x="545" y="1385" type="line"/>
      <point x="545" y="1071" type="line"/>
      <point x="915" y="1071" type="line"/>
      <point x="915" y="931" type="line"/>
      <point x="545" y="931" type="line"/>
      <point x="545" y="-250" type="line"/>
      <point x="471" y="-338" type="line"/>
    </contour>
  </outline>
</glyph>
<glyph name="bullet" format="1">
  <advance width="1074"/>
  <unicode hex="2022"/>
  <outline>
    <contour>
      <point x="542" y="863" type="curve" smooth="yes"/>
      <point x="622" y="863"/>
      <point x="690" y="835"/>
      <point x="746" y="778" type="curve" smooth="yes"/>
      <point x="803" y="722"/>
      <point x="831" y="654"/>
      <point x="831" y="574" type="curve" smooth="yes"/>
      <point x="831" y="494"/>
      <point x="803" y="426"/>
      <point x="746" y="369" type="curve" smooth="yes"/>
      <point x="690" y="313"/>
      <point x="622" y="285"/>
      <point x="542" y="285" type="curve" smooth="yes"/>
      <point x="462" y="285"/>
      <point x="394" y="313"/>
      <point x="337" y="369" type="curve" smooth="yes"/>
      <point x="281" y="426"/>
      <point x="253" y="494"/>
      <point x="253" y="574" type="curve" smooth="yes"/>
      <point x="253" y="654"/>
      <point x="281" y="722"/>
      <point x="337" y="778" type="curve" smooth="yes"/>
      <point x="394" y="835"/>
      <point x="462" y="863"/>
    </contour>
  </outline>
</glyph>
<glyph name="ellipsis" format="1">
  <advance width="1504"/>
  <unicode hex="2026"/>
  <outline>
    <contour>
      <point x="400" y="131" type="curve" smooth="yes"/>
      <point x="400" y="90"/>
      <point x="385" y="54"/>
      <point x="356" y="24" type="curve" smooth="yes"/>
      <point x="327" y="-5"/>
      <point x="291" y="-20"/>
      <point x="250" y="-20" type="curve" smooth="yes"/>
      <point x="209" y="-20"/>
      <point x="173" y="-5"/>
      <point x="144" y="24" type="curve" smooth="yes"/>
      <point x="115" y="54"/>
      <point x="100" y="90"/>
      <point x="100" y="131" type="curve" smooth="yes"/>
      <point x="100" y="172"/>
      <point x="115" y="208"/>
      <point x="144" y="237" type="curve" smooth="yes"/>
      <point x="173" y="266"/>
      <point x="209" y="281"/>
      <point x="250" y="281" type="curve" smooth="yes"/>
      <point x="291" y="281"/>
      <point x="327" y="266"/>
      <point x="356" y="237" type="curve" smooth="yes"/>
      <point x="385" y="208"/>
      <point x="400" y="172"/>
    </contour>
    <contour>
      <point x="902" y="131" type="curve" smooth="yes"/>
      <point x="902" y="90"/>
      <point x="887" y="54"/>
      <point x="858" y="24" type="curve" smooth="yes"/>
      <point x="829" y="-5"/>
      <point x="793" y="-20"/>
      <point x="752" y="-20" type="curve" smooth="yes"/>
      <point x="711" y="-20"/>
      <point x="675" y="-5"/>
      <point x="646" y="24" type="curve" smooth="yes"/>
      <point x="617" y="54"/>
      <point x="602" y="90"/>
      <point x="602" y="131" type="curve" smooth="yes"/>
      <point x="602" y="172"/>
      <point x="617" y="208"/>
      <point x="646" y="237" type="curve" smooth="yes"/>
      <point x="675" y="266"/>
      <point x="711" y="281"/>
      <point x="752" y="281" type="curve" smooth="yes"/>
      <point x="793" y="281"/>
      <point x="829" y="266"/>
      <point x="858" y="237" type="curve" smooth="yes"/>
      <point x="887" y="208"/>
      <point x="902" y="172"/>
    </contour>
    <contour>
      <point x="1404" y="131" type="curve" smooth="yes"/>
      <point x="1404" y="90"/>
      <point x="1389" y="54"/>
      <point x="1360" y="24" type="curve" smooth="yes"/>
      <point x="1331" y="-5"/>
      <point x="1295" y="-20"/>
      <point x="1254" y="-20" type="curve" smooth="yes"/>
      <point x="1213" y="-20"/>
      <point x="1177" y="-5"/>
      <point x="1148" y="24" type="curve" smooth="yes"/>
      <point x="1119" y="54"/>
      <point x="1104" y="90"/>
      <point x="1104" y="131" type="curve" smooth="yes"/>
      <point x="1104" y="172"/>
      <point x="1119" y="208"/>
      <point x="1148" y="237" type="curve" smooth="yes"/>
      <point x="1177" y="266"/>
      <point x="1213" y="281"/>
      <point x="1254" y="281" type="curve" smooth="yes"/>
      <point x="1295" y="281"/>
      <point x="1331" y="266"/>
      <point x="1360" y="237" type="curve" smooth="yes"/>
      <point x="1389" y="208"/>
      <point x="1404" y="172"/>
    </contour>
  </outline>
</glyph>
<glyph name="perthousand" format="1">
  <advance width="760"/>
  <unicode hex="2030"/>
  <outline>
    <contour>
      <point x="448" y="607" type="line"/>
      <point x="89" y="-8" type="line"/>
      <point x="37" y="-8" type="line"/>
      <point x="396" y="607" type="line"/>
    </contour>
    <contour>
      <point x="251" y="465" type="curve" smooth="yes"/>
      <point x="251" y="388"/>
      <point x="211" y="327"/>
      <point x="138" y="327" type="curve" smooth="yes"/>
      <point x="63" y="327"/>
      <point x="25" y="376"/>
      <point x="25" y="473" type="curve" smooth="yes"/>
      <point x="25" y="547"/>
      <point x="70" y="607"/>
      <point x="142" y="607" type="curve" smooth="yes"/>
      <point x="209" y="607"/>
      <point x="251" y="556"/>
    </contour>
    <contour>
      <point x="76" y="469" type="curve" smooth="yes"/>
      <point x="76" y="406"/>
      <point x="99" y="369"/>
      <point x="134" y="369" type="curve" smooth="yes"/>
      <point x="178" y="369"/>
      <point x="200" y="402"/>
      <point x="200" y="468" type="curve" smooth="yes"/>
      <point x="200" y="533"/>
      <point x="180" y="565"/>
      <point x="140" y="565" type="curve" smooth="yes"/>
      <point x="101" y="565"/>
      <point x="76" y="528"/>
    </contour>
    <contour>
      <point x="471" y="130" type="curve" smooth="yes"/>
      <point x="471" y="53"/>
      <point x="431" y="-8"/>
      <point x="358" y="-8" type="curve" smooth="yes"/>
      <point x="283" y="-8"/>
      <point x="245" y="41"/>
      <point x="245" y="138" type="curve" smooth="yes"/>
      <point x="245" y="212"/>
      <point x="289" y="271"/>
      <point x="361" y="271" type="curve" smooth="yes"/>
      <point x="428" y="271"/>
      <point x="471" y="221"/>
    </contour>
    <contour>
      <point x="296" y="133" type="curve" smooth="yes"/>
      <point x="296" y="70"/>
      <point x="319" y="33"/>
      <point x="354" y="33" type="curve" smooth="yes"/>
      <point x="398" y="33"/>
      <point x="420" y="67"/>
      <point x="420" y="133" type="curve" smooth="yes"/>
      <point x="420" y="198"/>
      <point x="400" y="230"/>
      <point x="360" y="230" type="curve" smooth="yes"/>
      <point x="321" y="230"/>
      <point x="296" y="192"/>
    </contour>
    <contour>
      <point x="736" y="130" type="curve" smooth="yes"/>
      <point x="736" y="53"/>
      <point x="695" y="-8"/>
      <point x="622" y="-8" type="curve" smooth="yes"/>
      <point x="547" y="-8"/>
      <point x="509" y="41"/>
      <point x="509" y="138" type="curve" smooth="yes"/>
      <point x="509" y="212"/>
      <point x="554" y="271"/>
      <point x="626" y="271" type="curve" smooth="yes"/>
      <point x="693" y="271"/>
      <point x="736" y="221"/>
    </contour>
    <contour>
      <point x="560" y="133" type="curve" smooth="yes"/>
      <point x="560" y="70"/>
      <point x="583" y="33"/>
      <point x="618" y="33" type="curve" smooth="yes"/>
      <point x="662" y="33"/>
      <point x="684" y="67"/>
      <point x="684" y="133" type="curve" smooth="yes"/>
      <point x="684" y="198"/>
      <point x="664" y="230"/>
      <point x="624" y="230" type="curve" smooth="yes"/>
      <point x="585" y="230"/>
      <point x="560" y="192"/>
    </contour>
  </outline>
</glyph>
<glyph name="guilsinglleft" format="1">
  <advance width="305"/>
  <unicode hex="2039"/>
  <outline>
    <contour>
      <point x="214" y="121" type="line"/>
      <point x="70" y="218" type="line"/>
      <point x="70" y="244" type="line"/>
      <point x="214" y="343" type="line"/>
      <point x="214" y="292" type="line"/>
      <point x="128" y="228" type="line"/>
      <point x="214" y="172" type="line"/>
    </contour>
  </outline>
</glyph>
<glyph name="guilsinglright" format="1">
  <advance width="752"/>
  <unicode hex="203A"/>
  <outline>
    <contour>
      <point x="566" y="599" type="line"/>
      <point x="566" y="535" type="line"/>
      <point x="211" y="298" type="line"/>
      <point x="211" y="423" type="line"/>
      <point x="423" y="561" type="line"/>
      <point x="211" y="718" type="line"/>
      <point x="211" y="843" type="line"/>
    </contour>
  </outline>
</glyph>
<glyph name="Euro" format="1">
  <advance width="1074"/>
  <unicode hex="20AC"/>
  <outline>
    <contour>
      <point x="346" y="928" type="curve"/>
      <point x="805" y="928" type="line"/>
      <point x="747" y="787" type="line"/>
      <point x="333" y="787" type="line"/>
      <point x="331" y="762"/>
      <point x="330" y="739"/>
      <point x="330" y="716" type="curve" smooth="yes"/>
      <point x="330" y="697"/>
      <point x="331" y="677"/>
      <point x="332" y="656" type="curve"/>
      <point x="679" y="656" type="line"/>
      <point x="630" y="515" type="line"/>
      <point x="347" y="515" type="line"/>
      <point x="356" y="426"/>
      <point x="393" y="346"/>
      <point x="456" y="273" type="curve" smooth="yes"/>
      <point x="525" y="194"/>
      <point x="602" y="155"/>
      <point x="687" y="155" type="curve" smooth="yes"/>
      <point x="746" y="155"/>
      <point x="809" y="168"/>
      <point x="874" y="195" type="curve" smooth="yes"/>
      <point x="939" y="222"/>
      <point x="992" y="256"/>
      <point x="1031" y="298" type="curve"/>
      <point x="1031" y="81" type="line"/>
      <point x="938" y="10"/>
      <point x="816" y="-25"/>
      <point x="666" y="-25" type="curve" smooth="yes"/>
      <point x="522" y="-25"/>
      <point x="402" y="31"/>
      <point x="307" y="142" type="curve" smooth="yes"/>
      <point x="224" y="239"/>
      <point x="171" y="363"/>
      <point x="147" y="515" type="curve"/>
      <point x="31" y="515" type="line"/>
      <point x="31" y="656" type="line"/>
      <point x="129" y="656" type="line"/>
      <point x="126" y="701"/>
      <point x="125" y="745"/>
      <point x="128" y="787" type="curve"/>
      <point x="31" y="787" type="line"/>
      <point x="31" y="928" type="line"/>
      <point x="146" y="928" type="line"/>
      <point x="171" y="1083"/>
      <point x="229" y="1213"/>
      <point x="321" y="1317" type="curve" smooth="yes"/>
      <point x="424" y="1432"/>
      <point x="550" y="1490"/>
      <point x="699" y="1490" type="curve" smooth="yes"/>
      <point x="866" y="1490"/>
      <point x="983" y="1459"/>
      <point x="1052" y="1397" type="curve"/>
      <point x="963" y="1233" type="line"/>
      <point x="896" y="1284"/>
      <point x="809" y="1310"/>
      <point x="704" y="1310" type="curve" smooth="yes"/>
      <point x="603" y="1310"/>
      <point x="519" y="1271"/>
      <point x="454" y="1192" type="curve" smooth="yes"/>
      <point x="398" y="1123"/>
      <point x="362" y="1035"/>
    </contour>
  </outline>
</glyph>
<glyph name="trademark" format="1">
  <advance width="528"/>
  <unicode hex="2122"/>
  <outline>
    <contour>
      <point x="292" y="562" type="line"/>
      <point x="203" y="562" type="line"/>
      <point x="203" y="300" type="line"/>
      <point x="162" y="300" type="line"/>
      <point x="162" y="562" type="line"/>
      <point x="78" y="562" type="line"/>
      <point x="78" y="598" type="line"/>
      <point x="292" y="598" type="line"/>
    </contour>
    <contour>
      <point x="549" y="301" type="line"/>
      <point x="510" y="301" type="line"/>
      <point x="476" y="503" type="line"/>
      <point x="417" y="299" type="line"/>
      <point x="393" y="299" type="line"/>
      <point x="330" y="506" type="line"/>
      <point x="298" y="301" type="line"/>
      <point x="260" y="301" type="line"/>
      <point x="305" y="598" type="line"/>
      <point x="336" y="598" type="line"/>
      <point x="404" y="368" type="line"/>
      <point x="472" y="598" type="line"/>
      <point x="503" y="598" type="line"/>
    </contour>
  </outline>
</glyph>
<glyph name="aa" format="1">
  <advance width="708"/>
  <unicode hex="E600"/>
  <outline>
    <contour>
      <point x="308" y="151" type="curve" smooth="yes"/>
      <point x="284" y="151"/>
      <point x="264" y="144"/>
      <point x="252" y="130" type="curve" smooth="yes"/>
      <point x="245" y="123"/>
      <point x="235" y="106"/>
      <point x="235" y="80" type="curve" smooth="yes"/>
      <point x="235" y="61"/>
      <point x="242" y="54"/>
      <point x="245" y="52" type="curve" smooth="yes"/>
      <point x="253" y="45"/>
      <point x="268" y="41"/>
      <point x="285" y="41" type="curve" smooth="yes"/>
      <point x="307" y="41"/>
      <point x="359" y="51"/>
      <point x="387" y="131" type="curve"/>
      <point x="366" y="148"/>
      <point x="346" y="151"/>
      <point x="310" y="151" type="curve" smooth="yes"/>
      <point x="309" y="151"/>
      <point x="309" y="151"/>
    </contour>
    <contour>
      <point x="479" y="-11" type="line"/>
      <point x="458" y="31"/>
      <point x="439" y="64"/>
      <point x="423" y="88" type="curve"/>
      <point x="409" y="58"/>
      <point x="390" y="35"/>
      <point x="367" y="18" type="curve" smooth="yes"/>
      <point x="336" y="-4"/>
      <point x="306" y="-9"/>
      <point x="285" y="-9" type="curve" smooth="yes"/>
      <point x="255" y="-9"/>
      <point x="230" y="-1"/>
      <point x="213" y="14" type="curve" smooth="yes"/>
      <point x="200" y="25"/>
      <point x="185" y="45"/>
      <point x="185" y="80" type="curve" smooth="yes"/>
      <point x="185" y="113"/>
      <point x="195" y="142"/>
      <point x="214" y="163" type="curve" smooth="yes"/>
      <point x="230" y="181"/>
      <point x="259" y="201"/>
      <point x="308" y="201" type="curve" smooth="yes"/>
      <point x="350" y="201"/>
      <point x="384" y="198"/>
      <point x="419" y="169" type="curve" smooth="yes"/>
      <point x="450" y="143"/>
      <point x="481" y="97"/>
      <point x="524" y="11" type="curve"/>
    </contour>
    <contour>
      <point x="356" y="292" type="line"/>
      <point x="306" y="292" type="line"/>
      <point x="306" y="666" type="line"/>
      <point x="356" y="666" type="line"/>
    </contour>
  </outline>
</glyph>
<glyph name="uniE600" format="1">
  <advance width="1741"/>
  <unicode hex="E600"/>
  <outline>
    <contour>
      <point x="874" y="717" type="line"/>
      <point x="751" y="717" type="line"/>
      <point x="751" y="1638" type="line"/>
      <point x="874" y="1638" type="line"/>
    </contour>
    <contour>
      <point x="1177" y="-27" type="line"/>
      <point x="1125" y="77"/>
      <point x="1080" y="157"/>
      <point x="1040" y="216" type="curve"/>
      <point x="1005" y="143"/>
      <point x="959" y="86"/>
      <point x="902" y="45" type="curve" smooth="yes"/>
      <point x="824" y="-12"/>
      <point x="745" y="-22"/>
      <point x="694" y="-21" type="curve" smooth="yes"/>
      <point x="623" y="-19"/>
      <point x="566" y="-1"/>
      <point x="524" y="34" type="curve" smooth="yes"/>
      <point x="491" y="62"/>
      <point x="452" y="114"/>
      <point x="454" y="204" type="curve" smooth="yes"/>
      <point x="456" y="280"/>
      <point x="482" y="350"/>
      <point x="527" y="401" type="curve" smooth="yes"/>
      <point x="567" y="446"/>
      <point x="640" y="498"/>
      <point x="767" y="495" type="curve" smooth="yes"/>
      <point x="864" y="493"/>
      <point x="945" y="485"/>
      <point x="1029" y="416" type="curve" smooth="yes"/>
      <point x="1106" y="352"/>
      <point x="1181" y="239"/>
      <point x="1287" y="27" type="curve"/>
    </contour>
    <contour>
      <point x="756" y="372" type="curve" smooth="yes"/>
      <point x="696" y="372"/>
      <point x="650" y="355"/>
      <point x="620" y="320" type="curve" smooth="yes"/>
      <point x="604" y="302"/>
      <point x="578" y="264"/>
      <point x="577" y="201" type="curve" smooth="yes"/>
      <point x="576" y="152"/>
      <point x="596" y="134"/>
      <point x="603" y="129" type="curve" smooth="yes"/>
      <point x="623" y="112"/>
      <point x="655" y="103"/>
      <point x="697" y="102" type="curve" smooth="yes"/>
      <point x="749" y="101"/>
      <point x="879" y="119"/>
      <point x="951" y="321" type="curve"/>
      <point x="951" y="321"/>
      <point x="950" y="321"/>
      <point x="950" y="321" type="curve"/>
      <point x="898" y="364"/>
      <point x="851" y="370"/>
      <point x="763" y="372" type="curve" smooth="yes"/>
      <point x="761" y="372"/>
      <point x="758" y="372"/>
    </contour>
  </outline>
</glyph>
